<svg width="148" height="151" viewBox="0 0 148 151" fill="none" xmlns="http://www.w3.org/2000/svg">
<path d="M58.2588 126.014C65.8679 126.104 68.6545 114.165 68.7316 107.674C68.7785 103.728 68.8254 99.7823 68.8723 95.8362C68.9091 92.7367 68.7483 89.924 70.1155 87.1038C71.3027 84.6548 73.1339 82.8104 74.4562 80.5084C75.4883 78.7116 77.5913 78.3739 79.1558 77.4485C80.1615 76.8536 83.3201 77.0789 84.4958 77.3273C86.9161 77.8386 88.6544 79.3154 90.6149 80.885C96.6455 85.7131 99.0863 94.3901 104.141 100.387C106.312 102.962 109.357 104.187 112.662 104.227C114.081 104.244 117.423 104.965 118.366 103.671C118.854 103.003 119.784 102.983 120.155 102.239C120.602 101.343 121.424 100.71 121.998 99.8602C125.945 94.0164 126.377 87.9708 123.949 81.2811C122.712 77.8723 119.962 75.1113 116.822 73.7647C114.768 72.8838 108.761 69.4513 107.135 72.1264C105.728 74.4416 106.215 78.2569 106.652 80.8217C106.845 81.9529 108.727 83.2256 109.571 83.8336C109.812 84.0078 112.144 84.8029 110.97 85.0735C109.395 85.4364 107.917 84.7022 106.464 84.2122C102.286 82.8031 97.9282 81.8904 93.7634 80.507C91.3461 79.704 88.7117 79.016 86.1641 78.9857C84.3987 78.9648 82.6112 78.8421 80.8475 78.9226C78.8874 79.0121 76.8108 80.3234 74.9365 80.9295C70.3651 82.4078 65.75 86.2125 63.99 91.1853C62.7277 94.7518 61.0508 98.1983 60.1484 101.941C59.9149 102.91 59.8911 104.459 60.0435 105.448C60.2033 106.486 62.1801 106.12 62.9051 106.128C67.8306 106.187 68.6774 99.7016 68.8786 95.3055C68.9905 92.861 72.8693 88.5762 74.6688 87.481C76.9344 86.1021 79.0214 86.0183 81.5094 85.3697C83.5964 84.8256 86.0176 85.2155 88.1577 85.241C88.9519 85.2504 89.5303 85.7198 90.2625 85.6814C90.9701 85.6443 86.9565 79.2553 86.5488 78.5749C84.5505 75.2394 82.4239 71.7746 80.0398 68.7579C78.8344 67.2326 77.3696 64.9433 77.2402 62.8624C76.7902 55.6269 67.9897 61.5905 65.3525 63.5289C62.0594 65.9495 60.8404 68.8864 59.5651 72.8998C57.7278 78.6812 56.6695 84.2181 55.8564 90.2348C54.9373 97.0347 55.0981 104.326 55.0164 111.204C54.9847 113.868 54.9494 116.535 54.4998 119.161C54.1684 121.097 53.0835 122.929 52.4917 124.791C51.3189 128.482 47.9865 123.47 46.7202 122.161C44.7923 120.168 42.2789 119.29 39.9342 117.903C39.2889 117.521 37.4558 117.013 36.7944 117.542C36.425 117.838 36.3419 119.698 35.928 119.425C34.6435 118.576 33.7042 114.794 33.7224 113.259C33.7658 109.605 33.8092 105.952 33.8527 102.298C33.8722 100.653 31.1734 104.026 31.1554 105.543C31.1343 107.319 31.8281 108.318 32.5382 109.922C32.9168 110.777 33.5761 110.838 33.7608 111.806C33.9428 112.759 34.4835 113.139 34.4978 111.93C34.541 108.294 33.8225 104.839 33.8658 101.19C33.9038 97.9928 35.3629 94.7384 37.472 92.4858C40.3108 89.4539 43.9822 88.1925 47.3387 86.0946C48.9285 85.1009 50.6187 84.4065 52.4268 84.0779C52.6955 84.029 53.9466 83.4711 54.205 83.5912C55.0784 83.9971 54.4986 88.5318 54.4554 89.1564C54.1085 94.1789 53.1346 99.1467 52.6524 104.16C52.6204 104.493 51.9998 108.104 52.4754 108.405C54.445 109.649 59.0808 101.923 59.6114 100.965C62.1149 96.4464 63.9053 91.204 63.9686 85.8767C64.0068 82.664 62.5164 82.5436 60.276 84.1019C55.3475 87.53 51.7201 92.8851 49.5094 98.745C48.8594 100.468 48.1165 102.814 49.2513 104.489C51.0066 107.08 53.9912 106.961 55.4806 104.101C56.6728 101.812 58.4819 97.0917 54.2411 98.3166C51.1791 99.2009 48.4455 101.898 46.7374 104.736C45.7186 106.429 42.684 112.77 44.9305 114.731C47.84 117.271 56.1531 109.797 58.0545 107.686C59.6274 105.94 60.8144 103.075 60.3759 100.559C59.9308 98.0056 51.7139 98.792 50.2418 99.2615C47.7467 100.057 43.3399 107.078 47.2365 108.896C49.4045 109.907 52.8166 107.725 54.3994 106.304C57.4945 103.526 59.3091 99.0113 57.8705 94.7592C54.9743 86.1993 43.6576 90.2997 41.863 97.6387C41.0918 100.793 43.5938 105.681 47.0415 104.001C49.7789 102.667 51.3857 95.3875 50.2791 92.5688C48.3826 87.7375 42.038 91.0756 40.3632 94.2281C36.9551 100.643 40.2029 107.539 46.8173 108.66C52.9022 109.692 52.3828 102.402 52.516 97.8806C52.5818 95.6485 53.2681 93.4264 53.3767 91.1516C53.685 84.6962 53.9214 78.6554 53.2426 72.2477C53.0699 70.6177 52.8898 66.4593 54.2323 65.3124C54.7965 64.8305 54.4669 62.277 54.4655 61.6686C54.4556 57.1467 53.7042 52.73 53.1899 48.2672C53.1422 47.8532 52.6557 42.9063 52.2197 42.9011C51.827 42.8965 51.9838 46.6336 51.9838 46.7757C51.9832 50.16 51.8398 54.4341 54.2255 57.0036C57.5157 60.5473 59.9344 57.6774 61.1215 53.7852C62.7912 48.3107 60.5416 44.6618 55.3014 44.5995C50.635 44.5441 49.1783 51.127 49.2246 55.2363C49.2633 58.6727 53.4126 57.0857 54.313 54.9736C56.6336 49.5298 54.2288 44.7722 49.0723 43.1869C44.5971 41.811 39.7168 44.8722 40.7137 50.5192C41.4777 54.8469 45.71 52.7267 46.9452 49.947C48.7961 45.7821 49.1871 40.566 45.0358 38.3845C40.6434 36.0762 37.1723 38.2226 36.1164 43.1945C35.2613 47.2205 37.2827 56.5698 41.1696 49.4399C43.0339 46.0203 45.0603 40.8817 44.084 36.8037C43.1878 33.0602 38.9869 31.9627 35.9063 32.4599C31.5209 33.1677 30.215 40.9792 32.41 44.3506C35.012 48.3472 38.4681 50.6935 41.5675 46.1442C43.35 43.5279 44.7987 37.7913 40.9226 36.4892C35.6409 34.7149 32.5014 39.5783 32.3204 44.788C32.2003 48.244 32.6067 55.8441 37.3073 53.0637C40.7921 51.0024 42.7824 45.9462 42.5268 41.7705C42.3058 38.1596 33.8432 39.1019 31.9519 40.2831C27.64 42.9761 26.9646 52.029 31.5041 54.8873C36.5119 58.0405 40.5723 44.1235 40.5118 40.8695C40.4526 37.6827 37.672 35.6235 35.0936 36.9277C30.3823 39.3109 30.4864 49.1983 34.1509 52.3338C35.4998 53.4879 37.0915 53.841 38.685 54.3264C39.2718 54.5051 39.5794 57.0393 39.7437 57.5701C40.6922 60.6337 41.4024 63.0424 43.1089 65.5957C43.7284 66.5226 44.7163 68.6428 45.8335 68.9285C46.5863 69.121 46.5912 67.1915 46.3878 66.6732C45.8618 65.3333 43.4516 63.4866 42.471 62.4493C41.6836 61.6163 39.453 60.8085 38.3575 60.5771C35.8474 60.0468 34.0221 58.8329 31.7265 57.4748C28.6872 55.6767 26.1959 51.7312 24.6164 48.5277C23.6198 46.5066 22.3009 45.9072 21.9959 43.5345C21.6929 41.1775 21.6924 38.8888 21.7212 36.4688C21.7477 34.2347 23.8076 32.2761 24.7464 30.4809C25.7308 28.5985 26.8685 27.3153 28.3029 25.9534C30.6631 23.7126 34.8967 24.7854 37.7906 24.8198C40.9071 24.8568 44.0661 24.8415 47.0849 25.7611C51.3379 27.0566 53.8761 30.6095 56.7794 33.8619C57.307 34.4529 57.8467 34.9934 58.2346 35.7025C58.579 36.332 60.2338 36.9672 59.6295 37.2885C59.0769 37.5822 53.1612 32.0693 52.6278 31.6431C49.01 28.7524 45.7211 27.5691 41.7866 25.929C39.2544 24.8734 36.5984 23.8548 34.0361 22.9288C32.3572 22.3221 30.2086 21.4502 28.4416 21.3852C26.0113 21.2959 27.8329 21.378 29.2011 21.3943C32.1155 21.4289 34.2948 21.6204 36.9936 22.6408C38.5318 23.2225 39.9797 24.9076 41.3866 25.855C43.6681 27.3913 44.9759 29.9044 46.8196 32.1049C49.1914 34.9357 52.4438 37.7102 55.4866 39.6626C59.559 42.2758 62.4885 45.8026 67.1903 47.3718C68.3913 47.7727 71.8479 48.9665 72.9495 47.4864C73.8867 46.2274 74.744 44.2965 75.1163 42.7116C76.4748 36.9279 75.2709 29.9879 80.3164 25.9482C81.3626 25.1106 81.9457 23.4922 82.6591 22.3526C83.19 21.5044 84.1126 21.0369 84.5842 20.1598C85.2584 18.9057 87.9901 17.0533 89.1868 16.3832C92.3141 14.632 96.9465 13.8905 100.442 13.932C103.416 13.9674 106.286 14.492 108.746 16.5233C110.576 18.0349 113.473 19.3988 114.72 21.5795C116.138 24.0594 115.016 26.3854 115.706 29.1614C116.481 32.2779 115.556 35.7889 114.076 38.5124C110.19 45.6625 103.244 50.435 99.1638 57.5376C98.6012 58.517 98.0985 59.615 97.4825 60.518C96.916 61.3485 97.4564 59.7087 97.3984 58.7167C97.1175 53.9051 95.4437 49.3577 95.2249 44.5199C95.0002 39.5514 95.1635 34.62 95.1061 29.6552C95.1022 29.3152 94.9689 28.0689 94.4825 28.8631C92.1664 32.6447 91.4062 38.1728 91.0492 42.5547C90.4703 49.662 90.4571 57.0658 91.3625 64.138C91.6196 66.1463 91.8728 68.8384 92.6343 70.7539C92.8196 71.2199 93.0676 71.2263 93.3517 70.7624C95.5418 67.1866 95.7148 62.4284 95.863 58.3061C96.0282 53.7087 96.2757 49.0254 94.3988 44.7871C93.6225 43.034 92.9591 43.0866 92.0359 44.759C90.0752 48.3108 89.0742 52.5933 88.3711 56.6246C88.1966 57.6248 86.9841 63.82 87.9364 64.7897C88.425 65.2872 89.565 60.7818 89.5668 60.7701C90.4214 54.963 90.6635 48.5119 90.3308 42.6385C90.2219 40.7164 89.865 38.1168 88.9488 36.4136C88.0728 34.7851 84.0134 42.7555 83.8042 43.1841C82.0288 46.821 80.989 50.6378 80.1232 54.6341C79.863 55.8353 78.3754 60.7771 79.0178 62.4219C79.606 63.9275 84.4659 57.8248 84.5603 57.6872C87.7308 53.0628 90.8956 46.1822 88.7082 40.6805C87.6639 38.0538 88.2124 34.4624 88.2458 31.6508C88.3138 25.9278 92.1446 23.5056 96.7189 21.7811C99.9617 20.5585 102.858 23.2169 105.415 25.1155C108.581 27.4666 109.87 32.2167 108.828 36.2575C106.986 43.3975 99.6549 47.4484 93.8144 49.5807C89.7324 51.071 85.3172 51.1415 81.0727 51.0911C75.0598 51.0196 69.0469 50.9482 63.034 50.8767C56.7156 50.8017 50.3421 50.5341 44.1266 49.1981C41.6967 48.6758 40.3152 48.9809 38.9292 46.2052C37.8047 43.9532 36.3646 40.7482 36.1556 38.1174C36.0392 36.6531 35.3088 34.1955 35.9025 32.783C36.6817 30.9287 43.2594 31.825 44.4312 32.4458C46.1719 33.3681 47.6797 36.1064 48.8849 37.6455C51.62 41.1381 54.2518 44.7555 57.2018 48.0379C60.9856 52.2481 64.995 55.4032 70.5125 53.689C74.6526 52.4028 80.0514 48.719 82.3314 44.5975C84.1199 41.3648 84.8791 35.3563 83.3051 31.9152C82.4889 30.131 82.4641 28.3864 82.6319 26.4143C82.8103 24.3177 85.1918 22.974 86.4446 21.6359C89.632 18.2317 93.161 17.9999 97.4807 18.0512C104.245 18.1316 113.575 20.2998 114.779 29.058C115.139 31.672 113.866 33.8237 112.629 35.9564C109.816 40.8085 105.793 44.9771 103.472 50.1571C101.241 55.1341 99.4731 63.3363 100.379 68.9303C100.991 72.7126 105.774 75.8176 108.012 78.2298C113.289 83.9177 117.459 89.034 120.52 96.4499C121.85 99.6736 120.104 105.561 116.234 105.515" stroke="#1F8619" stroke-opacity="0.4" stroke-width="19" stroke-linecap="round"/>
<path d="M78.7428 61.502C80.0959 58.5275 80.9027 55.1941 81.9353 52.0188C83.4305 47.4212 84.8838 42.748 86.3148 38.1352C87.3496 34.7998 90.4298 29.7016 94.2762 29.7473C96.9743 29.7794 99.1958 31.9645 99.5035 34.8946C100.385 43.284 95.1712 51.5892 89.8137 57.4356C88.6028 58.757 87.5446 60.1277 86.0631 61.0264C85.509 61.3625 83.5549 63.0198 84.0368 62.7335C85.7035 61.7433 87.8109 63.9153 89.405 64.55C92.1955 65.6611 95.2656 67.7188 97.8176 69.3456C102.872 72.5679 110.316 77.1904 112.318 83.6266C112.753 85.027 114.046 88.2773 112.511 89.558C110.507 91.2296 106.164 89.3806 104.405 87.9037C101.494 85.4591 99.3176 82.6461 96.7608 79.8497C94.079 76.9166 91.5829 73.9127 88.8201 71.143C87.0051 69.3234 84.3514 68.071 82.1444 66.8224C80.5567 65.9242 78.5095 65.0048 76.6955 64.9833C69.3556 64.896 69.798 76.1452 68.9397 81.6398C68.3615 85.3417 67.647 88.7568 66.7053 92.3462C65.4368 97.181 61.451 100.246 57.9073 102.931C55.4479 104.795 49.3996 105.849 48.1946 101.821C46.7617 97.0303 48.7841 91.1148 51.0641 87.1184C53.9105 82.1294 59.5159 77.4071 63.8038 73.9185C66.3637 71.8358 68.9935 69.3612 71.3026 66.9532C71.521 66.7255 72.7114 65.6162 72.4174 65.2137C71.9991 64.6413 69.3015 68.758 69.1714 68.962C66.8729 72.5656 65.1032 76.4684 63.7652 80.5829C63.2082 82.2956 62.5968 83.8115 61.5214 85.2519C60.3724 86.7907 59.2356 88.2745 58.1636 89.886C55.8469 93.3684 59.4567 87.8437 60.0444 86.7707C61.9162 83.3538 63.6326 78.8065 66.0908 75.8499C67.1112 74.6226 68.2723 72.4811 68.7026 70.9039C69.0306 69.7015 68.5205 68.2702 68.0169 67.2172C67.6586 66.4677 65.7377 66.8006 65.1042 66.793C61.4192 66.7493 58.6272 63.1696 55.4422 61.4199C52.0787 59.5722 49.1068 57.1378 46.3457 54.4956C44.8671 53.0806 38.4908 43.09 41.0568 40.8866C41.8193 40.232 42.5326 39.7152 43.4254 39.3568C44.573 38.8961 48.2383 41.861 49.2647 42.4556C52.7482 44.474 55.572 47.7146 58.7979 50.1426C60.6453 51.533 62.3877 53.3838 64.1101 54.9663C64.8082 55.6077 67.9952 59.3476 69.0868 59.0287C70.5508 58.6009 66.0701 58.6249 64.5531 58.6069C59.4798 58.5466 55.2308 55.1249 51.8753 51.2505C48.766 47.6604 45.1501 44.2677 42.0698 40.8987C41.5773 40.36 41.0421 40.4715 40.5201 40.0147C39.3001 38.947 41.4663 42.4709 42.1467 42.9553C45.5807 45.4 49.7916 45.969 53.1658 48.3662C57.0304 51.1118 60.8583 53.7422 64.7822 56.3808C66.2478 57.3664 68.5647 58.419 69.6435 59.9225C70.5044 61.1221 73.2071 63.5715 74.8781 62.7545C78.9849 60.7465 82.8787 57.4988 84.5982 53.0025C86.1982 48.8189 88.6218 45.0749 90.1125 40.8203C90.5731 39.5057 92.8949 34.5409 94.5186 36.6314C95.9178 38.4329 95.7839 39.2804 95.7556 41.6664C95.7243 44.2955 94.9937 45.0825 93.523 47.0929C91.7802 49.4754 90.5869 52.3557 89.2148 54.9833C87.9652 57.376 87.0737 60.3113 88.5937 62.9174C91.4627 67.8366 96.4512 71.6124 100.379 75.4783C102.676 77.7393 108.248 80.1757 108.747 84.0602C108.864 84.9764 109.706 86.1533 109.259 86.9876C108.576 88.2637 107.373 87.0764 106.57 86.458C103.373 83.9949 100.586 81.8417 97.8666 78.8674C95.486 76.2637 92.9548 73.7476 90.706 71.0139C89.1102 69.074 86.5168 67.5868 84.2327 66.7174C82.2112 65.9479 80.1889 64.7715 78.0621 64.2205C75.4095 63.5332 70.0862 63.1557 68.6358 66.294C67.1491 69.5108 67.3107 72.0858 67.2679 75.6908C67.2439 77.7108 67.6297 79.6727 67.5611 81.7099C67.4959 83.6449 66.2962 84.7143 65.4806 86.2727C63.2848 90.4684 62.1662 96.3521 58.3172 99.1278C57.4617 99.7447 55.8131 99.4009 54.7884 99.3888C53.1082 99.3688 53.9078 95.0613 53.921 93.9471C53.9584 90.8028 55.5755 87.684 56.9656 84.9814C58.5388 81.9225 59.9773 78.7669 61.594 75.7316C62.2959 74.4136 65.4722 68.0722 64.0138 66.4771C63.7092 66.144 61.902 65.5132 61.394 65.2775C60.4712 64.8493 59.1789 65.0891 58.3664 64.2894C56.8636 62.8103 54.2227 62.034 53.0475 60.0282C51.536 57.4483 48.9988 56.5479 46.9309 54.6973C46.0017 53.8657 45.1147 53.6405 44.1154 52.911C42.8862 52.0137 41.9479 50.7126 40.6642 50.057C39.5398 49.4827 38.0536 47.2842 37.3474 46.1225C36.5348 44.7857 35.6259 42.4427 35.5868 40.8217C35.4651 35.7753 39.0972 35.1323 42.3687 37.916C48.9827 43.544 53.8946 51.2892 59.8217 57.7717" stroke="white" stroke-opacity="0.4" stroke-width="12" stroke-linecap="round"/>
<path d="M62.4169 23.5263C61.7578 23.4304 60.4673 21.1749 59.8991 20.5535C58.8217 19.3751 57.516 18.3399 56.29 17.3513C52.1542 14.0165 46.8152 12.9044 41.9342 11.3815C35.7907 9.46456 27.5664 10.7623 23.476 16.4421" stroke="#564C86" stroke-width="6" stroke-linecap="round"/>
<path d="M16.7778 27.658C15.5127 27.7929 14.5674 30.8749 14.0932 31.9107C12.8653 34.5926 12.2811 37.7616 12.2455 40.7607C12.1996 44.6271 12.4661 48.3848 13.651 52.073C14.3801 54.3423 15.9887 56.3581 16.8569 58.5163C18.6026 62.8555 23.1607 65.1977 26.1426 68.2777C27.5626 69.7443 31.2067 71.2556 33.0307 71.7785C35.2958 72.4278 37.2402 73.3635 39.5706 73.8902" stroke="#564C86" stroke-width="6" stroke-linecap="round"/>
<path d="M34.3634 82.3974C32.2559 82.3724 28.9384 85.0347 27.4659 86.5135C25.1445 88.8447 22.8123 92.0305 21.8904 95.3192C20.9755 98.5831 21.0028 101.814 20.9623 105.219C20.94 107.096 20.5901 109.172 21.422 110.872C21.7692 111.582 21.7458 113.097 22.3238 113.415" stroke="#564C86" stroke-width="6" stroke-linecap="round"/>
<path d="M28.0798 120.105C28.0553 122.164 30.3382 124.101 31.7473 125.212C35.4007 128.091 39.2227 129.842 43.5268 131.432C51.5999 134.415 60.5067 135.823 68.0574 130.317C73.5323 126.325 76.3452 119.805 78.0488 113.081C78.8797 109.803 78.9386 106.409 78.979 103.009C79.0022 101.058 79.3087 98.9167 78.7663 97.0338C78.408 95.7898 77.9786 95.1184 77.994 93.8221" stroke="#564C86" stroke-width="6" stroke-linecap="round"/>
<path d="M110.871 58.7678C112.438 58.6007 113.38 58.2251 115.044 58.8174C117.992 59.8667 120.42 61.8139 123.221 63.026C128.058 65.1197 132.347 71.2209 133.983 76.3753C137.383 87.0876 139.157 106.555 126.813 111.93C124.98 112.728 123.63 114.261 121.675 114.617C119.405 115.03 117.298 115.712 114.956 115.684C110.481 115.631 106.377 115.454 102.488 112.809C97.7193 109.566 92.826 103.318 91.0804 97.483" stroke="#564C86" stroke-width="6" stroke-linecap="round"/>
<path d="M68.085 37.6157C68.1373 33.2145 69.8258 29.6639 70.8621 25.5741C71.4468 23.2668 72.1289 19.8565 73.6266 18.0117C75.6577 15.5097 77.7011 13.4137 80.0487 11.2717C82.1656 9.34012 84.1971 7.65516 86.6932 6.28705C89.5321 4.73106 91.8677 4.09335 94.9937 3.4644C97.3815 2.98399 99.6925 3.47572 102.042 3.74289C103.457 3.90381 104.67 4.87974 106.036 5.2618C107.198 5.58701 108.598 6.02945 109.666 6.64657C117.902 11.4055 126.288 19.7086 126.158 30.6888C126.134 32.6824 126.5 35.2165 126 37.1354C125.468 39.1776 124.272 40.8675 123.461 42.753C122.325 45.3942 119.58 48.6371 117.176 49.8841" stroke="#564C86" stroke-width="6" stroke-linecap="round"/>
<path d="M56.8765 60.0738L56.8534 62.021" stroke="#564C86" stroke-width="6" stroke-linecap="round"/>
<path d="M87.1903 56.5389C87.5172 57.3515 87.4508 58.1587 87.8919 58.8842" stroke="#564C86" stroke-width="6" stroke-linecap="round"/>
<path d="M61.8199 73.7652C61.796 75.772 65.3301 78.1201 67.0726 78.48C70.0834 79.1018 72.7821 79.738 75.8915 79.7749C77.0015 79.7881 78.6262 79.8613 79.6249 79.3432C80.6118 78.8312 83.0687 78.0086 83.6656 76.9244C84.4939 75.4195 86.6225 73.6281 86.6451 71.7231" stroke="#564C86" stroke-width="6" stroke-linecap="round"/>
<path d="M21.6925 74.4569C19.4267 74.43 17.0279 74.124 14.7838 74.3965C13.0981 74.6011 11.7833 75.5631 10.2847 76.1823C8.21821 77.0362 9.56179 75.0918 8.0082 75.0733C6.15268 75.0513 6.05014 78.0353 6.33475 79.4894C6.48533 80.2588 7.8823 77.4359 7.36628 76.2342C7.01868 75.4247 5.5783 71.9573 4.74906 73.1087C3.56658 74.7507 3.70667 79.8641 5.56844 80.8869" stroke="#564C86" stroke-width="6" stroke-linecap="round"/>
<path d="M124.774 55.0379C124.789 53.8005 126.078 54.1573 126.778 53.5037C128.177 52.1988 131.856 52.1323 133.523 52.0475C135.997 51.9215 138.699 51.921 141.16 52.1382C143.255 52.3231 143.164 52.0926 143.073 49.8023C143.052 49.2778 142.527 49.4063 142.166 49.402C141.497 49.394 141.479 50.306 141.317 50.8634C141.004 51.9439 140.651 52.9263 141.016 54.0624C141.381 55.1983 142.455 55.0619 143.202 54.2831C144.063 53.3854 144.143 51.8222 144.157 50.5942" stroke="#564C86" stroke-width="6" stroke-linecap="round"/>
<path d="M76.5299 124.965C76.4842 128.815 76.7052 133.119 78.1334 136.669C78.4918 137.56 78.5668 138.732 79.194 139.495C80.3137 140.856 79.1027 141.642 78.3227 142.903C77.9436 143.517 76.5212 146.134 77.5674 146.789C78.841 147.588 80.2564 147.276 81.2413 146.249C82.2978 145.147 84.8652 141.891 82.5442 140.616" stroke="#564C86" stroke-width="6" stroke-linecap="round"/>
<path d="M101.466 113.576C101.224 115.871 99.9883 117.936 99.9268 120.352C99.8258 124.317 99.3223 128.708 99.801 132.642C99.8977 133.437 100.31 137.162 101.371 136.924C102.126 136.754 103.868 134.764 104.561 136.204C106.232 139.679 103.84 141.229 100.6 140.42C99.9614 140.26 99.1777 140.06 98.6024 139.725C98.0791 139.421 98.2906 138.814 97.7259 138.46C96.3359 137.589 98.5822 136.133 99.3744 136.142" stroke="#564C86" stroke-width="6" stroke-linecap="round"/>
<path d="M68.0464 35.5198C68.0464 35.0578 68.1856 32.5534 68.4153 32.2662C68.9413 31.6088 68.5195 30.1738 69.0191 29.5494C70.3027 27.9449 70.2293 25.372 71.216 23.5958C71.7737 22.592 72.0747 21.0979 72.5745 19.9733C73.1277 18.7285 73.9593 17.9278 74.6205 16.8037C75.644 15.0637 77.58 12.7602 79.2324 11.5209C83.1293 8.59827 87.653 7.45232 91.8943 5.56729C94.4784 4.41882 96.7673 4.42688 99.5753 4.42688C102.36 4.42688 104.329 5.25762 106.686 6.3052C107.844 6.81975 108.873 7.41544 110.007 7.98227C111.012 8.48504 112.533 9.10997 113.327 9.86059C114.076 10.5679 115.277 10.8066 115.977 11.437C116.875 12.245 117.64 13.1645 118.61 13.9191C119.31 14.4635 120.096 15.8322 120.74 16.1999C121.708 16.7533 121.723 18.0414 122.451 18.8497C123.153 19.6306 123.336 20.7953 123.893 21.7007C124.395 22.5173 125.185 23.9023 125.385 24.8033C125.613 25.826 126.141 26.525 126.325 27.5369C126.582 28.9543 126.61 30.2885 126.61 31.7464C126.61 34.2234 126.681 36.2629 125.771 38.5385C124.911 40.6895 123.503 43.6804 121.629 45.1797C120.767 45.8693 120.075 47.3946 119.197 47.8965C118.635 48.2176 117.499 49.2123 117.252 49.7078" stroke="white" stroke-opacity="0.7" stroke-width="2" stroke-linecap="round"/>
<path d="M23.973 14.6906C24.993 14.6906 26.3646 12.785 27.2936 12.3427C28.5316 11.7531 29.9108 12.2365 31.2347 11.8228C33.1497 11.2243 35.8715 11.6718 37.8591 11.6718C39.8854 11.6718 42.2695 12.0395 44.1984 12.7284C47.4334 13.8837 50.7328 15.0819 53.8584 16.7366C55.388 17.5464 56.5549 19.0619 58.2187 19.5373C58.4775 19.6112 59.0448 20.9194 59.2921 21.1976C59.8393 21.8132 60.2159 22.5575 60.8014 23.143" stroke="white" stroke-opacity="0.7" stroke-width="2" stroke-linecap="round"/>
<path d="M15.8224 28.2748C15.8224 29.3409 14.9051 30.6553 14.5981 31.7296C14.261 32.9097 13.6505 34.141 13.4242 35.3856C13.2567 36.3068 13.1055 37.7879 13.1055 38.6894C13.1055 39.9073 12.6987 40.8388 12.5186 42.01C12.166 44.3016 12.1999 46.6123 12.1999 48.9531C12.1999 51.8362 14.0705 53.8249 14.8832 56.4664C16.4224 61.4688 21.5122 65.2984 26.0861 67.5854C28.6318 68.8582 30.7234 71.4401 33.4987 72.2812C35.3961 72.8561 36.9163 74.1471 38.7647 74.7632" stroke="white" stroke-opacity="0.7" stroke-width="2" stroke-linecap="round"/>
<path d="M62.0089 74.1595C62.0089 76.4098 66.0279 77.6616 67.6103 78.4528C70.3565 79.8259 73.9032 79.8951 76.9348 79.8951C81.1628 79.8951 84.3022 76.1897 86.4606 72.952" stroke="white" stroke-opacity="0.7" stroke-width="2" stroke-linecap="round"/>
<path d="M87.97 56.0471C88.0551 56.8129 88.5546 57.5182 88.8756 58.1602" stroke="white" stroke-opacity="0.7" stroke-width="2" stroke-linecap="round"/>
<path d="M58.0846 59.6696V62.0846" stroke="white" stroke-opacity="0.7" stroke-width="2" stroke-linecap="round"/>
<path d="M33.6329 82.0082C32.4254 82.1423 30.774 83.732 29.7756 84.4232C28.6734 85.1862 27.6178 86.1356 26.5389 86.8549C24.1329 88.4589 22.9233 92.1318 22.0108 94.6868C20.2132 99.7202 20.9543 116.031 20.9543 110.686" stroke="white" stroke-opacity="0.7" stroke-width="2" stroke-linecap="round"/>
<path d="M4.95498 75.0651C4.95498 76.1855 4.79994 80.8025 6.91716 79.8615C8.32685 79.235 7.55086 76.3718 9.01349 75.9539C9.69377 75.7596 10.3699 75.2537 11.1434 75.0819C11.8796 74.9183 12.5594 75.019 13.1726 74.5284C13.8074 74.0206 16.0968 74.4613 16.9125 74.4613C17.8572 74.4613 18.802 74.4613 19.7467 74.4613" stroke="white" stroke-opacity="0.7" stroke-width="2" stroke-linecap="round"/>
<path d="M125.704 54.5378C125.75 54.1742 126.794 53.0377 127.046 52.9613C127.878 52.709 128.576 52.1228 129.478 52.1228C129.971 52.1228 130.543 52.2183 130.987 51.9718C132.433 51.1684 135.672 51.8209 137.326 51.8209C139.289 51.8209 140.197 53.326 141.469 54.4707C143.453 56.2564 143.515 52.2382 143.515 51.2172" stroke="white" stroke-opacity="0.7" stroke-width="2" stroke-linecap="round"/>
<path d="M28.1992 121.252C28.1992 122.708 29.782 123.673 30.7651 124.438C31.9854 125.387 33.1889 126.18 34.4715 126.987C36.0179 127.961 37.798 129.051 39.5027 129.67C40.3099 129.964 41.1792 130.334 41.9512 130.677C42.8734 131.087 44.0489 131.085 44.9364 131.649C45.6848 132.126 46.9397 131.733 47.7874 131.968C49.1654 132.351 50.7265 132.383 52.1478 132.656C54.3484 133.077 56.7552 133.326 58.9902 133.326C62.877 133.326 65.5307 132.367 68.4154 129.771C70.4029 127.982 72.3083 126.083 74.1509 124.036C76.2714 121.679 77.0286 118.339 77.6896 115.365C78.0274 113.845 77.926 112.247 78.0082 110.686C78.091 109.112 78.6119 107.635 78.6119 105.99C78.6119 103.85 78.3101 101.787 78.3101 99.6845C78.3101 98.0588 77.7063 96.8923 77.7063 95.2905" stroke="white" stroke-opacity="0.7" stroke-width="2" stroke-linecap="round"/>
<path d="M112.12 58.1602C113.872 59.0881 115.935 59.4719 117.738 60.2733C119.122 60.8883 121.459 61.1598 122.534 62.2355C123.087 62.7883 124.558 63.5875 125.251 63.8958C127.251 64.7848 128.311 67.265 129.561 68.7928C130.918 70.4507 131.494 72.6254 132.412 74.4613C135.022 79.6816 136.27 85.2143 136.27 91.2153C136.27 93.429 136.27 95.6427 136.27 97.8565C136.27 99.834 135.056 101.787 134.777 103.743C134.123 108.322 130.4 111.198 126.241 112.43C124.301 113.005 122.299 113.614 120.438 114.459C119.507 114.883 118.306 114.645 117.386 115.063C115.471 115.933 112.884 115.516 110.795 115.516C109.381 115.516 107.966 115.516 106.552 115.516C104.797 115.516 103.492 114.477 102.225 113.336C101.841 112.991 101.29 113.041 100.816 112.782C100.203 112.448 99.8052 111.553 99.2063 111.122C98.4929 110.608 97.2619 109.628 96.7913 108.875C96.2656 108.034 95.518 107.676 94.9801 106.762C94.495 105.937 93.6566 105.225 93.1689 104.347C92.2939 102.772 91.5924 100.425 91.5924 98.6112" stroke="white" stroke-opacity="0.7" stroke-width="2" stroke-linecap="round"/>
<path d="M101.252 117.025C101.252 118.23 100.568 119.122 100.33 120.195C99.954 121.887 99.4411 123.38 99.4411 125.176C99.4411 128.597 98.6618 133.404 99.743 136.647" stroke="white" stroke-opacity="0.7" stroke-width="2" stroke-linecap="round"/>
<path d="M102.158 136.043C104.96 136.043 107.157 140.27 103.516 140.27C101.788 140.27 97.6299 140.616 97.6299 138.156" stroke="white" stroke-opacity="0.7" stroke-width="2" stroke-linecap="round"/>
<path d="M78.31 143.288C77.5249 143.387 77.4633 146.354 78.0753 146.844C79.178 147.726 81.232 147.343 82.1002 146.475C83.635 144.94 86.3778 139.968 81.9325 139.968" stroke="white" stroke-opacity="0.7" stroke-width="2" stroke-linecap="round"/>
<path d="M76.1969 127.591C76.1969 129.738 76.9766 131.779 77.4212 133.779C77.8833 135.859 78.2799 138.096 79.2156 139.968" stroke="white" stroke-opacity="0.7" stroke-width="2" stroke-linecap="round"/>
</svg>
