<svg width="157" height="150" viewBox="0 0 157 150" fill="none" xmlns="http://www.w3.org/2000/svg">
<path d="M68.6208 21.3512C68.6208 18.3378 69.4014 15.9234 68.2799 12.6983C67.1858 9.55204 65.1408 7.76442 62.5819 6.04611C57.1347 2.38828 47.8097 3.70724 44.1 9.42222C42.3473 12.1223 42.3224 15.765 42.3224 18.9004C42.3224 21.938 42.9931 24.4736 40.1309 26.2028C38.0701 27.4478 36.8769 29.4216 35.3339 31.2044C33.9068 32.8533 32.3053 34.2349 31.0239 35.956C28.0575 39.9398 24.7835 43.9458 22.3795 48.3351C21.7981 49.3966 19.0463 54.6622 17.9964 54.6622C16.7246 54.6622 15.4349 54.4809 14.2708 55.0123C13.407 55.4066 11.8616 56.2783 11.0079 56.4377C5.64749 57.4387 5.45995 65.352 4.28718 69.417C3.21097 73.1473 5.33869 78.5148 7.69623 81.2209C8.55891 82.2111 9.23571 83.2021 10.1313 84.1219C11.132 85.1497 13.045 85.4499 13.8569 86.4226C15.2477 88.0892 19.3692 88.5604 21.3324 88.8484C24.3645 89.2933 26.4568 88.4529 29.1732 87.523" stroke="#564C86" stroke-width="8" stroke-linecap="round"/>
<path d="M35.425 96.5765C35.425 99.6253 38.2717 103.166 40.0204 105.411C44.3656 110.99 50.0789 111.851 56.3031 109.527C58.6293 108.658 61.2336 106.81 62.3932 104.513C63.7893 101.748 64.7688 99.8983 67.4179 98.2422C71.2579 95.8417 73.6042 94.2054 75.2094 89.7176C76.345 86.5427 77.2129 83.2346 77.2129 79.8212" stroke="#564C86" stroke-width="8" stroke-linecap="round"/>
<path d="M76.9268 27.7918C77.7989 27.7918 78.1517 27.6272 78.9303 27.2039C80.3435 26.4355 81.714 25.86 83.3667 25.7505C88.7077 25.3966 94.5819 25.6207 99.379 28.3797C104.548 31.3528 106.07 41.354 102.05 45.7882C101.062 46.8785 100.224 48.2399 99.538 49.5442C98.8168 50.9145 97.6082 52.0124 96.803 53.3656C95.7485 55.1377 94.4545 57.1671 94.3861 59.3099C94.3484 60.4912 94.4895 61.541 94.0999 62.6414C93.1721 65.2615 91.593 66.4773 90.0928 68.5857C89.0092 70.1085 86.779 70.6696 85.7995 72.1785" stroke="#564C86" stroke-width="8" stroke-linecap="round"/>
<path d="M42.5806 65.4176C42.6605 66.0748 43.4866 66.4137 44.0117 66.5934" stroke="#564C86" stroke-width="8" stroke-linecap="round"/>
<path d="M60.0399 37.4922C60.1095 38.1358 61.2125 38.7755 61.7572 38.9619" stroke="#564C86" stroke-width="8" stroke-linecap="round"/>
<path d="M57.7501 73.9422C59.037 73.9422 60.4372 74.5908 61.7572 74.2035C62.9225 73.8615 64.8698 72.3648 65.637 71.362C67.06 69.502 68.6651 67.9723 69.7713 65.8422C70.7374 63.9819 71.3838 62.0286 72.1246 60.1265C72.5015 59.1588 71.8273 57.4809 73.0787 57.4809C74.5972 57.4809 75.2201 57.1658 76.0681 55.7825C77.2139 53.9135 77.3048 50.415 76.6405 48.3684" stroke="#564C86" stroke-width="8" stroke-linecap="round"/>
<path d="M58.6088 53.9535V54.2474" stroke="#564C86" stroke-width="8" stroke-linecap="round"/>
<path d="M105.93 36.236C105.93 31.8191 106.363 27.4854 110.904 25.8531C115.011 24.3766 119.577 26.4694 123.248 28.2646C127.078 30.138 131.372 33.7008 132.02 38.3629C133.269 47.3403 127.812 55.2292 120.606 59.514C118.317 60.8752 116.165 63.5652 114.459 65.6098C113.441 66.8294 112.094 67.7138 112.094 69.3945" stroke="#564C86" stroke-width="8" stroke-linecap="round"/>
<path d="M51.9245 113.103C50.8769 113.103 49.8315 116.1 49.446 117.005C48.2486 119.816 49.0603 123.668 49.8536 126.384C51.6619 132.574 59.5631 133.369 64.839 132.982C67.7512 132.768 70.7876 131.694 72.4703 129.147C73.9327 126.933 75.5093 124.504 75.6989 121.778C75.9419 118.284 78.512 114.593 80.7538 112.132C82.9412 109.731 83.9502 106.722 85.6783 104.06" stroke="#564C86" stroke-width="8" stroke-linecap="round"/>
<path d="M84.7977 109.185C84.9756 110.646 87.3884 112.094 88.3199 113.103C89.8818 114.797 90.8091 117.174 92.2986 118.982C94.7648 121.975 97.1708 124.773 99.832 127.506C100.814 128.514 102.005 130.026 102.637 131.324C103.567 133.234 103.385 135.388 104.023 137.353C104.693 139.417 104.839 142.763 106.354 144.319C107.848 145.853 109.477 145.659 111.638 145.659C114.168 145.659 116.102 144.11 118.323 143.181C120.237 142.38 122.017 140.156 123.101 138.424C123.736 137.409 124.608 136.414 124.943 135.243C125.036 134.918 125.538 133.468 125.742 133.3C126.368 132.786 126.247 129.259 125.824 128.477C123.801 124.738 119.32 123.744 117.508 119.852C116.105 116.841 114.421 113.943 114.132 110.541C113.969 108.609 113.155 106.94 113.268 104.965C113.345 103.616 116.97 103.966 117.736 104.127C120.847 104.781 123.933 105.482 127.08 105.886C131.507 106.454 135.776 107.075 140.271 107.075C142.037 107.075 142.832 109.028 144.609 109.419C146.577 109.852 147.116 108.926 148.636 107.678C149.992 106.564 151.964 103.315 152.289 101.481C152.654 99.4187 152.599 97.3654 152.599 95.2514C152.599 93.159 151.254 91.5718 150.609 89.658C150.037 87.9598 147.973 86.6036 146.305 86.2919C144.648 85.9826 142.909 86.519 141.25 86.1077C138.919 85.5299 136.54 85.1937 134.173 84.835C132.739 84.6177 131.614 83.9776 130.227 83.6292C127.032 82.8272 123.643 81.6186 120.541 80.4808C118.644 79.7851 115.944 78.7446 114.41 77.3659C113.565 76.6069 109.304 72.6609 111.801 71.806" stroke="#564C86" stroke-width="8" stroke-linecap="round"/>
<path d="M116.446 43.4196C116.488 43.0353 117.044 41.9139 117.344 41.7599" stroke="#564C86" stroke-width="8" stroke-linecap="round"/>
<path d="M63.6565 119.027C63.6565 119.549 63.1362 119.727 62.9382 120.133" stroke="#564C86" stroke-width="8" stroke-linecap="round"/>
<path d="M53.6014 20.9218C53.6014 20.0655 53.5551 19.1951 53.6014 18.3401C53.6476 17.4857 54.9388 16.4517 55.3969 17.5103C55.8656 18.5932 57.3336 21.475 55.0378 21.475" stroke="#564C86" stroke-width="8" stroke-linecap="round"/>
<path d="M22.1788 68.868C22.1788 68.0319 20.1272 68.1205 19.8046 68.6836C19.241 69.6676 18.0466 70.4761 18.6276 71.8185C19.2405 73.2349 20.4634 73.5893 21.8197 73.6626C22.3954 73.6937 24.298 74.6334 24.6527 73.6216C25.0968 72.3545 25.0917 70.0721 24.7325 68.827C24.3643 67.5507 24.635 65.945 23.1165 65.4052C22.1051 65.0456 21.029 66.1903 20.2037 66.6141C19.4919 66.9796 18.5877 67.6257 18.5877 68.4991" stroke="#564C86" stroke-width="8" stroke-linecap="round"/>
<path d="M53.4592 20.7721C53.4592 19.4923 53.1467 17.3966 54.4769 16.6376C54.9062 16.3926 55.3907 16.2549 55.8 16.5911C56.2212 16.9372 56.2918 17.7896 56.6142 18.0545C56.9897 18.363 56.6753 19.393 57.123 19.6804C57.595 19.9833 57.318 20.8041 57.0326 21.0973C56.3469 21.8015 54.4215 21.9695 53.6627 21.1902" stroke="white" stroke-opacity="0.7" stroke-width="2" stroke-linecap="round"/>
<path d="M22.7235 66.5534C21.8517 65.7576 19.9204 67.9233 19.625 68.6439C18.9137 70.379 19.3545 72.5786 21.4004 73.0455C21.8329 73.1442 22.6773 73.9294 23.1306 73.3475C23.2708 73.1674 23.5468 73.2173 23.696 72.9874C23.8793 72.7051 23.7412 72.0232 23.7412 71.6751C23.7412 70.0375 23.7412 68.4 23.7412 66.7625" stroke="white" stroke-opacity="0.7" stroke-width="2" stroke-linecap="round"/>
<path d="M45.3171 64.6721C45.3255 64.7408 45.7875 65.1227 45.3171 64.8812" stroke="white" stroke-opacity="0.7" stroke-width="2" stroke-linecap="round"/>
<path d="M63.0259 37.4958C63.0493 37.6885 63.0919 37.6343 63.2294 37.7049" stroke="white" stroke-opacity="0.7" stroke-width="2" stroke-linecap="round"/>
<path d="M59.1584 53.8016C59.1584 54.4556 60.391 55.1375 60.572 54.301C60.8388 53.0677 60.1868 52.8188 59.362 53.3835" stroke="white" stroke-opacity="0.7" stroke-width="2" stroke-linecap="round"/>
<path d="M59.1584 73.8701C59.8229 73.946 60.3931 74.2882 61.0922 74.2882C62.0624 74.2882 62.3846 73.853 63.1842 73.3359C65.1253 72.0807 67.0546 70.7778 68.7252 69.062C69.9634 67.7904 70.9337 65.3911 71.1791 63.6268C71.3756 62.2137 72.1855 60.8944 72.1855 59.4459C72.1855 57.925 72.9123 57.9694 73.8139 57.1463C74.7144 56.3243 75.7746 55.8133 76.3469 54.6378C76.9462 53.4068 77.0707 52.5608 77.0707 51.1885C77.0707 50.1753 76.2565 49.2625 76.2565 48.3663" stroke="white" stroke-opacity="0.7" stroke-width="2" stroke-linecap="round"/>
<path d="M28.0157 89.3397C23.3674 89.3397 17.7739 90.0997 13.79 87.1447C9.34675 83.849 5.42187 78.4917 5.42187 72.5926C5.42187 70.6244 4.93467 68.5658 5.26355 66.5767C5.5925 64.5872 6.37196 62.8643 7.54781 61.3273C8.61991 59.9259 10.0715 59.0129 11.2795 57.8199C12.0901 57.0195 13.5825 56.7249 14.4798 56.0082C15.1847 55.4451 16.2837 55.1625 16.9789 54.5913C17.7019 53.9973 18.6533 53.4211 19.4667 52.8841C20.4531 52.2328 20.9291 51.0395 21.9093 50.4104C23.1171 49.6351 23.2095 47.6181 24.2501 46.7869C25.4346 45.8407 25.1787 43.4003 25.9802 42.1414C26.8141 40.8315 27.4968 39.0957 28.6263 38.0185C29.122 37.5458 29.7517 36.6034 30.1416 36.0209C30.948 34.8164 32.0026 33.8559 32.8556 32.6878C33.889 31.2727 35.4567 30.2661 36.576 28.9249C37.4341 27.8968 38.6122 27.4493 39.5162 26.5209C40.2346 25.783 40.9746 25.1159 41.6987 24.3723C42.4742 23.5758 42.0511 22.4617 42.5694 21.5037C43.1211 20.4837 42.8102 19.0938 43.1235 18.008C43.5661 16.4738 43.4502 14.6898 44.0055 13.2231C44.3405 12.3384 44.3955 11.3769 44.8084 10.5287C45.0667 9.99828 45.6613 8.57743 46.1315 8.27565C47.1219 7.63989 48.009 6.76231 49.0716 6.13872C50.1831 5.48645 51.9417 5.30253 53.2557 5.30253C53.7851 5.30253 54.304 4.91578 54.884 4.88443C55.4571 4.85346 56.0405 4.88443 56.6142 4.88443C57.6989 4.88443 58.733 5.24341 59.7692 5.30253C61.8016 5.41849 63.9216 7.02194 65.6721 7.97369C67.5313 8.98456 68.2149 12.3826 68.3182 14.2916C68.3866 15.5561 68.7253 16.8185 68.7253 18.159C68.7253 19.4071 68.9289 20.5674 68.9289 21.8173" stroke="white" stroke-opacity="0.7" stroke-width="2" stroke-linecap="round"/>
<path d="M77.6814 27.6707C78.9736 26.491 81.0351 26.5395 82.6118 26.2074C84.97 25.7106 87.804 25.2531 90.1883 25.7428C91.2075 25.9521 92.2865 25.6447 93.3094 25.8357C94.5368 26.0649 95.7623 26.4279 96.928 26.881C97.9333 27.2716 98.9309 27.891 99.9134 28.2514C100.577 28.4948 101.662 28.779 102.096 29.4476C102.698 30.3752 103.939 31.6434 103.939 32.7807C103.939 33.8353 104.346 34.8461 104.346 35.9397C104.346 37.2447 104.931 38.8193 104.448 40.109C103.837 41.7402 102.946 42.9104 101.994 44.348C100.651 46.3759 99.3171 48.4017 98.3528 50.7124C97.7947 52.0498 97.3106 53.3479 96.8149 54.6843C96.3103 56.0448 96.4408 57.4175 96.1025 58.8072C95.7924 60.0812 95.6816 61.7353 95.0734 62.8952C94.5099 63.97 93.681 64.8322 93.0606 65.8335C92.5072 66.7266 91.3913 68.402 90.4031 68.8531C89.418 69.3027 88.7275 70.3488 87.8588 70.9435" stroke="white" stroke-opacity="0.7" stroke-width="2" stroke-linecap="round"/>
<path d="M77.2742 81.6049C76.7657 81.6702 76.2565 85.1897 76.2565 85.6697C76.2565 86.9154 75.8968 87.9478 75.6006 89.1306C75.3021 90.323 74.6593 91.822 73.927 92.789C73.4119 93.4691 73.0279 94.2735 72.5022 94.9607C72.0423 95.5618 71.0834 96.135 70.8059 96.8189C70.5587 97.4284 69.3609 98.0184 68.827 98.4449C68.0133 99.0948 66.8087 99.4236 66.0791 100.094C65.2494 100.856 64.3237 101.386 63.5347 102.196C62.6394 103.116 61.9668 104.26 61.0922 105.227C59.1163 107.413 57.1269 110.071 54.0584 110.465C51.5086 110.792 48.7731 111.244 46.2331 110.558C44.3096 110.038 42.63 109.495 40.9974 108.27C40.0465 107.556 38.6062 106.069 38.193 104.902C37.7945 103.777 37.5411 102.352 36.8134 101.418C36.5107 101.029 36.3674 100.173 36.1575 99.6875C35.943 99.1918 35.5469 98.9189 35.5469 98.3287" stroke="white" stroke-opacity="0.7" stroke-width="2" stroke-linecap="round"/>
<path d="M114.45 46.1313C114.125 46.1127 113.899 45.7928 113.807 45.5179C113.613 44.9441 113.652 44.2817 113.652 43.681C113.652 43.2674 113.682 42.859 113.682 42.4458C113.682 41.8098 113.806 41.1929 113.889 40.5668C113.945 40.1368 114.026 39.7076 114.095 39.2793C114.132 39.0535 114.211 38.8342 114.241 38.6086C114.297 38.1895 114.379 37.7111 114.568 37.3346C114.929 36.6146 115.654 36.4766 116.389 36.4852C117.074 36.4933 117.742 36.7154 118.399 36.8964C118.903 37.0352 119.419 37.2744 119.848 37.584C120.257 37.8792 120.623 38.2371 121.038 38.5209C121.229 38.6517 121.388 38.8785 121.551 39.0467C121.708 39.2072 121.826 39.3815 121.916 39.5894C122.007 39.8013 122.108 40.0067 122.182 40.2264C122.277 40.5089 122.315 40.7687 122.351 41.0639C122.42 41.6337 122.314 42.2229 122.099 42.7491C121.869 43.3159 121.542 43.9301 121.072 44.318C120.553 44.7473 120.027 45.1807 119.456 45.5381C119.053 45.7903 118.547 45.9841 118.092 46.1009C117.877 46.1563 117.65 46.19 117.43 46.2155C117.145 46.2483 116.864 46.3292 116.578 46.3419C115.839 46.3749 115.101 46.3739 114.361 46.3739C114.196 46.3739 114.042 46.3629 113.879 46.3453C113.814 46.3383 113.712 46.3676 113.652 46.3369C113.568 46.2938 113.294 46.2249 113.27 46.1161C113.243 45.9911 113.183 45.8851 113.18 45.7437C113.176 45.5724 113.121 45.4085 113.121 45.2331C113.121 45.0951 113.099 44.9723 113.076 44.837C113.044 44.6454 113.07 44.4473 113.055 44.254C113.022 43.8173 112.985 43.3544 113.108 42.9311C113.607 41.206 113.968 39.3964 114.952 37.8806" stroke="#564C86" stroke-width="5" stroke-linecap="round"/>
<path d="M66.6893 115.139C66.6893 114.994 66.5492 114.922 66.4181 114.922C66.1097 114.922 65.7979 114.905 65.4906 114.929C64.7203 114.988 63.8797 114.909 63.1402 115.163C62.157 115.499 61.3086 116.061 60.5186 116.748C59.9399 117.251 59.3711 117.64 58.9784 118.323C58.7678 118.689 58.6137 119.02 58.4762 119.423C58.3546 119.779 58.3178 120.216 58.3121 120.592C58.3031 121.198 58.3957 121.789 58.667 122.336C58.9321 122.87 59.4688 123.238 60.023 123.402C60.7823 123.626 61.5204 123.711 62.3065 123.711C62.9736 123.711 63.6665 123.722 64.2685 123.381C64.5363 123.229 64.7792 123.017 64.9984 122.8C65.2814 122.52 65.5834 122.249 65.8154 121.923C66.3917 121.113 66.815 120.189 67.2718 119.306C67.5642 118.741 67.7439 118.092 67.7439 117.453C67.7439 117.196 67.7744 116.916 67.7372 116.662C67.709 116.469 67.6201 116.274 67.5564 116.091C67.504 115.94 67.4305 115.814 67.3388 115.689C67.2695 115.594 67.2214 115.468 67.1413 115.386C67.0151 115.257 66.7798 115.108 66.5989 115.108" stroke="#564C86" stroke-width="5" stroke-linecap="round"/>
<path d="M63.7805 114.404C64.2521 114.404 64.699 114.746 65.1175 114.922C65.5217 115.093 65.8761 115.318 66.2627 115.522C66.8378 115.826 67.215 116.274 67.642 116.756C67.9659 117.122 68.0239 117.521 68.0848 117.99C68.1431 118.439 67.7918 118.617 67.5404 118.914C67.2549 119.251 66.8533 119.465 66.494 119.711C66.2719 119.863 65.8016 119.931 65.535 119.931C65.145 119.931 64.7595 119.956 64.3785 119.867C63.3161 119.619 62.7141 118.585 62.3364 117.625C62.1832 117.236 62.0543 116.841 62.0543 116.411C62.0543 116.125 61.9585 115.573 62.1051 115.325C62.3062 114.985 62.5741 114.769 62.9682 114.769C63.4274 114.769 63.6521 114.995 64.0062 115.261C64.3821 115.544 64.6875 115.992 64.9201 116.397C65.1295 116.761 65.4599 117.022 65.6365 117.411C65.702 117.555 66.0395 117.836 65.9411 117.99C65.835 118.157 65.5628 118.303 65.377 118.181C65.2099 118.072 65.0988 117.913 64.9483 117.782C64.7004 117.565 64.437 117.379 64.2093 117.138C64.0165 116.935 63.8785 116.685 63.7044 116.466C63.5535 116.277 63.4372 116.034 63.3349 115.812C63.2686 115.668 63.142 115.443 63.1177 115.293C63.0714 115.008 63.0022 114.508 63.4505 114.508C63.6044 114.508 63.7965 114.452 63.8708 114.612C63.994 114.878 64.0431 115.172 64.1218 115.452C64.2832 116.028 64.4643 116.54 64.4942 117.138C64.5098 117.451 64.5929 117.738 64.5929 118.054C64.5929 118.15 64.5929 118.247 64.5929 118.344C64.5929 118.593 64.7571 118.523 64.9708 118.523C65.0513 118.523 65.2852 118.567 65.3544 118.5C65.4985 118.36 65.6275 118.266 65.8001 118.158C65.9374 118.072 66.2604 117.897 66.4206 117.897" stroke="white" stroke-opacity="0.7" stroke-width="2" stroke-linecap="round"/>
<path d="M58.1449 118.575C58.0349 118.589 58.1388 118.734 58.1449 118.627C58.1515 118.512 58.0941 118.512 58.0941 118.627" stroke="white" stroke-opacity="0.7" stroke-width="2" stroke-linecap="round"/>
<path d="M59.2618 122.017C59.2513 122.114 59.0718 122.256 59.1715 122.37C59.2686 122.481 59.2618 122.203 59.2618 122.173" stroke="white" stroke-opacity="0.7" stroke-width="2" stroke-linecap="round"/>
<path d="M63.3236 123.32C63.441 123.335 63.5775 123.469 63.5775 123.242C63.5775 123.042 63.2978 123.072 63.4252 123.268" stroke="white" stroke-opacity="0.7" stroke-width="2" stroke-linecap="round"/>
<path d="M116.465 41.2261C116.122 41.0697 115.684 41.3372 115.379 41.4939C114.943 41.7175 114.492 41.8211 114.222 42.2525C114.061 42.5103 113.897 42.7143 113.795 43.0136C113.645 43.453 113.841 44.2141 114.14 44.5532C114.321 44.7584 114.435 44.9128 114.669 45.0664C114.925 45.235 115.188 45.3862 115.465 45.5127C115.777 45.6548 116.099 45.7733 116.421 45.887C116.748 46.0025 117.044 46.135 117.394 46.135C117.774 46.135 118.24 46.1871 118.529 45.8672C118.88 45.4783 119.151 45.0769 119.2 44.5284C119.25 43.957 118.982 43.5499 118.635 43.1252C118.252 42.6561 117.776 42.2154 117.264 41.8955C116.841 41.6311 116.587 41.5783 116.173 41.9327C115.805 42.2478 115.921 42.9398 116.185 43.2566C116.613 43.7713 117.117 44.0506 117.764 44.1243C117.86 44.1354 118 44.1459 118.094 44.1243C118.223 44.0949 118.232 43.8801 118.312 43.8144C118.41 43.7333 118.377 43.464 118.377 43.3483C118.377 43.0733 118.296 42.9286 118.121 42.7087C117.88 42.406 117.633 42.1609 117.356 41.898C116.959 41.5224 116.062 41.5217 115.625 41.8063C115.013 42.2043 114.123 42.7241 114.693 43.5814C114.94 43.9523 115.247 44.2842 115.712 44.34C116.085 44.3849 116.079 44.3064 116.074 43.9483C116.069 43.6138 115.911 43.4687 115.692 43.2442C115.391 42.9344 115.248 42.7632 115.248 42.3071C115.248 42.0308 115.395 41.7769 115.639 41.6377C115.915 41.4802 116.18 41.3177 116.465 41.1716C116.864 40.9668 117.406 41.1829 117.793 41.3699C118.359 41.6442 119.167 42.0341 119.453 42.6542C119.669 43.1224 119.687 43.6446 119.56 44.1516C119.423 44.6955 119.113 44.9991 118.681 45.3317" stroke="white" stroke-opacity="0.7" stroke-width="2" stroke-linecap="round"/>
<path d="M115.596 36.7636C115.583 36.8853 115.552 36.9899 115.552 37.1206" stroke="white" stroke-opacity="0.7" stroke-width="2" stroke-linecap="round"/>
<path d="M120.289 37.5668C120.282 37.6745 120.211 37.7447 120.158 37.8346" stroke="white" stroke-opacity="0.7" stroke-width="2" stroke-linecap="round"/>
<path d="M122.765 40.8692C122.76 40.9171 122.674 40.9383 122.635 40.9585" stroke="white" stroke-opacity="0.7" stroke-width="2" stroke-linecap="round"/>
<path d="M87.068 34.7529C85.4138 34.8836 83.6287 36.3648 82.5899 37.6449C82.1183 38.2261 80.3745 40.8983 81.8273 40.8983C84.2384 40.8983 87.068 37.6115 87.068 35.1144" stroke="#FF0000" stroke-opacity="0.29" stroke-width="4" stroke-linecap="round"/>
<path d="M46.0617 79.7591C46.0182 80.1159 44.5541 80.9459 44.204 81.3055C43.1424 82.3957 42.5699 83.2963 41.9161 84.6393C41.6205 85.2464 41.0778 87.1145 41.5836 87.7823C42.2547 88.6684 43.1272 87.6055 43.6858 87.3505C44.5188 86.9703 45.4042 85.9016 46.0617 85.2619C46.7719 84.5709 47.5576 83.8982 48.0367 83.0126C48.5948 81.9808 48.7015 81.3553 48.7015 80.1206C48.7015 79.3261 47.2193 79.3696 46.9416 79.9399" stroke="#FF0000" stroke-opacity="0.29" stroke-width="4" stroke-linecap="round"/>
<path d="M94.1224 95.2436C96.7453 92.5497 99.5098 89.4021 101.354 86.0354C101.685 85.4315 101.958 85.2052 102.336 84.8172C102.419 84.7318 102.729 83.446 102.833 83.8217C103.099 84.777 103.305 86.1112 103.305 87.1094C103.305 88.3958 103.918 89.9997 103.484 91.2878C102.987 92.7602 101.313 93.7348 100.142 94.5362C98.863 95.412 97.8981 96.111 96.2905 96.37C95.291 96.531 94.2148 96.4224 93.2041 96.4224" stroke="#FFCC00" stroke-opacity="0.29" stroke-width="10" stroke-linecap="round"/>
<path d="M50.3285 114.783C50.268 115.901 49.792 116.733 49.792 117.813C49.792 118.844 49.792 119.874 49.792 120.905C49.792 123.842 50.3279 126.153 52.072 128.542C54.2749 131.558 57.8323 131.35 60.9985 132.475C62.4752 133 67.8537 133.477 68.837 131.71C69.2209 131.02 70.5272 130.176 71.132 129.644C72.0731 128.815 72.6087 127.471 73.5312 126.629C74.3669 125.866 75.1845 124.313 75.5132 123.216C75.812 122.218 76.5414 121.112 76.616 120.078C76.7218 118.612 78.0872 116.853 79.0301 115.885C79.9901 114.899 80.8211 113.421 81.8467 112.579C82.8963 111.716 83.3214 110.306 84.1267 109.242C84.7055 108.478 84.9632 106.089 85.7361 105.692" stroke="white" stroke-opacity="0.7" stroke-width="2" stroke-linecap="round"/>
<path d="M107.464 31.3101C107.665 31.2842 108.924 29.8167 109.013 29.5959C109.334 28.806 110.075 28.7808 110.623 28.2185C112.176 26.6236 114.365 26.6268 116.45 26.6268C118.586 26.6268 120.331 27.3111 122.217 28.2797C123.959 29.1744 125.253 30.6214 126.896 31.5855C128.143 32.3173 129.016 34.1682 129.876 35.3046C131.152 36.9893 131.605 38.851 131.605 40.9521C131.605 44.7481 129.819 48.9402 127.85 52.0328C126.943 53.4574 125.95 54.9025 124.78 56.1039C123.634 57.281 121.661 58.1513 120.875 59.5628C119.893 61.3287 118.004 62.481 116.643 63.8788C116.016 64.523 115.546 65.4354 114.766 66.0215C114.338 66.3421 113.365 67.8087 113.365 68.3631C113.365 69.8987 113.365 71.4343 113.365 72.9699C113.365 75.2415 114.014 76.3589 115.794 77.7297C116.576 78.3322 117.141 78.8966 118.074 79.2448C118.76 79.5009 121.045 80.0383 121.472 80.6223C121.921 81.2374 123.855 81.2837 124.571 81.51C125.382 81.7662 126.449 81.9964 127.179 82.413C128.59 83.218 131.092 83.4047 132.678 83.6373C134.411 83.8915 136.031 84.5556 137.775 84.7546C138.536 84.8415 139.546 85.1711 140.308 85.3668C141.579 85.6932 142.841 85.8344 144.078 86.1167C144.753 86.2708 145.537 86.683 146.224 86.683C146.991 86.683 147.601 87.1956 148.236 87.234C149.903 87.3347 151.723 92.5615 151.723 93.9834C151.723 94.8026 152.26 95.3682 152.26 96.1873C152.26 97.0597 152.26 97.9321 152.26 98.8045C152.26 100.551 152.143 102.035 151.455 103.625C150.242 106.427 148.1 108.997 145.017 108.997C143.82 108.997 140.998 109.522 140.07 108.569C138.899 107.367 137.642 107.2 136.106 106.732C134.435 106.224 132.408 106.518 130.666 106.518C128.957 106.518 127.419 105.967 125.704 105.967C123.364 105.967 121.178 105.141 118.879 105.141C118.046 105.141 114.762 104.75 114.438 105.416" stroke="white" stroke-opacity="0.7" stroke-width="2" stroke-linecap="round"/>
<path d="M86.2726 112.303C87.2874 112.419 88.1282 113.807 89.0593 114.232C89.6359 114.495 90.9928 115.874 91.3095 116.436C92.2647 118.13 94.3487 119.295 95.1096 121.119C95.9747 123.192 98.2748 124.905 99.8187 126.491C101.291 128.003 103.057 130.074 103.649 132.138C104.791 136.128 104.861 140.394 106.927 144.107C107.79 145.658 109.398 145.637 110.951 145.637C112.768 145.637 114.226 143.948 115.928 143.449C119.656 142.355 122.897 139.587 124.571 136.148C126.072 133.066 127.732 127.941 124.229 125.542C122.674 124.477 120.743 124.014 119.4 122.634C117.703 120.891 115.927 119.158 115.034 116.772C113.893 113.725 113.633 110.355 113.633 107.069" stroke="white" stroke-opacity="0.7" stroke-width="2" stroke-linecap="round"/>
<path d="M95.661 96.0496C97.7374 96.0496 99.343 94.0054 100.817 92.7437C102.264 91.5051 103.172 89.455 103.172 87.5095" stroke="white" stroke-opacity="0.7" stroke-width="2" stroke-linecap="round"/>
<path d="M103.976 83.9282V84.4791" stroke="white" stroke-opacity="0.7" stroke-width="2" stroke-linecap="round"/>
</svg>
