<svg width="154" height="176" viewBox="0 0 154 176" fill="none" xmlns="http://www.w3.org/2000/svg">
<path d="M57.3136 110.844C55.5217 110.844 54.8181 109.156 53.3577 108.594C51.8287 108.005 50.9571 106.158 49.649 105.185C46.6129 102.929 43.4714 99.7779 41.0572 96.8096C38.8921 94.1477 36.9734 90.661 35.6178 87.4692C34.0813 83.8516 32.5581 81.1679 32.5581 77.1159C32.5581 74.3507 32.5581 71.5856 32.5581 68.8204C32.5581 65.1004 33.8118 61.7152 34.7833 58.1778C35.9381 53.973 38.1135 48.7514 40.9645 45.5095C42.6011 43.6484 43.9895 40.851 46.1875 39.5933C48.6457 38.1867 51.0863 36.9599 53.6822 35.8796C56.1717 34.8436 58.721 34.0264 61.3622 33.5485C63.9181 33.0861 66.3443 32.8935 68.996 32.6965C74.6078 32.2795 80.2978 31.8444 85.9014 31.8444C91.5031 31.8444 97.0469 32.6744 102.096 35.3009C104.33 36.4631 106.327 37.7632 108.385 39.2557C111.29 41.3622 115.117 44.9742 116.22 48.4997C116.787 50.3102 117.62 51.9754 118.09 53.821C118.408 55.071 118.485 56.3193 118.785 57.5668C119.463 60.387 119.341 63.3468 119.341 66.2321C119.341 69.2396 119.981 73.2396 119.063 76.1031C118.015 79.3744 116.775 82.3383 115.231 85.3792C114.188 87.4328 112.715 89.1894 111.615 91.1668C111.016 92.2426 110.1 93.6751 109.05 94.2213C107.868 94.8361 106.752 95.8385 105.573 96.5202C104.792 96.9714 104.178 97.8224 103.209 97.8224" stroke="#EDE616" stroke-opacity="0.2" stroke-width="24" stroke-linecap="round"/>
<path d="M92.5758 41.0267C87.0454 40.4463 81.4976 40.0758 75.9357 40.0758C72.3428 40.0758 69.4369 41.9828 66.2685 43.5359C62.3427 45.4603 59.1398 48.2117 55.4392 50.4825C54.1129 51.2964 53.1728 52.4572 52.032 53.5068C50.5531 54.8673 48.7351 55.9625 47.4097 57.4819C44.6437 60.6527 42.5662 63.1869 42.4308 67.5849C42.3604 69.8754 42.0385 72.6785 42.6554 74.9145C43.1955 76.8726 43.351 79.1446 43.593 81.1611C44.0308 84.8094 44.2949 88.5903 46.2739 91.7659C47.4181 93.6019 48.8694 95.0598 50.5792 96.375C51.7928 97.3085 53.1922 97.615 54.5412 98.2635C58.5663 100.199 62.7816 101.233 67.0213 102.608C68.9224 103.225 70.7797 103.909 72.7133 104.444C75.0691 105.096 77.7433 104.972 80.1617 104.972C81.6497 104.972 83.1376 104.972 84.6255 104.972C87.74 104.972 90.8832 103.835 93.7644 102.727C99.6044 100.481 103.451 95.1895 105.413 89.3624C106.046 87.4808 105.736 85.6315 105.941 83.71C106.198 81.2941 106.25 78.8728 106.482 76.4596C106.9 72.1195 107.222 68.1643 106.245 63.821C105.455 60.3116 105.519 56.314 103.511 53.1898C103.219 52.7359 102.449 51.1171 101.847 51.0108C101.619 50.9706 101.557 50.7969 101.82 51.1296C103.534 53.2945 105.306 55.409 106.918 57.6536C110.391 62.4893 112.782 67.8938 112.782 73.9108C112.782 75.3102 112.91 76.7718 112.755 78.1633C112.517 80.307 110.88 82.4039 109.691 84.1326C108.422 85.9786 106.819 87.3186 104.62 87.8568C98.8014 89.281 92.3291 88.57 86.4084 88.57C84.6008 88.57 82.1924 88.9564 80.3995 88.4115C78.6406 87.877 77.0438 86.2079 75.9885 84.7665C72.8476 80.4765 74.7946 74.3433 77.0054 70.1337C78.2243 67.8128 80.1297 65.8497 81.2711 63.4909C81.948 62.092 82.567 59.9244 83.9388 59.0403C84.9568 58.3843 87.377 57.2763 88.3233 58.4592C90.4273 61.0891 90.919 65.7188 90.5684 68.998C90.3334 71.1959 89.5502 76.4606 86.5008 76.6709C82.9156 76.9182 78.2119 76.5485 76.662 72.8675C75.7763 70.7638 75.5117 67.7705 75.7244 65.5379C75.7811 64.9421 76.0227 64.4498 76.2262 63.9003C76.5663 62.9822 73.7847 63.2087 73.2944 63.1871C69.9621 63.0408 64.0258 62.1107 61.6859 65.2077C59.9516 67.5031 59.0887 70.5102 59.0578 73.3561C59.0361 75.353 58.8378 77.3366 58.8201 79.3254C58.7881 82.9023 59.9097 86.0726 60.7086 89.5076C61.5103 92.9548 62.3858 96.4064 62.3858 99.954C62.3858 100.854 62.0869 102.119 62.8613 102.727C63.4075 103.157 64.2531 103.804 64.7102 104.312C64.9965 104.63 64.4604 105.21 65.1196 105.21C67.8728 105.21 59.6344 104.217 57.1561 103.018C55.8626 102.392 54.7222 100.637 53.696 99.6106C53.1378 99.0524 52.585 98.1451 51.9791 97.7089C51.6316 97.4586 51.0494 97.1278 50.6189 97.1278C49.3898 97.1278 51.3328 95.78 51.6886 95.4638" stroke="#EDE616" stroke-opacity="0.74" stroke-width="24" stroke-linecap="round"/>
<path d="M59.9881 32.3355C55.4481 33.6254 51.2136 34.5974 47.2187 37.0091C43.1429 39.4697 39.4264 43.761 37.2169 47.8065" stroke="#433878" stroke-width="8" stroke-linecap="round"/>
<path d="M34.1699 60.5376C34.4203 61.7804 33.2714 64.8575 32.7834 66.0231C31.2359 69.719 31.4671 73.4151 30.9755 77.3793C30.4273 81.8001 31.1999 87.2178 32.0741 91.5919C32.9428 95.9389 34.4811 101.308 37.1207 104.933C45.8815 116.963 60.2095 119.44 74.3869 119.871C88.8172 120.311 103.293 117.64 113.017 106.85C121.371 97.5811 123.925 85.3719 123.668 73.3423C123.549 67.7647 121.475 62.622 119.758 57.2917C117.947 51.6729 115.226 47.2459 111.802 42.3905C104.595 32.1695 89.8349 25.9012 77.5442 29.3932" stroke="#433878" stroke-width="8" stroke-linecap="round"/>
<path d="M59.3855 121.573C58.2787 121.573 57.5921 125.275 57.5509 126.32C57.4625 128.562 57.0119 131.547 58.6517 133.307C61.94 136.836 67.5907 136.044 72.1054 136.044C78.9955 136.044 85.9292 135.699 92.7752 135.699C96.6306 135.699 101.419 135.067 104.884 133.441C106.566 132.651 109.538 130.408 109.653 128.464C109.771 126.475 110.148 123.49 108.736 121.899C107.956 121.02 106.752 118.567 106.351 117.439" stroke="#433878" stroke-width="8" stroke-linecap="round"/>
<path d="M107.819 136.044C107.819 138.208 108.11 140.362 109.001 142.245C109.742 143.81 109.287 146.181 109.287 147.911C109.287 149.583 107.881 151.489 106.718 152.582C105.229 153.98 102.313 154.358 100.338 154.63C98.58 154.871 96.9587 155.504 95.1805 155.663C90.1632 156.112 85.1877 156.716 80.1164 156.716C78.5876 156.716 77.0587 156.716 75.5299 156.716C72.5607 156.716 70.8034 157.101 68.64 155.07C66.1239 152.707 64.0589 150.644 63.4215 147.203C63.0836 145.378 63.2784 144.069 63.4215 142.322C63.5158 141.171 64.5968 140.243 64.8892 139.145" stroke="#433878" stroke-width="8" stroke-linecap="round"/>
<path d="M81.4007 159.472C81.2261 160.948 80.2999 162.031 80.2999 163.607C80.2999 165.123 80.5833 166.752 80.6668 168.086C80.8808 171.501 85.3082 171.876 88.0868 171.876C90.7326 171.876 95.9764 171.838 97.4636 169.464C99.283 166.56 99.3798 163.774 99.3798 160.506" stroke="#433878" stroke-width="8" stroke-linecap="round"/>
<path d="M91.3075 163.951C91.577 163.108 93.2136 162.565 94.0186 162.229C94.3124 162.106 94.1911 161.841 94.3244 161.616C94.4069 161.477 93.9804 161.581 93.8148 161.616C92.4327 161.913 91.0881 162.35 89.7175 162.688C88.2138 163.059 83.8255 164.5 85.3552 164.238C87.0563 163.948 88.0948 162.271 89.6563 161.731C90.1196 161.571 91.2394 161.219 91.6744 161.195C93.1882 161.111 93.3013 159.947 93.8555 161.942C94.5828 164.559 95.2876 168.086 91.6744 168.086" stroke="#433878" stroke-width="8" stroke-linecap="round"/>
<path d="M87.0333 167.968C87.2262 167.004 88.3564 166.397 89.1005 165.901" stroke="#433878" stroke-width="8" stroke-linecap="round"/>
<path d="M19.5042 124.901C21.2356 122.977 23.027 121.041 25.189 119.58C26.0764 118.98 27.9931 118.259 28.4621 117.321" stroke="#433878" stroke-width="8" stroke-linecap="round"/>
<path d="M4 81.8339C7.89238 81.8339 11.8049 81.4893 15.7142 81.4893" stroke="#433878" stroke-width="8" stroke-linecap="round"/>
<path d="M15.7142 31.5316C17.467 33.125 19.4806 34.1065 21.0354 35.9722C21.9229 37.0372 23.2223 37.9378 24.3276 38.7668" stroke="#433878" stroke-width="8" stroke-linecap="round"/>
<path d="M56.7141 6.72491C57.3683 9.58717 57.7486 12.5844 58.7813 15.3383" stroke="#433878" stroke-width="8" stroke-linecap="round"/>
<path d="M100.126 4.31314C99.9961 5.8687 99.106 7.37718 98.671 8.86868C98.2988 10.1449 97.9326 12.3634 97.0249 13.2711" stroke="#433878" stroke-width="8" stroke-linecap="round"/>
<path d="M124.243 36.6996C128.957 36.6996 133.72 35.3477 138.369 34.6324" stroke="#433878" stroke-width="8" stroke-linecap="round"/>
<path d="M135.268 72.5314H149.739" stroke="#433878" stroke-width="8" stroke-linecap="round"/>
<path d="M130.1 102.506C133.341 105.579 137.551 107.753 140.436 111.119" stroke="#433878" stroke-width="8" stroke-linecap="round"/>
<path d="M72.2182 115.943C72.2182 113.035 72.8622 109.882 73.1753 106.947C73.8589 100.537 73.2518 93.7247 73.2518 87.289C73.2518 80.8182 73.2086 74.5765 72.0651 68.2055C71.5736 65.467 71.1466 63.0838 69.7299 60.8171C69.1886 59.9511 69.0625 61.1423 69.5385 61.6976C70.7923 63.1604 72.7144 64.0199 74.1323 65.2961C75.4183 66.4535 77.7473 67.1285 79.4726 67.3442C83.316 67.8246 85.9201 63.5411 87.3778 60.6257C87.9633 59.4548 88.0669 58.3285 88.0669 57.0272C88.0669 55.6751 87.3778 58.5921 87.3778 59.0753C87.3778 64.1016 87.0333 69.2839 87.0333 74.3689C87.0333 78.2333 86.9617 82.1046 87.0333 85.9683C87.1013 89.6422 87.7877 93.314 88.0478 96.9552C88.2775 100.172 89.5331 103.264 89.7704 106.468C89.948 108.866 91.1677 111.206 91.1677 113.531" stroke="#433878" stroke-width="8" stroke-linecap="round"/>
<path d="M58.7946 33.1224C56.4995 33.1224 54.576 35.0853 52.4369 35.5607C50.5575 35.9783 48.9091 37.2425 47.1046 38.0445C45.4907 38.7618 42.3818 41.0168 41.4761 42.5565C40.7673 43.7613 38.9428 44.524 38.2858 45.8379" stroke="white" stroke-opacity="0.6" stroke-width="2" stroke-linecap="round"/>
<path d="M72.7405 113.927C72.7405 110.934 71.8676 106.093 73.0595 103.262C73.3537 102.564 73.1296 101.539 73.1507 100.801C73.1785 99.8273 73.7802 99.0363 73.9482 98.1123C74.2206 96.6142 73.971 94.862 73.971 93.327C73.971 84.7705 73.5609 76.0135 73.5609 67.5771C73.5609 66.0348 71.8967 62.8243 70.4845 62.0397C67.7434 60.5169 66.4979 63.1572 68.5476 64.797C72.2499 67.7588 79.0867 67.7847 83.6101 66.7795C84.8759 66.4983 86.7427 65.4397 87.4156 64.2957C88.0594 63.2014 88.3029 61.9603 88.9424 60.8092C89.2646 60.2293 89.5028 57.7672 88.6462 57.7329C87.0332 57.6684 86.2763 59.1228 86.2763 60.6041C86.2763 66.5064 85.8661 72.2302 85.8661 78.1505C85.8661 83.8666 86.797 89.1905 88.3044 94.4663C89.0239 96.9847 89.1475 100.448 89.1475 103.057C89.1475 106.526 90.7882 109.7 90.7882 113.106" stroke="white" stroke-opacity="0.6" stroke-width="2" stroke-linecap="round"/>
<path d="M34.184 61.0143C32.6632 61.2044 32.1332 64.4092 32.1332 65.5262C32.1332 66.3972 31.3128 66.5728 31.3128 67.372C31.3128 68.4418 30.9026 69.2374 30.9026 70.2432C30.9026 75.1046 30.9026 79.9659 30.9026 84.8272C30.9026 86.1749 31.1113 87.8169 31.404 89.1341C31.663 90.2997 31.3866 91.939 31.8141 93.0079C32.879 95.6702 32.7951 98.5347 33.9562 101.189C34.8304 103.187 35.9103 104.908 37.6477 106.225C40.2498 108.196 42.4371 110.687 45.3499 112.241C48.2054 113.763 51.6317 114.68 54.7839 115.659C57.0042 116.348 59.1696 117.497 61.4607 118.006C68.0966 119.48 74.7313 119.259 81.5592 119.259C83.9842 119.259 86.9269 119.418 89.1475 118.53C90.3091 118.065 91.817 117.868 93.0441 117.596C93.5079 117.493 95.4662 117.308 95.7103 117.003C95.9262 116.733 97.8476 116.396 98.2625 116.297C99.505 116.001 101.294 115.406 102.364 114.747C103.965 113.762 105.559 113.172 106.99 112.058C110.32 109.469 112.511 105.91 115.399 102.852C119.341 98.6776 120.607 92.387 123.101 87.6757C123.551 86.8258 123.009 85.5239 123.215 84.5994C123.578 82.9633 123.602 81.4389 123.602 79.7001C123.602 77.4669 123.602 75.2337 123.602 73.0005C123.602 71.6608 123.769 70.1821 123.579 68.8532C123.436 67.8526 122.782 67.2583 122.782 66.1187C122.782 63.5054 122.174 60.8094 120.731 58.6444C119.343 56.5618 118.476 54.6125 117.244 52.4234C116.273 50.696 114.397 48.3095 114.168 46.248C113.913 43.9564 111.052 42.8232 110.066 41.0981C109.562 40.2155 107.76 39.4427 106.876 38.8649C105.986 38.2826 105.004 37.2895 104.005 36.9052C101.531 35.9535 99.1626 33.8122 96.7813 32.53C95.0766 31.612 92.1169 31.4783 90.697 30.3424C90.2513 29.9858 87.9153 29.841 87.3017 29.841C86.0874 29.841 84.8837 29.4309 83.6101 29.4309C81.6239 29.4309 79.3923 29.0207 77.2524 29.0207" stroke="white" stroke-opacity="0.6" stroke-width="2" stroke-linecap="round"/>
<path d="M58.7945 123.361C58.7945 125.392 57.4903 129.573 58.6122 131.336C60.1232 133.711 62.033 134.631 64.7421 135.233C72.0533 136.858 80.7594 137.004 88.3271 136.464C94.4289 136.028 100.364 133.811 105.554 131.063C106.904 130.349 110.377 128.441 110.477 126.642C110.561 125.126 109.966 124.619 109.337 123.361C108.842 122.37 109.03 120.176 108.016 119.669" stroke="white" stroke-opacity="0.6" stroke-width="2" stroke-linecap="round"/>
<path d="M65.3573 139.358C63.387 139.577 63.3065 145.327 63.3065 146.741C63.3065 149.207 64.8502 151.749 66.7929 153.304C67.8055 154.114 68.0047 155.419 69.6642 155.787C71.5888 156.215 73.6058 156.585 75.6117 156.585C77.7081 156.585 79.8046 156.585 81.901 156.585C83.8443 156.585 87.1429 156.778 88.9652 156.084C90.5402 155.484 92.4716 155.806 94.1607 155.765C95.6152 155.729 97.0797 155.028 98.5815 154.944C100.047 154.863 101.32 153.508 102.683 153.304C104.316 153.059 105.773 152.382 106.99 151.435C109.357 149.594 109.656 144.84 109.656 142.024C109.656 140.011 109.605 135.846 107.605 134.846" stroke="white" stroke-opacity="0.6" stroke-width="2" stroke-linecap="round"/>
<path d="M81.3542 161.097C81.3542 163.804 80.2128 166.407 81.6732 168.89C82.8572 170.903 86.9149 170.531 88.9424 170.531C92.0847 170.531 94.1105 169.323 96.7357 167.865C98.2475 167.025 98.2772 166.055 98.6043 164.583C98.7979 163.712 99.605 161.609 98.5815 161.097" stroke="white" stroke-opacity="0.6" stroke-width="2" stroke-linecap="round"/>
<path d="M19.4178 124.591C21.304 123.543 22.528 121.405 24.3399 120.398C25.1506 119.948 26.4095 119.222 26.8009 118.439" stroke="white" stroke-opacity="0.6" stroke-width="2" stroke-linecap="round"/>
<path d="M5.88202 81.9332C6.01926 80.8353 13.6734 80.7027 14.9059 80.7027" stroke="white" stroke-opacity="0.6" stroke-width="2" stroke-linecap="round"/>
<path d="M16.5466 32.3021C17.7574 32.5222 19.7871 34.1617 20.8534 34.991C21.8614 35.775 23.6804 36.2349 24.3399 37.2242" stroke="white" stroke-opacity="0.6" stroke-width="2" stroke-linecap="round"/>
<path d="M57.564 7.69159C57.564 9.34944 57.9742 10.8554 57.9742 12.5225C57.9742 13.7593 58.7945 14.641 58.7945 15.8951" stroke="white" stroke-opacity="0.6" stroke-width="2" stroke-linecap="round"/>
<path d="M100.632 4C100.421 6.11159 98.2517 7.99167 98.1713 10.2438C98.1306 11.3838 98.1078 13.4975 97.351 14.2544" stroke="white" stroke-opacity="0.6" stroke-width="2" stroke-linecap="round"/>
<path d="M125.653 35.5835C127.804 35.3445 129.958 34.3529 132.216 34.3529C133.422 34.3529 136.556 34.6973 137.138 33.5326" stroke="white" stroke-opacity="0.6" stroke-width="2" stroke-linecap="round"/>
<path d="M136.318 72.4992H148.213" stroke="white" stroke-opacity="0.6" stroke-width="2" stroke-linecap="round"/>
<path d="M132.626 103.262C134.318 104.434 135.562 106.359 137.32 107.364C138.366 107.962 137.72 109.048 139.189 109.415" stroke="white" stroke-opacity="0.6" stroke-width="2" stroke-linecap="round"/>
</svg>
