<svg width="195" height="189" viewBox="0 0 195 189" fill="none" xmlns="http://www.w3.org/2000/svg">
<path d="M19.3851 90.3857C20.9201 90.1423 22.0549 89.6346 23.2936 88.7183C25.8995 86.7907 28.563 85.1168 31.403 83.5077C34.5823 81.7065 38.0987 79.7522 40.7757 77.2606C43.1669 75.0351 45.314 72.538 47.7423 70.3568C48.8181 69.3905 49.5447 68.9826 49.8045 70.9786C50.1267 73.4535 50.2783 76.1291 50.4474 78.6209C50.7158 82.5754 51.4534 86.4092 52.5206 90.2291C52.9375 91.7211 54.4168 96.7924 53.277 98.2227" stroke="#564C86" stroke-width="8" stroke-linecap="round"/>
<path d="M19.3851 90.3857C20.9201 90.1423 22.0549 89.6346 23.2936 88.7183C25.8995 86.7907 28.563 85.1168 31.403 83.5077C34.5823 81.7065 38.0987 79.7522 40.7757 77.2606C43.1669 75.0351 45.314 72.538 47.7423 70.3568C48.8181 69.3905 49.5447 68.9826 49.8045 70.9786C50.1267 73.4535 50.2783 76.1291 50.4474 78.6209C50.7158 82.5754 51.4534 86.4092 52.5206 90.2291C52.9375 91.7211 54.4168 96.7924 53.277 98.2227" stroke="white" stroke-opacity="0.7" stroke-width="2" stroke-linecap="round"/>
<path d="M17.6096 90.1447C21.3221 94.5169 26.784 95.582 32.1258 97.4961C35.6501 98.7588 39.642 99.8173 43.3573 100.273C46.0615 100.605 48.9251 100.808 51.5656 101.467C56.6759 102.743 62.1165 103.333 67.085 105.118C72.1248 106.929 77.8086 107.623 83.0229 108.82C89.8231 110.383 96.6649 111.419 103.551 112.551C106.465 113.029 110.169 113.699 112.901 112.285C114.643 111.383 116.057 110 117.236 108.327C117.801 107.525 117.768 105.808 117.71 104.879C117.612 103.317 118.816 101.059 119.279 99.5641C119.945 97.4087 121.136 95.4391 121.732 93.3028C122.373 91.0085 123.411 88.5814 124.442 86.4192C126.093 82.9561 126.763 79.0391 128.236 75.4868C129.832 71.6358 131.297 67.8608 132.417 63.8203C133.509 59.8855 133.853 56.0541 134.601 52.083C135.436 47.6483 136.829 43.6348 138.149 39.3464C139.001 36.5779 139.941 33.8737 140.385 30.9989C140.561 29.862 140.888 28.8014 140.333 27.7181C139.158 25.4243 136.177 25.6231 134.074 25.7515C131.189 25.9276 128.41 26.6179 125.546 26.9333C121.169 27.4153 116.619 28.4913 112.213 28.3289C102.937 27.9869 93.9899 27.0126 85.0695 24.4785C80.129 23.075 75.0484 22.356 70.128 20.788C66.158 19.5228 62.208 18.6912 58.1761 17.7627C55.2971 17.0996 52.3555 16.8892 49.4042 16.8369C47.1013 16.796 44.2767 16.0522 42.549 17.8951C40.663 19.9067 39.9574 23.8455 39.4052 26.4759C38.6136 30.2462 37.1825 33.9064 35.6249 37.4189C33.2787 42.7103 30.5072 47.6911 28.5527 53.1511C27.2302 56.846 25.8844 60.5315 24.2771 64.1123C22.4792 68.1175 20.7778 72.1356 18.8178 76.065C17.7172 78.2714 16.5837 80.4753 16.1106 82.8635C15.4682 86.1068 16.0173 88.4464 18.1409 90.9594" stroke="#564C86" stroke-width="8" stroke-linecap="round"/>
<path d="M17.6096 90.1447C21.3221 94.5169 26.784 95.582 32.1258 97.4961C35.6501 98.7588 39.642 99.8173 43.3573 100.273C46.0615 100.605 48.9251 100.808 51.5656 101.467C56.6759 102.743 62.1165 103.333 67.085 105.118C72.1248 106.929 77.8086 107.623 83.0229 108.82C89.8231 110.383 96.6649 111.419 103.551 112.551C106.465 113.029 110.169 113.699 112.901 112.285C114.643 111.383 116.057 110 117.236 108.327C117.801 107.525 117.768 105.808 117.71 104.879C117.612 103.317 118.816 101.059 119.279 99.5641C119.945 97.4087 121.136 95.4391 121.732 93.3028C122.373 91.0085 123.411 88.5814 124.442 86.4192C126.093 82.9561 126.763 79.0391 128.236 75.4868C129.832 71.6358 131.297 67.8608 132.417 63.8203C133.509 59.8855 133.853 56.0541 134.601 52.083C135.436 47.6483 136.829 43.6348 138.149 39.3464C139.001 36.5779 139.941 33.8737 140.385 30.9989C140.561 29.862 140.888 28.8014 140.333 27.7181C139.158 25.4243 136.177 25.6231 134.074 25.7515C131.189 25.9276 128.41 26.6179 125.546 26.9333C121.169 27.4153 116.619 28.4913 112.213 28.3289C102.937 27.9869 93.9899 27.0126 85.0695 24.4785C80.129 23.075 75.0484 22.356 70.128 20.788C66.158 19.5228 62.208 18.6912 58.1761 17.7627C55.2971 17.0996 52.3555 16.8892 49.4042 16.8369C47.1013 16.796 44.2767 16.0522 42.549 17.8951C40.663 19.9067 39.9574 23.8455 39.4052 26.4759C38.6136 30.2462 37.1825 33.9064 35.6249 37.4189C33.2787 42.7103 30.5072 47.6911 28.5527 53.1511C27.2302 56.846 25.8844 60.5315 24.2771 64.1123C22.4792 68.1175 20.7778 72.1356 18.8178 76.065C17.7172 78.2714 16.5837 80.4753 16.1106 82.8635C15.4682 86.1068 16.0173 88.4464 18.1409 90.9594" stroke="white" stroke-opacity="0.7" stroke-width="2" stroke-linecap="round"/>
<path d="M48.1916 118.429C52.8785 118.056 57.0568 115.456 61.6131 114.344C62.7305 114.071 65.6179 112.362 66.5814 113.13C67.4496 113.821 66.813 115.371 66.62 116.291C66.2189 118.201 65.7837 120.037 65.4208 121.965C64.7788 125.376 64.1394 128.909 64.225 132.381" stroke="#564C86" stroke-width="8" stroke-linecap="round"/>
<path d="M48.1916 118.429C52.8785 118.056 57.0568 115.456 61.6131 114.344C62.7305 114.071 65.6179 112.362 66.5814 113.13C67.4496 113.821 66.813 115.371 66.62 116.291C66.2189 118.201 65.7837 120.037 65.4208 121.965C64.7788 125.376 64.1394 128.909 64.225 132.381" stroke="white" stroke-opacity="0.7" stroke-width="2" stroke-linecap="round"/>
<path d="M47.2472 121.59C48.615 125.002 52.3986 127.26 55.2284 129.515C57.5459 131.362 59.9795 132.963 62.318 134.774C67.7342 138.968 74.0142 142.145 79.8452 145.699C84.22 148.364 88.4476 151.19 92.5926 154.227C97.2785 157.66 101.849 161.191 106.405 164.821C110.303 167.928 113.369 171.791 116.689 175.452C118.588 177.546 120.714 179.424 123.713 179.093C124.955 178.956 126.189 177.809 127.146 177.09C129.473 175.339 131.694 173.3 133.664 171.133C137.844 166.534 142.694 162.378 147.423 158.339C152.012 154.42 155.92 149.672 160.448 145.699C164.648 142.014 168.777 137.962 172.26 133.592C173.878 131.562 169.952 128.03 168.898 126.674C167.369 124.705 165.242 123.282 163.302 121.736C160.264 119.314 157.342 116.886 154.497 114.24C150.6 110.616 146.686 107.034 142.826 103.374C140.782 101.437 138.379 99.8351 136.451 97.794C133.744 94.928 130.746 92.269 127.663 89.8119" stroke="#564C86" stroke-width="8" stroke-linecap="round"/>
<path d="M47.2472 121.59C48.615 125.002 52.3986 127.26 55.2284 129.515C57.5459 131.362 59.9795 132.963 62.318 134.774C67.7342 138.968 74.0142 142.145 79.8452 145.699C84.22 148.364 88.4476 151.19 92.5926 154.227C97.2785 157.66 101.849 161.191 106.405 164.821C110.303 167.928 113.369 171.791 116.689 175.452C118.588 177.546 120.714 179.424 123.713 179.093C124.955 178.956 126.189 177.809 127.146 177.09C129.473 175.339 131.694 173.3 133.664 171.133C137.844 166.534 142.694 162.378 147.423 158.339C152.012 154.42 155.92 149.672 160.448 145.699C164.648 142.014 168.777 137.962 172.26 133.592C173.878 131.562 169.952 128.03 168.898 126.674C167.369 124.705 165.242 123.282 163.302 121.736C160.264 119.314 157.342 116.886 154.497 114.24C150.6 110.616 146.686 107.034 142.826 103.374C140.782 101.437 138.379 99.8351 136.451 97.794C133.744 94.928 130.746 92.269 127.663 89.8119" stroke="white" stroke-opacity="0.7" stroke-width="2" stroke-linecap="round"/>
<path d="M47.8284 122.835C46.1006 121.4 45.0179 119.694 45.1125 117.41C45.1454 116.617 45.0926 115.931 45.2858 115.135C45.4394 114.503 45.8916 113.304 45.8766 112.693C45.8538 111.77 47.4256 109.705 47.9554 108.85C48.3745 108.174 48.8924 107.131 49.1904 106.313" stroke="#564C86" stroke-width="8" stroke-linecap="round"/>
<path d="M47.8284 122.835C46.1006 121.4 45.0179 119.694 45.1125 117.41C45.1454 116.617 45.0926 115.931 45.2858 115.135C45.4394 114.503 45.8916 113.304 45.8766 112.693C45.8538 111.77 47.4256 109.705 47.9554 108.85C48.3745 108.174 48.8924 107.131 49.1904 106.313" stroke="white" stroke-opacity="0.7" stroke-width="2" stroke-linecap="round"/>
<path d="M61.981 62.1184C58.267 59.1585 64.91 53.0117 66.6866 50.7824C68.0241 49.1041 68.9302 48.235 68.8466 46.0694C68.7943 44.7126 68.3263 43.27 68.6011 41.961" stroke="#564C86" stroke-width="8" stroke-linecap="round"/>
<path d="M78.891 89.2893C78.5218 87.4322 77.2607 85.0863 77.6611 83.179C78.4857 79.2517 81.5115 75.726 83.9022 72.632C86.7681 68.923 89.4416 66.1563 89.7535 61.3396C89.9356 58.5276 90.1114 55.2849 89.819 52.4793C89.6493 50.852 89.2392 49.525 89.8245 47.9187" stroke="#564C86" stroke-width="8" stroke-linecap="round"/>
<path d="M104.746 80.5478C104.761 78.0784 104.348 74.9754 105.583 72.6939C106.709 70.6146 108.096 68.5442 109.519 66.6575C111.111 64.5481 112.449 62.2006 112.128 59.4332C111.906 57.5133 112.037 55.3487 111.238 53.6372" stroke="#564C86" stroke-width="8" stroke-linecap="round"/>
<path d="M117.229 135.493C118.08 131.74 120.831 131.194 124.168 129.502C125.345 128.905 124.757 127.737 124.957 126.783" stroke="#564C86" stroke-width="8" stroke-linecap="round"/>
<path d="M121.783 155.948C122.995 151.416 125.219 148.929 129.43 146.847C132.199 145.478 134.652 144.182 136.848 141.955C139.396 139.371 141.612 136.596 143.632 133.58C144.54 132.224 146.173 130.797 145.971 129.053" stroke="#564C86" stroke-width="8" stroke-linecap="round"/>
<path d="M62.0219 60.5858C56.1469 53.8505 72.1455 49.8816 68.6511 42.392" stroke="white" stroke-opacity="0.7" stroke-width="2" stroke-linecap="round"/>
<path d="M79.2224 88.3797C78.9103 86.0813 78.6037 84.2428 78.7663 81.9296C78.9504 79.3092 80.3938 76.5406 82.0193 74.501C83.8242 72.2361 85.4673 69.7019 87.6628 67.8035C88.5702 67.0189 89.1148 65.9914 89.4955 64.873C90.9884 60.4864 89.7446 54.7706 89.2115 50.1693" stroke="white" stroke-opacity="0.7" stroke-width="2" stroke-linecap="round"/>
<path d="M104.927 78.3449C103.412 76.9752 104.375 74.0998 105.424 72.7843C106.605 71.3019 109.14 68.9979 109.721 67.1446C110.397 64.9878 111.193 63.1289 111.213 60.8559C111.23 59.0273 110.97 56.9741 110.766 55.2173" stroke="white" stroke-opacity="0.7" stroke-width="2" stroke-linecap="round"/>
<path d="M117.901 135.638C116.02 132.577 120.485 131.301 122.283 130.522C123.056 130.187 124.106 130.32 124.634 129.657C125.291 128.833 125.678 127.854 126.301 127.072" stroke="white" stroke-opacity="0.7" stroke-width="2" stroke-linecap="round"/>
<path d="M123.027 155.374C123.261 151.872 124.43 148.9 127.159 146.624C129.261 144.872 131.541 144.733 133.772 143.373C135.01 142.619 136.27 142.159 137.431 141.224C138.597 140.285 139.49 138.668 140.432 137.486C141.47 136.183 142.508 134.88 143.547 133.577C144.375 132.537 144.482 131.416 145.258 130.441" stroke="white" stroke-opacity="0.7" stroke-width="2" stroke-linecap="round"/>
</svg>
