<svg width="168" height="137" viewBox="0 0 168 137" fill="none" xmlns="http://www.w3.org/2000/svg">
<path d="M65.4171 109.618C65.4171 112.558 65.929 115.78 66.447 118.681C66.9136 121.294 66.653 124.075 66.653 126.715C66.653 127.425 66.4242 128.598 66.8819 129.187C70.309 133.593 77.2901 132.959 81.7132 130.949C88.3026 127.954 90.883 120.093 91.7609 113.508C91.9323 112.224 91.4515 110.677 91.8067 109.434C92.0263 108.666 98.25 109.206 98.9935 109.206C105.579 109.206 112.861 110.064 119.387 108.977C124.821 108.071 129.718 106.239 134.63 103.85C138.88 101.782 142.458 98.961 146.486 96.5257C153.297 92.4074 155.641 84.0235 155.641 76.4302C155.641 73.7115 155.214 70.5319 155.961 67.916C156.376 66.4638 156.327 64.9747 156.785 63.4757C157.314 61.7441 158.449 60.1484 159.257 58.532C160.89 55.2665 162.063 52.3331 162.965 48.8275C163.985 44.8613 163.88 40.8479 163.88 36.7885C163.88 28.2274 154.628 22.0042 147.401 19.1649C141.087 16.6843 135.953 15.686 129.182 15.686C120.126 15.686 111.116 16.8485 102.083 15.274C84.6773 12.2399 68.4719 4.97449 50.5858 4.97449C44.4029 4.97449 38.294 7.76718 32.6188 9.96403C25.6492 12.662 19.2251 17.384 13.9882 22.621C8.3522 28.2569 4.85593 35.4216 4.85593 43.426C4.85593 47.2695 4.21527 51.9329 5.26791 55.6481C6.35302 59.4779 7.46354 63.6574 8.06022 67.5955C8.595 71.1251 8.15177 75.0238 8.15177 78.6046C8.15177 83.3289 8.70522 87.5444 10.3948 92.0168C12.5191 97.64 16.7037 103.873 21.976 107.146C30.565 112.477 40.6982 111.265 50.4027 111.265C55.5546 111.265 60.3463 111.625 64.5931 108.794" stroke="#564C86" stroke-width="8" stroke-linecap="round"/>
<path d="M65.7542 109.643C65.7542 112.584 66.2662 115.806 66.7842 118.707C67.2507 121.319 66.9902 124.1 66.9902 126.74C66.9902 127.45 66.7614 128.624 67.219 129.212C70.6462 133.618 77.6273 132.985 82.0503 130.974C88.6397 127.979 91.2201 120.119 92.0981 113.534C92.2694 112.249 91.7887 110.703 92.1439 109.46C92.3635 108.691 98.5871 109.231 99.3306 109.231C105.916 109.231 113.198 110.09 119.724 109.002C125.158 108.096 130.056 106.265 134.967 103.875C139.217 101.808 142.795 98.9865 146.823 96.5512C153.634 92.4329 155.978 84.0491 155.978 76.4557C155.978 73.737 155.551 70.5574 156.298 67.9415C156.713 66.4894 156.664 65.0002 157.122 63.5012C157.651 61.7696 158.786 60.1739 159.594 58.5575C161.227 55.292 162.401 52.3586 163.302 48.853C164.322 44.8869 164.218 40.8734 164.218 36.814C164.218 28.2529 154.966 22.0297 147.738 19.1904C141.424 16.7098 136.29 15.7115 129.52 15.7115C120.464 15.7115 111.453 16.874 102.42 15.2995C85.0145 12.2654 68.809 5 50.9229 5C44.74 5 38.6312 7.79269 32.956 9.98954C25.9863 12.6875 19.5623 17.4095 14.3253 22.6465C8.68936 28.2825 5.19309 35.4471 5.19309 43.4515C5.19309 47.295 4.55243 51.9584 5.60507 55.6736C6.69018 59.5034 7.8007 63.6829 8.39738 67.621C8.93216 71.1506 8.48893 75.0494 8.48893 78.6301C8.48893 83.3544 9.04238 87.57 10.7319 92.0423C12.8563 97.6655 17.0408 103.899 22.3132 107.171C30.9021 112.502 41.0354 111.291 50.7398 111.291C55.8918 111.291 60.6835 111.65 64.9303 108.819" stroke="white" stroke-opacity="0.7" stroke-width="2" stroke-linecap="round"/>
<path d="M51.9614 34.3603C49.6685 31.7808 47.7622 30.4796 44.2 30.4796C41.2771 30.4796 38.2407 31.6982 36.4553 34.2276C34.0373 37.6531 32.2595 42.2989 32.2595 46.533C32.2595 49.7556 31.7386 52.9442 34.1833 55.3888C36.1484 57.3539 38.6163 57.9428 41.3642 57.9428C42.4532 57.9428 43.5422 57.9428 44.6312 57.9428C46.0188 57.9428 46.5267 57.1586 47.55 56.4502C50.0153 54.7435 50.3795 52.2452 51.5136 49.7503C52.0984 48.4637 51.5968 47.1963 50.1371 47.1963C47.7814 47.1963 45.5937 46.1616 43.3045 45.7038" stroke="#FFC84B" stroke-width="5" stroke-linecap="round"/>
<path d="M67.484 28.987C65.1988 29.241 63.1558 34.059 62.9897 35.886C62.6499 39.6244 62.1369 42.7548 63.0063 46.45C63.5015 48.5546 64.7342 50.3723 66.5221 51.5413C68.0068 52.512 71.1699 52.0221 72.8572 51.9725C74.3484 51.9287 76.0218 49.9664 76.7545 48.8215C78.1578 46.6288 78.8208 44.434 79.126 41.8397C79.5889 37.9048 79.1333 35.8287 76.9037 32.5858C74.9056 29.6794 72.5677 28.39 68.9766 28.39" stroke="#FFC84B" stroke-width="5" stroke-linecap="round"/>
<path d="M94.9472 28.9871C88.7676 28.9871 89.0136 38.2304 89.9389 42.4865C90.4467 44.8225 91.5979 47.0586 93.5708 48.3738C95.0883 49.3855 97.6976 48.5007 99.1264 47.6275C106.582 43.0715 105.426 28.6885 95.8428 28.6885" stroke="#FFC84B" stroke-width="5" stroke-linecap="round"/>
<path d="M118.231 31.0766C118.231 34.4994 116.304 37.7747 115.412 41.0602C114.278 45.2373 113.611 49.3625 112.841 53.5977C112.597 54.9394 113.037 54.6591 114.467 54.6591C115.567 54.6591 116.667 54.6591 117.767 54.6591C120.454 54.6591 122.775 53.4981 125.097 52.3373C127.399 51.1862 128.952 48.6082 129.641 46.2344C130.495 43.2918 129.655 40.7884 128.231 38.2575C126.642 35.4321 123.111 32.106 120.022 31.0766" stroke="#FFC84B" stroke-width="5" stroke-linecap="round"/>
<path d="M44.2001 67.4951C44.2001 70.5404 44.4986 73.6749 44.4986 76.7822C44.4986 80.8572 44.2387 85.6293 46.356 89.2865C47.7012 91.61 52.5925 93.1672 55.1124 93.1672C58.3189 93.1672 61.9526 92.7985 64.7974 91.3761" stroke="#FFC84B" stroke-width="5" stroke-linecap="round"/>
<path d="M69.8722 68.6892C69.387 68.8105 69.0268 71.37 68.9932 71.8236C68.8761 73.4045 68.9767 75.0314 68.9767 76.6164C68.9767 79.2836 69.0261 81.541 69.8722 84.0792C71.5593 89.1406 74.8623 90.1821 80.005 90.1821C84.5558 90.1821 87.1859 83.222 87.1859 79.5683C87.1859 75.7871 85.931 72.6858 84.7978 69.2862" stroke="#FFC84B" stroke-width="5" stroke-linecap="round"/>
<path d="M105.097 71.3758C104.995 70.5626 103.433 69.7048 102.709 69.6013C100.652 69.3075 99.4108 70.6643 97.866 71.6743C93.0335 74.834 92.9146 83.8463 95.8428 88.3247C97.3671 90.656 100.021 91.0776 102.642 91.0776C104.7 91.0776 105.554 90.9741 107.336 90.1821C109.035 89.4267 110.087 88.143 111.664 87.197" stroke="#FFC84B" stroke-width="5" stroke-linecap="round"/>
<path d="M117.933 71.0773C116.913 71.2047 116.739 75.8531 116.739 76.6329C116.739 79.6737 117.371 82.4265 117.618 85.3893C117.783 87.3758 118.365 89.2513 118.895 91.2103C119.205 92.3585 119.523 94.9951 120.619 93.1672" stroke="#FFC84B" stroke-width="5" stroke-linecap="round"/>
<path d="M128.082 72.8684C128.004 73.5737 126.526 74.1966 125.992 74.5931C125.153 75.217 123.9 76.0979 123.372 77.0476C122.668 78.3148 121.621 81.3464 123.306 82.1886C127.097 84.0845 131.95 83.6149 136.142 83.6149" stroke="#FFC84B" stroke-width="5" stroke-linecap="round"/>
<path d="M36.3731 73.5935C36.2523 73.4576 36.1927 73.1358 36.1325 72.9596C35.9675 72.4763 35.7322 72.0307 35.4986 71.5781C35.0763 70.7598 34.4155 70.0886 33.831 69.3936C33.4054 68.8875 32.7654 68.4362 32.1699 68.1583C31.7667 67.9701 31.1557 67.7113 30.6973 67.8592C30.3496 67.9714 29.9031 68.3794 29.7903 68.7402C29.7423 68.8939 29.7026 69.0187 29.7026 69.179C29.7026 69.7534 29.8067 70.1076 30.1512 70.5898C30.8365 71.5494 31.6281 72.3768 32.5665 73.0929C32.7993 73.2706 33.0416 73.4338 33.2394 73.652C33.3792 73.8064 33.5194 74.0133 33.7075 74.1136C33.9203 74.2271 34.0064 74.3542 33.7107 74.3542C32.7702 74.3542 31.8282 74.1393 30.8858 74.2502C29.8983 74.3664 28.9779 74.3497 28.0414 74.7313C27.4906 74.9557 27.2355 75.6443 27.245 76.2071C27.2646 77.3605 28.8997 77.5807 29.7253 77.774C31.4208 78.1708 33.4911 77.5735 34.6177 76.2591C34.938 75.8854 35.271 75.5298 35.5539 75.1279C35.7492 74.8503 36.0486 74.5935 36.1975 74.2957" stroke="#FF4B4E" stroke-opacity="0.7" stroke-width="4" stroke-linecap="round"/>
<path d="M33.0964 90.3868C32.332 89.5636 31.6561 88.8105 30.5868 88.3974C29.8327 88.106 28.6227 87.8367 28.1552 88.6867C27.6116 89.675 28.7676 90.5524 29.5433 90.8777C30.0419 91.0868 30.5679 91.1713 31.0679 91.3555C31.3566 91.4619 32.2646 91.4499 31.9716 91.5441C30.9318 91.8783 29.6064 91.9524 28.9874 93.0069C28.7836 93.3542 28.6983 93.744 28.7079 94.1447C28.7162 94.494 29.0596 94.5413 29.358 94.5413C30.0694 94.5413 30.4463 94.4384 31.0679 94.0764C31.5328 93.8057 31.8619 93.4715 32.2187 93.0752C32.4441 92.8247 32.6741 92.509 32.8623 92.2267C33.0285 91.9775 33.1352 91.2744 33.3889 91.1475" stroke="#FF4B4E" stroke-opacity="0.7" stroke-width="4" stroke-linecap="round"/>
<path d="M147.939 45.2983C147.939 44.8242 148.442 40.2285 147.181 41.2094C146.204 41.9692 145.888 44.2797 146.675 45.2421C147.502 46.2524 148.642 46.3093 149.86 46.3093C150.499 46.3093 150.993 46.3005 151.59 46.1015C151.945 45.9831 152.685 45.6506 152.87 45.2983C153.355 44.3777 153.149 43.8829 151.983 43.8829C151.21 43.8829 150.58 44.0471 149.86 44.2873" stroke="#FF4B4E" stroke-opacity="0.7" stroke-width="4" stroke-linecap="round"/>
</svg>
