<svg width="187" height="86" viewBox="0 0 187 86" fill="none" xmlns="http://www.w3.org/2000/svg">
<path d="M68.9467 47.1705C68.995 48.0188 69.5115 48.9543 69.6655 49.8277C69.921 51.2769 71.1585 52.3595 71.632 53.7157C72.9496 57.49 75.5003 59.8768 78.6843 61.8833C86.1606 66.5948 94.5433 67.058 103.096 67.058C109.719 67.058 116.735 63.3707 121.31 58.6527C122.851 57.0641 124.121 55.4032 125.338 53.5199C125.899 52.6531 126.427 51.8456 126.925 50.9326C127.077 50.6536 127.515 49.9992 127.535 49.6879C127.548 49.4929 127.107 50.8756 127.047 51.1843C126.666 53.1492 125.614 55.3194 124.85 57.1842C124.036 59.1727 122.771 61.2446 121.568 63.0162C119.074 66.6904 115.364 70.1816 111.722 72.5963C107.118 75.6486 102.057 75.6172 96.722 75.6172C91.2607 75.6172 85.5468 73.4817 80.9085 70.7222C78.5778 69.3356 76.8852 67.7949 75.4294 65.4357C75.2394 65.1278 74.824 63.9086 74.8733 63.6036C74.9224 63.3003 76.0509 64.0246 76.1075 64.0511C77.3264 64.6224 78.6267 65.0032 79.932 65.2958C82.9167 65.9649 85.8747 66.6338 88.9102 67.0021C94.1567 67.6386 99.456 67.5615 104.751 67.5615C107.236 67.5615 109.715 67.6442 112.102 66.8063C113.469 66.3262 114.92 65.6531 116.306 65.2958" stroke="#98C1FF" stroke-opacity="0.7" stroke-width="9" stroke-linecap="round"/>
<path d="M9.86984 31.5625C9.86984 40.5654 14.7987 51.4015 22.8082 55.6737C25.3918 57.0518 28.3145 58.6317 31.0947 59.4918C31.7893 59.7067 32.4675 59.9266 33.1426 60.205C34.0582 60.5827 35.0136 60.4261 35.9364 60.7645C38.0092 61.5245 40.7358 61.3683 42.9345 61.5057C45.2819 61.6524 48.0206 61.8073 50.3123 61.3239C52.9609 60.7652 55.6665 58.6184 58.0156 57.2401C59.5712 56.3274 60.8302 55.5684 62.1114 54.2472C62.4753 53.8719 63.486 52.4535 62.9252 53.7437C61.9745 55.9307 60.1153 57.785 58.6937 59.6456C57.2608 61.5212 55.8182 63.4588 54.598 65.4916C52.0001 69.8192 46.1361 70.5148 42.4598 73.4634C40.9306 74.69 38.1543 74.3585 36.3704 74.3585C33.3611 74.3585 30.5917 73.729 27.6634 73.3515C23.4748 72.8116 18.16 70.2483 15.3761 66.9181C13.9322 65.1909 12.0676 63.4388 11.1447 61.3239C10.3232 59.4413 9.51421 57.6022 8.78487 55.6877C7.94205 53.4753 7.18453 50.3415 7.18453 47.9536C7.18453 47.46 7.17226 46.9645 7.18453 46.4712C7.20737 45.5525 8.12058 47.9264 8.21526 48.1774C9.19821 50.7839 10.6024 53.2186 12.311 55.366C13.9213 57.3898 15.4833 58.9266 17.4375 60.5687C19.8089 62.5612 22.5265 63.5778 25.0459 65.3098C28.0671 67.3868 32.5404 68.0485 36.0991 68.5684C38.0948 68.86 40.0854 68.8202 42.0936 68.8202C43.2563 68.8202 44.0183 68.0811 44.5891 69.3237C45.1242 70.4886 45.3511 72.2634 44.5891 73.3515C43.154 75.4006 38.9498 76.8934 36.723 75.4214C34.1967 73.7514 30.8457 73.1475 28.0703 72.0369C25.6502 71.0684 23.1943 70.1952 20.7874 69.2118C19.2173 68.5702 17.5037 68.2957 15.9728 67.5615C15.2505 67.215 15.3319 66.7278 15.0506 66.051C13.8004 63.0429 12.5263 60.0694 11.2261 57.0723C10.4661 55.3205 9.47667 53.7036 8.77131 51.9256C8.16875 50.4067 7.26979 48.7012 7.18453 47.0306C7.1247 45.8584 6.69629 44.8694 6.69629 43.6601C6.69629 43.3106 6.7866 41.2984 7.4829 42.4153C8.38571 43.8636 9.2474 45.3085 10.1004 46.7928C11.0512 48.4474 12.3707 49.6495 13.4774 51.1983C16.8752 55.9536 22.2965 59.1725 27.7855 60.7645C32.1255 62.0232 36.5203 62.2749 40.9815 62.2749C42.9624 62.2749 44.6657 63.2819 46.637 63.2819C48.9659 63.2819 51.4791 64.0152 53.7029 62.7644C54.3091 62.4234 55.1983 61.9387 55.7101 61.4637C56.1793 61.0283 58.0662 60.9502 58.8158 60.7785C60.0565 60.4941 60.6812 59.303 61.2706 58.261C61.8762 57.1904 62.8438 55.3744 62.8438 54.0933C62.8438 52.9211 63.775 51.9281 64.0779 50.8347C64.2222 50.314 65.0026 49.8947 65.0409 49.1844C65.0771 48.5109 65.5586 47.8345 65.7732 47.1704" stroke="#98C1FF" stroke-opacity="0.7" stroke-width="9" stroke-linecap="round"/>
<path d="M44.5827 5.35658C42.6067 3.72642 37.5829 4.61935 35.2096 4.61935C30.8202 4.61935 24.66 5.49178 20.9513 8.22355C16.4916 11.5085 11.8215 15.5153 9.27456 20.6744C6.27492 26.7505 5.9978 33.7467 4.90571 40.2927C3.94637 46.043 3.36531 53.2614 5.18373 58.887C6.62359 63.3415 7.8236 69.2276 11.5384 72.157C13.0643 73.3603 14.3292 74.8964 16.0264 75.966C18.3072 77.4033 20.9414 77.9449 23.3343 79.0787C25.1827 79.9545 27.0654 80.5531 29.0932 80.5531C31.8738 80.5531 34.5996 81.659 37.3543 81.659C41.9028 81.659 45.6055 81.5914 49.6665 79.0787C52.592 77.2686 54.7903 75.6236 56.8155 72.8123C61.8483 65.8258 66.5957 56.6602 66.7447 47.7468C66.9135 37.6488 66.785 27.1607 60.3106 18.9133C58.6112 16.7485 56.6989 14.9021 54.7899 12.9336C53.8886 12.0041 52.8066 10.35 51.7318 9.69799C50.2319 8.78816 48.5198 6.0938 46.7274 6.0938" stroke="#564C86" stroke-width="8" stroke-linecap="round"/>
<path d="M107.268 5.0481C105.292 3.41795 100.268 4.31088 97.895 4.31088C93.5057 4.31088 87.3454 5.18331 83.6367 7.91508C79.1771 11.2 74.5069 15.2069 71.96 20.3659C68.9603 26.442 68.6832 33.4382 67.5911 39.9842C66.6318 45.7345 66.0507 52.953 67.8692 58.5785C69.309 63.033 70.509 68.9191 74.2238 71.8485C75.7497 73.0518 77.0146 74.5879 78.7118 75.6575C80.9926 77.0948 83.6268 77.6364 86.0197 78.7702C87.8681 79.646 89.7508 80.2447 91.7786 80.2447C94.5592 80.2447 97.285 81.3505 100.04 81.3505C104.588 81.3505 108.291 81.2829 112.352 78.7702C115.277 76.9601 117.476 75.3151 119.501 72.5038C124.534 65.5173 129.281 56.3518 129.43 47.4383C129.599 37.3404 129.47 26.8523 122.996 18.6048C121.297 16.44 119.384 14.5936 117.475 12.6251C116.574 11.6956 115.492 10.0415 114.417 9.38952C112.917 8.47969 111.205 5.78533 109.413 5.78533" stroke="#564C86" stroke-width="8" stroke-linecap="round"/>
<path d="M45.3815 80.5995H88.2756" stroke="#564C86" stroke-width="8" stroke-linecap="round"/>
<path d="M84.3436 6.14014C72.7086 6.14014 61.2368 6.50875 49.6709 6.50875" stroke="#564C86" stroke-width="8" stroke-linecap="round"/>
<path d="M111.867 79.8623C115.334 79.8623 118.748 79.1251 122.233 79.1251C125.569 79.1251 128.958 79.3722 132.242 78.7565C139.352 77.4233 146.533 76.2044 153.332 73.5754C156.323 72.4187 159.417 70.9716 162.268 69.5412C165.071 68.1348 167.85 66.3141 170.767 65.1998C172.249 64.6338 174.413 63.7065 175.573 62.6195C176.335 61.9052 178.804 60.3259 179.783 60.3259" stroke="#564C86" stroke-width="8" stroke-linecap="round"/>
<path d="M112.225 4.29706C117.495 4.29706 123.136 5.06814 128.231 6.50872C131.106 7.32186 133.98 7.3643 136.81 8.26986C139.386 9.09458 141.95 9.89926 144.554 10.6454C149.35 12.019 153.929 14.0863 158.693 15.724C163.862 17.5005 169.091 19.883 173.845 22.5228C175.115 23.2279 177.349 23.5907 178.333 24.7754C179.255 25.8846 181.548 26.4019 181.908 28.0724C182.639 31.4662 182.643 34.8656 182.643 38.5369C182.643 42.4617 181.928 46.3104 181.928 50.1686C181.928 51.9903 182.537 57.2474 180.855 58.1142" stroke="#564C86" stroke-width="8" stroke-linecap="round"/>
<path d="M142.608 27.5196C145.984 27.5196 148.557 29.1633 151.723 29.7313C153.673 30.081 155.997 30.7617 157.82 31.5743C161.526 33.227 165.57 33.8384 169.06 35.9976" stroke="#564C86" stroke-width="8" stroke-linecap="round"/>
<path d="M45.739 4.66573C44.8547 4.66573 44.163 3.94407 43.3162 3.64181C42.1659 3.23118 41.2819 3.19128 40.0396 3.19128C38.1001 3.19128 36.1606 3.19128 34.2211 3.19128C28.9062 3.19128 24.2764 5.33422 20.0025 8.16753C18.0868 9.4375 16.5434 11.451 14.9188 13.0619C13.7224 14.2482 12.2295 15.557 11.4435 17.178C10.4324 19.2634 8.10815 20.9278 7.84918 23.4649C7.59993 25.9067 6.41937 28.2722 6.41937 30.7552C6.41937 36.0648 4.98957 41.2092 4.98957 46.4006C4.98957 51.6022 3.96613 55.9934 6.5981 60.8788C7.54401 62.6346 7.91099 65.0156 9.27898 66.5923C10.6699 68.1954 11.7734 69.9258 13.0124 71.5685C14.3783 73.3795 17.2592 75.6694 19.2876 76.8315C20.9008 77.7557 23.2516 79.3632 25.0862 79.4937C26.8393 79.6183 28.8056 80.2756 30.5274 80.6814C31.7744 80.9753 33.1206 80.7658 34.3204 81.1524C35.5513 81.5491 36.9402 81.2687 38.2126 81.521C39.7195 81.8199 41.0573 82.0739 42.6013 82.0739C47.0876 82.0739 49.8523 78.2926 53.444 76.1762C55.2323 75.1224 56.7592 73.2188 57.8923 71.4662C58.8989 69.909 60.4834 67.6595 60.7717 65.8756C60.8542 65.3657 61.7096 64.0036 62.003 63.4591C62.55 62.4437 62.8813 61.2711 63.1746 60.1621C63.8727 57.5225 64.5876 55.2811 64.6838 52.5032C64.7608 50.2821 65.3987 48.2316 65.3987 45.9501C65.3987 42.7453 65.7562 39.3661 65.7562 36.0795C65.7562 33.2445 64.9245 29.1688 63.7704 26.6185C63.1919 25.3403 62.8728 23.9891 62.2611 22.7276C61.7824 21.7403 60.9553 20.6307 60.732 19.5945C60.5475 18.7381 59.612 18.1306 59.1632 17.4033C58.5831 16.4633 58.298 15.4515 57.5348 14.6182C56.4722 13.4579 55.2076 12.1903 54.2979 11.0959C53.1955 9.76964 51.0669 8.66344 49.6709 7.90131C48.7488 7.39791 47.5646 5.77156 46.4539 5.77156" stroke="white" stroke-opacity="0.7" stroke-width="2" stroke-linecap="round"/>
<path d="M108.989 5.54128C108.105 5.54128 107.413 4.81962 106.566 4.51736C105.416 4.10673 104.532 4.06683 103.29 4.06683C101.35 4.06683 99.4106 4.06683 97.4711 4.06683C92.1562 4.06683 87.5264 6.20977 83.2525 9.04308C81.3368 10.3131 79.7934 12.3265 78.1688 13.9374C76.9724 15.1237 75.4795 16.4326 74.6935 18.0536C73.6824 20.139 71.3581 21.8034 71.0992 24.3404C70.8499 26.7822 69.6694 29.1478 69.6694 31.6307C69.6694 36.9404 68.2396 42.0848 68.2396 47.2762C68.2396 52.4778 67.2161 56.8689 69.8481 61.7544C70.794 63.5102 71.161 65.8912 72.529 67.4678C73.9199 69.0709 75.0234 70.8014 76.2624 72.4441C77.6283 74.2551 80.5092 76.545 82.5376 77.707C84.1508 78.6312 86.5016 80.2387 88.3362 80.3692C90.0893 80.4939 92.0556 81.1511 93.7774 81.557C95.0244 81.8509 96.3706 81.6413 97.5704 82.028C98.8013 82.4246 100.19 82.1442 101.463 82.3966C102.969 82.6954 104.307 82.9495 105.851 82.9495C110.338 82.9495 113.102 79.1682 116.694 77.0517C118.482 75.9979 120.009 74.0943 121.142 72.3417C122.149 70.7846 123.733 68.5351 124.022 66.7511C124.104 66.2412 124.96 64.8792 125.253 64.3347C125.8 63.3192 126.131 62.1466 126.425 61.0376C127.123 58.3981 127.838 56.1567 127.934 53.3787C128.011 51.1576 128.649 49.1072 128.649 46.8257C128.649 43.6209 129.006 40.2417 129.006 36.9551C129.006 34.12 128.174 30.0444 127.02 27.4941C126.442 26.2158 126.123 24.8647 125.511 23.6032C125.032 22.6159 124.205 21.5063 123.982 20.47C123.797 19.6137 122.862 19.0061 122.413 18.2788C121.833 17.3388 121.548 16.3271 120.785 15.4938C119.722 14.3334 118.458 13.0659 117.548 11.9715C116.446 10.6452 114.317 9.53898 112.921 8.77686C111.999 8.27346 110.815 6.64711 109.704 6.64711" stroke="white" stroke-opacity="0.7" stroke-width="2" stroke-linecap="round"/>
<path d="M51.4581 80.9681C51.6563 82.6032 66.0858 81.7053 67.9009 81.7053C72.4527 81.7053 76.9315 82.0415 81.1265 80.5995" stroke="white" stroke-opacity="0.7" stroke-width="2" stroke-linecap="round"/>
<path d="M54.6752 6.87738C56.767 6.66167 58.5753 6.14016 60.7518 6.14016C63.531 6.14016 66.1958 5.77155 68.9533 5.77155C71.4621 5.77155 73.9709 5.77155 76.4797 5.77155C78.32 5.77155 79.7607 6.50877 81.484 6.50877" stroke="white" stroke-opacity="0.7" stroke-width="2" stroke-linecap="round"/>
<path d="M142.966 27.1509C145.232 27.1509 147.271 28.8948 149.479 29.2807C152.508 29.8102 155.568 30.6393 158.515 31.5743C159.375 31.8473 160.375 32.5954 161.196 32.6801C161.879 32.7506 164.747 33.4803 165.128 33.9702C166.142 35.2779 168.814 34.8813 169.774 36.3662" stroke="white" stroke-opacity="0.7" stroke-width="2" stroke-linecap="round"/>
<path d="M119.016 79.4936C122.133 79.4936 125.26 79.125 128.31 79.125C131.181 79.125 133.607 77.6506 136.333 77.6506C137.457 77.6506 139.436 78.0394 140.463 77.5687C141.85 76.9333 143.518 76.6071 145.031 76.5447C146.248 76.4945 147.718 75.4903 148.963 75.4389C150.035 75.3947 151.793 75.0879 152.617 74.3331C153.691 73.3483 156.052 73.2999 157.442 72.8586C158.981 72.3706 160.5 71.8393 161.732 70.8518C163.868 69.1381 167.303 68.827 169.596 67.5138C170.608 66.934 171.798 66.379 172.912 65.937C174.489 65.3113 175.5 63.7219 176.923 62.9881C179.195 61.8167 182.077 60.1246 183 57.7456" stroke="white" stroke-opacity="0.7" stroke-width="2" stroke-linecap="round"/>
<path d="M114.727 3.92847C117.479 4.21229 120.07 5.18134 122.75 5.85343C126.081 6.68896 129.456 7.02312 132.897 7.61457C135.206 8.01141 137.452 8.74806 139.669 9.53954C141.743 10.2798 144.707 11.3639 146.917 11.6488C148.723 11.8816 151.544 12.6746 153.133 13.7171C155.065 14.9847 157.664 15.2955 159.766 16.3793C162.752 17.919 165.754 18.9143 168.702 20.434C172.042 22.156 175.791 23.5257 178.889 25.656C180.366 26.6712 180.922 26.9377 181.65 28.6254C182.224 29.9582 182.643 32.1573 182.643 33.6016C182.643 37.0832 182.465 40.629 182.643 44.107C182.813 47.4398 183.386 50.684 181.928 53.6909" stroke="white" stroke-opacity="0.7" stroke-width="2" stroke-linecap="round"/>
<path d="M18.4169 56.1362C18.4903 56.8704 19.7596 57.743 20.2907 58.2182C20.9851 58.8396 21.8488 58.8932 22.5809 59.2592" stroke="white" stroke-opacity="0.7" stroke-width="2" stroke-linecap="round"/>
<path d="M27.1613 62.3822C27.604 62.3822 27.8543 62.5376 28.2023 62.7986" stroke="white" stroke-opacity="0.7" stroke-width="2" stroke-linecap="round"/>
<path d="M78.7947 61.133C79.4069 61.9833 80.268 62.5058 81.1774 62.9605C82.3217 63.5327 83.4945 63.5959 84.6243 64.0478" stroke="white" stroke-opacity="0.7" stroke-width="2" stroke-linecap="round"/>
<path d="M87.5391 65.0888C87.5847 65.4539 88.6717 65.7134 88.9965 65.7134" stroke="white" stroke-opacity="0.7" stroke-width="2" stroke-linecap="round"/>
</svg>
