<svg width="169" height="175" viewBox="0 0 169 175" fill="none" xmlns="http://www.w3.org/2000/svg">
<path d="M23.7288 111.943C24.0903 110.997 24.9436 110.537 25.568 109.843C26.248 109.088 26.7692 108.08 27.6805 107.662C29.3087 106.914 30.8535 106.953 32.5266 106.471C36.6423 105.284 40.1362 100.705 43.4587 97.8108C46.9334 94.7837 52.0142 93.3962 56.088 93.9158C60.0035 94.4152 65.9885 94.7024 68.1097 98.9672C70.164 103.097 72.1348 108.141 70.6116 113.277C70.0463 115.183 69.4811 117.088 68.9158 118.994C68.3521 120.895 67.1575 122.426 66.0562 123.975C63.227 127.953 60.1946 131.807 57.9334 136.26C56.2202 139.633 54.5236 143.011 52.5122 146.195C51.5248 147.758 49.8263 149.797 49.303 151.561" stroke="#433878" stroke-width="8" stroke-linecap="round"/>
<path d="M95.4927 160.265C95.6274 159.278 95.2716 158.178 95.3085 157.157C95.366 155.566 95.4815 153.937 95.4614 152.354C95.4196 149.054 94.5382 145.807 93.1305 143.107C91.2778 139.554 88.3474 135.64 88.3484 131.125C88.3495 126.532 90.9654 121.121 93.5177 117.426C94.6909 115.727 95.6196 113.695 96.2129 111.695C96.7017 110.047 96.921 108.837 98.3296 107.914C102.103 105.443 106.309 107.233 109.803 109.129C115.636 112.295 121.385 116.709 125.422 122.513C126.921 124.669 128.029 126.354 128.552 129.156C129.061 131.876 128.758 134.491 128.641 137.248C128.494 140.691 127.645 144.622 127.035 148.069C126.634 150.332 126.604 152.689 125.949 154.899" stroke="#433878" stroke-width="8" stroke-linecap="round"/>
<path d="M31.7816 104.927C32.3883 102.881 31.6287 100.838 31.2111 98.8803C30.4488 95.3061 30.3805 91.5503 30.3331 87.8116C30.308 85.8346 30.7283 81.6864 32.0859 80.0375C34.1279 77.5574 34.8635 74.4017 35.7908 71.2751C36.2777 69.6337 36.4198 67.8489 36.6879 66.1533C37.135 63.3252 37.9416 60.6679 38.7572 57.918C40.1576 53.1966 42.0561 49.7308 44.8785 45.8559C47.4182 42.3692 49.7156 39.012 53.3137 36.9454C55.5065 35.6859 57.166 34.5447 59.5377 33.8118C61.9224 33.0749 64.4819 32.7426 66.9012 32.6162C68.7937 32.5174 70.7686 32.1819 72.6565 31.8089C76.417 31.066 80.3319 31.5512 84.058 31.6804C91.2074 31.9284 98.2663 33.7875 105.348 34.6153C108.205 34.9493 111.037 35.4049 113.878 35.8231C118.56 36.5122 122.59 39.2645 126.555 41.836C132.231 45.5181 138.031 48.9443 140.445 56.3398C142.126 61.4871 140.76 66.64 140.19 72.0684C139.993 73.9464 139.445 75.7451 139.355 77.6331C139.25 79.855 139.104 82.0996 139.173 84.3057C139.311 88.6626 139.79 92.889 139.55 97.2991C139.212 103.485 138.31 111.398 134.73 116.719C133.476 118.583 131.446 119.915 129.914 121.397" stroke="#433878" stroke-width="8" stroke-linecap="round"/>
<path d="M130.801 42.8997C131.199 41.5583 131.475 40.4719 132.336 39.4038C133.203 38.3276 134.319 36.7126 135.537 36.2064C137.039 35.5829 138.506 35.0217 140.021 34.4668C141.138 34.0575 142.478 34.0304 143.532 33.5817C144.967 32.971 146.4 33.39 147.854 33.1329C149.53 32.8364 150.563 32.5977 152.183 33.0782C156.494 34.3566 159.806 37.7549 160.504 43.0565C160.743 44.8742 160.891 46.5688 160.875 48.4237C160.856 50.7256 160.445 53.1377 160.668 55.4153C160.853 57.308 161.22 59.3692 160.977 61.3192C160.643 63.9882 160.048 67.7787 158.455 70.0081C155.66 73.919 150.668 76.3591 146.564 77.1917C145.223 77.4638 143.905 77.6484 142.569 77.9824C141.859 78.1601 140.919 78.1013 140.354 78.6477" stroke="#433878" stroke-width="8" stroke-linecap="round"/>
<path d="M71.3461 30.261C70.9281 28.9425 71.1198 26.8994 70.9254 25.4341C70.6748 23.546 69.8707 21.4151 69.121 19.7724C67.843 16.9723 65.9717 12.3395 63.0756 11.3506C61.9368 10.9618 60.934 10.1277 59.7035 9.7627C57.8049 9.19958 55.9804 8.36454 54.0658 7.79665C53.0352 7.49098 50.9669 7.12612 49.908 7.73897C49.1546 8.17499 48.3556 8.6007 47.6445 9.12479C47.0083 9.5937 46.4802 10.4926 45.7953 10.6988C45.1566 10.891 44.6156 11.4989 43.9703 11.7248C42.9411 12.0852 41.7921 12.5986 40.9125 13.3649C39.2441 14.8185 37.3491 16.376 36.3024 18.5609C35.3003 20.6528 34.7252 22.8532 34.0645 25.0808C32.9891 28.7066 31.9024 32.3992 31.7149 36.1718C31.6156 38.1689 31.9207 39.7767 32.4087 41.5695C33.004 43.7565 34.6066 45.0604 35.4661 47.0152C36.1104 48.4805 37.0346 48.5906 38.4162 49.0004C39.3939 49.2904 40.0356 50.0685 41.0006 50.3547" stroke="#433878" stroke-width="8" stroke-linecap="round"/>
<path d="M55.2528 89.5537C55.8411 87.5702 57.9736 86.7492 59.3423 85.4605C61.1247 83.7823 63.4358 83.0521 65.6551 83.0063C66.9698 82.9792 68.0498 82.7696 69.2932 83.1384C70.9038 83.6161 72.3331 83.8085 74.0341 83.7936C77.9468 83.7592 81.5037 80.0722 85.4686 81.1768C94.1236 83.5881 103.196 85.8634 108.483 94.4684C109.395 95.9526 109.239 98.3004 109.75 99.9869C110.023 100.89 109.485 103.166 110.019 103.74" stroke="#FF9D00" stroke-width="4" stroke-linecap="round"/>
<path d="M57.8249 143.803C58.6561 144.189 59.3306 145.265 60.2445 145.713C61.3657 146.262 62.5699 146.688 63.651 147.278C66.6273 148.903 69.9564 149.888 73.2823 150.461C74.3093 150.638 75.3844 150.518 76.3821 150.777C77.6213 151.098 78.9942 150.713 80.1802 151.021C81.8035 151.444 83.7772 150.695 85.333 151.08C86.5129 151.373 87.901 151.344 89.0804 150.657C89.6992 150.297 90.315 149.681 90.9664 149.519" stroke="#FF9D00" stroke-width="4" stroke-linecap="round"/>
<path d="M84.9762 108.022C83.8842 107.698 82.7813 107.374 81.6137 107.504C81.0491 107.567 80.5773 108.034 80.1199 108.346C79.5245 108.753 79.0935 109.195 78.6537 109.809C77.5362 111.368 76.4379 112.946 75.448 114.602C75.1228 115.147 74.9851 115.755 74.8028 116.37C74.6004 117.052 74.7017 117.651 74.7236 118.341C74.7503 119.186 75.2165 119.831 75.5517 120.515C76.3399 122.124 77.6516 123.138 79.1285 123.805C80.3253 124.346 81.9193 124.45 83.0394 123.333C83.9012 122.473 84.9966 122.027 85.8129 121.074C86.5677 120.193 87.3741 119.109 87.8425 118.003C88.1705 117.229 88.5978 116.527 89.0037 115.792C89.3379 115.186 89.8212 114.754 90.0271 114.06C90.5255 112.38 89.0734 110.86 88.0889 109.934C87.0114 108.921 85.5676 108.205 84.0855 108.359C83.6409 108.406 83.1905 108.501 82.7484 108.6C81.6234 108.854 80.5496 110.415 79.8722 111.395C79.2339 112.318 78.7184 113.496 78.5485 114.634C78.4493 115.299 78.9673 115.769 79.2958 116.193C79.6719 116.678 80.4255 116.907 81.0061 116.863C81.7211 116.809 82.4031 116.235 83.0233 115.829C83.5944 115.455 84.1621 115.079 84.7102 114.656C85.3241 114.183 86.2592 113.591 86.5291 112.747C86.756 112.037 86.4321 111.53 85.8292 111.32C84.0667 110.705 82.4488 111.625 81.2269 113.235C80.4595 114.246 79.3858 115.623 79.5878 117.014C79.6459 117.414 79.8553 117.767 79.958 118.154C80.0976 118.68 80.2868 118.8 80.6768 119.051C81.6706 119.69 82.3818 119.533 83.4161 118.874C83.991 118.507 84.4197 118.087 84.9259 117.628C85.4261 117.174 85.4304 116.845 84.9134 116.563C83.9843 116.056 82.8975 115.716 81.8747 115.478C81.3667 115.36 81.0117 115.427 80.547 115.717C79.9401 116.096 79.1542 116.395 78.6675 116.986C78.4652 117.231 78.4021 117.521 78.2345 117.775C78.0421 118.068 78.1623 118.264 78.2141 117.713C78.2559 117.27 78.2331 116.863 78.3599 116.435" stroke="#FF9D00" stroke-width="4" stroke-linecap="round"/>
<path d="M86.7787 111.381C86.9409 111.082 87.4271 111.834 87.4832 111.933C87.7097 112.334 87.8505 112.751 87.9484 113.22C88.1253 114.067 88.0231 114.868 87.7497 115.729C87.4822 116.571 86.6664 117.329 86.0189 117.754C85.7102 117.956 84.2982 117.999 84.2412 117.493C84.2246 117.346 84.3047 116.857 84.4371 116.784C84.9789 116.486 85.5247 116.318 86.0024 115.838C86.3243 115.514 86.6499 114.571 86.6653 114.11C86.7029 112.988 86.1239 112.065 86.4672 110.908" stroke="white" stroke-width="2" stroke-linecap="round"/>
<path d="M80.9469 121.245C80.8882 121.237 80.7089 121.473 80.7421 121.549C80.7916 121.661 81.0218 121.51 80.9054 121.385" stroke="white" stroke-width="2" stroke-linecap="round"/>
<path d="M83.6497 75.9474C83.9548 75.7215 84.2777 75.0767 84.5062 74.7531C85.0004 74.0534 85.6829 73.4699 86.3516 73.0147C87.4816 72.2453 88.3905 71.3731 89.7003 71.3382C91.6642 71.2859 93.2587 73.6792 94.418 75.0582C94.8691 75.5947 95.4237 77.4955 95.172 78.3441C94.8983 79.267 93.3083 78.3267 92.8865 77.9803C91.8677 77.1438 90.4256 77.3399 89.3476 76.6864C88.625 76.2483 87.7548 75.9884 86.9033 75.9614C86.5628 75.9506 86.0728 75.8808 85.7581 75.7875C85.5433 75.7238 84.7609 75.8906 84.9209 75.6962" stroke="#433878" stroke-width="4" stroke-linecap="round"/>
<path d="M89.8282 75.7384C89.315 75.5862 88.5789 76.3059 88.0032 76.2877C87.8177 76.2818 87.0604 76.1607 87.6366 76.1789C88.0048 76.1906 88.2896 76.2243 88.6547 76.3326C90.0249 76.739 91.3713 77.2954 92.7062 77.6913" stroke="#433878" stroke-width="4" stroke-linecap="round"/>
<path d="M92.2056 75.3441C90.9006 74.8593 89.8567 73.666 88.5261 73.1797C87.9877 72.9829 88.2479 73.5796 88.7633 73.4507C89.9341 73.1579 91.1166 74.0789 92.218 74.4056" stroke="#433878" stroke-width="4" stroke-linecap="round"/>
<path d="M72.1384 64.9951C71.3433 64.8579 70.9205 66.4297 70.9469 67.1194C70.9753 67.8605 71.9915 68.5594 72.5648 68.1402C73.086 67.7592 73.2046 66.7803 73.391 66.1518C73.6231 65.369 72.6635 65.3078 72.2178 65.1757" stroke="#433878" stroke-width="4" stroke-linecap="round"/>
<path d="M105.371 69.5123C104.627 70.0632 104.308 70.3376 104.475 71.2881C104.585 71.9168 105.568 72.964 106.189 72.5818C106.805 72.2025 107.375 71.0067 107.256 70.2286C107.13 69.3993 105.955 69.1335 105.334 69.1874" stroke="#433878" stroke-width="4" stroke-linecap="round"/>
<path d="M72.7613 67.3784C72.5263 67.3448 72.3237 68.0594 72.6694 68.1363C73.0378 68.2183 73.07 67.4734 72.9263 67.2703" stroke="white" stroke-opacity="0.7" stroke-width="2" stroke-linecap="round"/>
<path d="M105.101 71.3171C104.997 71.6682 104.774 72.1256 104.966 72.446C105.148 72.7502 105.663 72.7703 105.834 72.407C106.166 71.7046 106.262 71.1901 105.596 70.9928" stroke="white" stroke-opacity="0.7" stroke-width="2" stroke-linecap="round"/>
<path d="M55.8216 89.5222C56.2793 87.9792 57.0801 87.0948 57.992 85.8909C58.4435 85.2948 59.2202 84.8007 59.7674 84.2887C60.2967 83.7933 60.9367 83.6584 61.5531 83.4486C62.9617 82.969 64.4065 82.9646 65.8128 82.9846C66.7543 82.9979 67.638 83.4547 68.5736 83.4893C69.5995 83.5273 70.5932 84.3232 71.6485 84.1309C73.0447 83.8765 74.4988 83.8913 75.8892 83.3821C76.5531 83.1389 77.1677 82.8819 77.8267 82.5782C78.5445 82.2475 79.3771 82.2718 80.1084 82.0336C81.3154 81.6404 82.6357 81.5115 83.8445 81.4666C85.6128 81.401 87.3564 82.2291 89.0266 82.7245C90.6924 83.2185 92.3582 83.7126 94.024 84.2067C94.9068 84.4685 95.998 84.7653 96.7844 85.261C97.4486 85.6797 98.2705 85.8526 98.8949 86.3145C99.4464 86.7224 100.164 86.9481 100.661 87.4317C101.033 87.7935 101.748 87.9785 102.011 88.4602C102.263 88.9222 102.878 89.0395 103.211 89.4444C103.601 89.9171 104.448 90.2956 104.94 90.6639C105.41 91.015 105.814 91.4994 106.239 91.9129C106.59 92.2543 106.846 92.8397 107.211 93.1435C107.714 93.5619 107.812 94.4145 108.286 94.8755C108.6 95.1811 108.76 96.2147 109.105 96.3747C109.352 96.4896 109.771 97.8532 109.794 98.1845C109.845 98.9336 110.171 99.6186 110.179 100.375C110.191 101.575 110.329 102.751 110.313 103.957" stroke="white" stroke-opacity="0.7" stroke-width="2" stroke-linecap="round"/>
<path d="M57.4776 143.564C57.655 143.647 57.8062 144.024 58.0377 144.167C58.3249 144.344 58.5784 144.538 58.8619 144.725C59.5755 145.196 60.3704 145.65 61.1683 145.915C62.1696 146.249 63.1705 147.074 64.0953 147.604C64.8917 148.06 65.7194 148.522 66.5972 148.782C69.4917 149.641 72.4287 150.821 75.4242 151.051C76.8452 151.161 78.2998 151.194 79.7265 151.141C80.3694 151.117 81.2833 151.253 81.8993 151.436C82.4689 151.605 83.0751 151.492 83.6689 151.647C84.7561 151.93 86.7772 151.925 87.8857 151.327C88.4102 151.045 88.9784 151.163 89.5237 150.836C89.9263 150.594 90.4208 150.472 90.7644 150.14" stroke="white" stroke-opacity="0.7" stroke-width="2" stroke-linecap="round"/>
<path d="M49.1266 151.657C49.5038 150.385 50.3867 149.407 51.0568 148.306C51.7669 147.14 52.2732 145.76 52.9872 144.578C53.5097 143.712 54.0536 142.718 54.499 141.774C54.6878 141.374 55.0757 141.04 55.2726 140.623C55.5275 140.083 55.978 139.289 56.3574 138.828C56.7344 138.37 56.8769 137.752 57.1811 137.238C57.779 136.227 58.2914 135.168 58.8667 134.146C59.5507 132.93 60.2113 131.77 60.9518 130.624C62.3604 128.443 63.8958 126.413 65.2905 124.254C66.5246 122.343 68.1653 120.984 68.8505 118.674C69.2588 117.297 69.5424 115.855 69.9422 114.507C70.4399 112.829 70.3589 111.055 70.7465 109.367C71.269 107.091 70.5254 104.934 70.2513 102.887C70.0246 101.193 68.8391 99.7991 67.7681 98.7374C66.4715 97.4522 64.9971 96.1289 63.2304 95.6049C62.1931 95.2972 61.1558 94.9896 60.1184 94.6819C59.4427 94.4815 58.2108 93.7842 57.513 93.9942C56.7012 94.2385 55.7309 94.1099 54.9007 94.193C53.8228 94.3009 52.6241 94.5191 51.5748 94.3693C50.6498 94.2373 49.3314 94.566 48.4077 94.8195C47.3292 95.1155 46.544 96.0744 45.5398 96.474C45.2852 96.5752 44.812 97.0951 44.6398 97.3225C44.1214 98.0068 43.5696 98.5186 42.9644 99.0849C41.9548 100.03 40.8542 101.407 39.7022 102.069C39.2386 102.335 38.8302 102.947 38.4008 103.299C37.8166 103.778 37.1664 104.205 36.6123 104.688C35.9297 105.282 35.2075 105.689 34.4967 106.234C33.6284 106.901 32.2869 107.032 31.3144 107.276C30.6254 107.448 29.4596 107.879 28.815 107.688C27.9472 107.43 27.1323 108.258 26.3346 108.521C25.3947 108.831 24.8289 110.337 24.1393 111.065" stroke="white" stroke-opacity="0.7" stroke-width="2" stroke-linecap="round"/>
<path d="M95.8865 161.102C95.3321 160.844 95.5437 158.611 95.6367 158.031C95.8502 156.698 95.7374 155.407 95.6464 154.139C95.4791 151.806 95.3122 149.718 94.6554 147.55C94.3834 146.651 94.2559 145.611 94.0123 144.806C93.6985 143.77 93.151 142.881 92.9715 141.785C92.8254 140.892 92.0943 139.891 91.6596 139.165C91.1176 138.259 90.6466 137.347 89.993 136.553C89.6854 136.179 89.509 135.365 89.3059 134.903C89.0904 134.413 88.7881 133.933 88.6959 133.37C88.514 132.259 88.3471 131.395 88.4667 130.23C88.7067 127.893 89.3436 125.647 90.3084 123.535C90.8425 122.366 91.3206 121.115 92.1216 120.093C92.3756 119.769 92.4938 119.367 92.6972 119.016C92.8656 118.726 93.2058 118.473 93.3257 118.219C93.7261 117.371 94.2574 116.591 94.6414 115.726C95.7139 113.311 96.0937 110.62 97.4003 108.368C97.8039 107.672 98.8966 107.051 99.5843 106.86C100.98 106.473 102.021 106.77 103.381 107.174C104.948 107.638 106.596 107.993 108.007 108.848C108.323 109.04 108.72 109.083 109.061 109.208C109.582 109.399 110.02 109.805 110.538 109.977C111.365 110.252 112.166 110.646 112.896 111.149C113.509 111.571 114.199 111.881 114.825 112.307C115.544 112.796 116.117 113.545 116.781 114.078C117.363 114.546 117.847 115.18 118.46 115.597C118.97 115.944 119.699 116.332 120.128 116.773C121.161 117.833 122.232 118.88 123.382 119.78C124.423 120.593 125.185 122.027 126.047 123.047C126.696 123.814 127.117 124.774 127.592 125.717C127.844 126.217 128.067 127.017 128.148 127.621C128.224 128.185 128.394 129.25 128.687 129.691C128.828 129.903 128.693 130.31 128.712 130.577C128.736 130.904 128.907 131.261 128.952 131.603C129.027 132.172 129.036 132.804 129.22 133.346C129.639 134.585 129.136 136.074 129.275 137.314C129.432 138.705 128.792 140.51 128.393 141.855C127.939 143.384 127.737 144.909 127.323 146.434C127.059 147.403 127.136 148.412 126.875 149.402C126.685 150.12 126.711 150.927 126.5 151.635C126.104 152.97 126.288 154.293 126.182 155.624" stroke="white" stroke-opacity="0.7" stroke-width="2" stroke-linecap="round"/>
<path d="M71.8099 31.6859C71.2679 31.6086 70.3959 32.2441 69.7768 32.3291C68.2737 32.5354 66.7864 32.5054 65.2913 32.6009C63.3827 32.7228 61.5624 32.6493 59.71 33.3488C58.1692 33.9306 56.4214 34.2408 55.0021 35.2458C53.6103 36.2314 52.341 37.2154 51.0609 38.3693C48.2969 40.8609 45.7293 43.8871 43.9901 47.3293C42.4013 50.4741 40.798 53.4049 39.7735 56.859C38.5891 60.8521 37.5368 64.9081 36.3583 68.8814C35.833 70.6525 35.6104 72.4196 35.0797 74.2089C34.7892 75.1881 34.4562 76.0423 34.0002 76.9448C33.5003 77.9342 32.6563 78.75 32.2191 79.7594C31.5588 81.2841 30.631 83.0085 30.6253 84.7659C30.6193 86.6251 30.6126 88.5659 30.8496 90.3907C31.1543 92.738 30.7747 95.2327 31.1974 97.5753C31.4859 99.1742 31.6675 100.77 32.0207 102.31" stroke="white" stroke-opacity="0.7" stroke-width="2" stroke-linecap="round"/>
<path d="M75.939 31.4863C76.9345 31.7816 78.0248 31.0369 79.0011 31.3264C80.1942 31.6803 81.8644 31.9927 83.1377 31.9204C84.8316 31.8242 86.5179 32.6753 88.2011 32.3541C88.9832 32.2048 89.8419 32.2275 90.585 32.4479C91.6623 32.7675 92.7542 32.8592 93.8506 33.0704C94.7655 33.2465 95.4528 33.5747 96.4103 33.5032C97.1359 33.4491 97.8693 33.2096 98.5857 33.3968C100.171 33.8109 101.78 33.9881 103.363 34.4576C104.38 34.7592 105.634 34.9263 106.688 35.0482C107.532 35.1458 108.541 35.1376 109.347 35.3425C110.403 35.6111 111.438 35.8199 112.49 36.0966C113.139 36.2674 113.801 36.1294 114.45 36.3219C115.636 36.6738 116.839 36.9693 117.937 37.5243C118.647 37.8834 119.393 38.1902 120.118 38.5273C120.775 38.8322 121.34 39.2881 121.989 39.6163C122.64 39.9451 123.635 40.4825 124.124 41.0604C124.647 41.6795 125.562 41.5704 126.166 42.0223C127.436 42.9713 128.944 43.494 130.142 44.6258C131.179 45.6055 132.197 46.2998 133.116 47.4167C134.339 48.9013 136.169 49.4767 137.429 50.8322C138.428 51.9061 139.549 52.8277 139.771 54.5136C139.953 55.8989 140.271 57.1624 140.573 58.5295C140.759 59.3742 140.835 60.3235 140.823 61.2148C140.815 61.7904 141.044 62.5311 140.87 63.1177C140.721 63.6203 140.807 64.4608 140.84 64.9683C140.889 65.707 140.505 66.6513 140.606 67.312C140.755 68.288 140.133 69.4164 140.286 70.4217C140.36 70.9055 140.203 71.4663 140.057 71.956C139.862 72.6157 139.898 73.2523 139.784 73.9222C139.592 75.0528 139.838 76.2531 139.509 77.3616C139.22 78.3375 139.372 79.9348 139.467 80.9491C139.577 82.1336 139.037 83.5611 139.272 84.7682C139.394 85.3969 139.262 86.2033 139.332 86.8826C139.4 87.5565 139.313 88.2627 139.361 88.9288C139.458 90.2875 139.339 91.672 139.621 93.0214C139.92 94.453 139.645 96.2292 140.058 97.5916C140.214 98.1079 140.015 99.3626 139.967 99.9581C139.902 100.776 139.875 101.849 139.936 102.659C140.124 105.129 139.712 107.172 139.003 109.562C138.501 111.253 138.152 113.416 137.04 114.766C136.385 115.562 135.661 116.761 134.909 117.378C134.168 117.986 133.615 118.897 132.675 119.208C131.797 119.497 130.883 120.304 130.025 120.518" stroke="white" stroke-opacity="0.7" stroke-width="2" stroke-linecap="round"/>
<path d="M131.547 40.6808C131.808 39.8006 132.234 38.8283 132.908 38.2362C133.643 37.5904 134.553 37.3782 135.283 36.725C135.788 36.2719 136.725 36.0435 137.313 35.7249C138.051 35.3249 138.742 34.7666 139.55 34.6478C140.298 34.5377 141.058 34.3565 141.801 34.2868C142.799 34.1932 143.912 34.3362 144.892 34.0565C146.838 33.5009 148.94 33.5716 150.842 33.9024C152.036 34.1102 153.209 34.6422 154.427 34.6889C155.151 34.7167 155.951 35.0552 156.544 35.4554C157.644 36.1974 158.042 37.6259 158.825 38.6638C159.162 39.1095 159.138 40.0123 159.47 40.5562C159.782 41.0672 160.171 41.7206 160.293 42.3532C160.422 43.0156 160.467 43.8044 160.652 44.418C160.821 44.9745 160.3 45.9765 160.281 46.5727C160.214 48.7185 159.745 50.8666 159.673 53.0286C159.614 54.7973 159.696 56.8054 160.02 58.5217C160.218 59.5696 160.168 60.8553 160.206 61.9595C160.228 62.5871 160.46 63.6436 160.279 64.2557C159.755 66.0215 159.885 68.1238 158.677 69.6555C158.102 70.3849 157.642 71.3714 156.916 71.9223C155.999 72.6184 154.895 73.3608 154.033 74.133C153.34 74.7539 152.363 75.1173 151.58 75.5418C150.85 75.9377 150.002 76.3401 149.235 76.587C147.781 77.0552 146.455 77.7704 144.968 78.0413C143.975 78.2224 143.006 78.3791 142.075 78.8744" stroke="white" stroke-opacity="0.7" stroke-width="2" stroke-linecap="round"/>
<path d="M38.7945 49.4872C37.3008 49.0441 36.5371 48.318 35.5982 46.9369C34.9078 45.9213 34.678 44.6763 33.8524 43.7883C31.9807 41.7753 30.9373 37.8622 31.8465 34.7966C32.3538 33.0865 31.8925 31.0842 32.4055 29.3546C32.648 28.5369 32.5964 27.6946 32.8402 26.8725C33.1652 25.7767 33.3401 24.6788 33.6696 23.5679C34.6902 20.1269 36.6054 15.9447 39.4054 13.8855C42.0976 11.9056 45.0331 10.5553 47.9378 9.1172C48.8764 8.65254 49.8976 8.52218 50.8554 8.20233C51.8401 7.87349 52.7857 8.25582 53.7543 8.31049C55.6689 8.41855 57.6923 8.69774 59.2635 9.89509C62.247 12.1686 66.7729 13.1059 68.526 17.093C70.0416 20.5399 72.2672 24.5536 71.0138 28.7794" stroke="white" stroke-opacity="0.7" stroke-width="2" stroke-linecap="round"/>
<path d="M71.8618 53.0172C72.0201 52.6233 72.8732 51.965 73.1985 51.806C73.7937 51.5151 74.452 51.0148 75.1261 51.2148C75.5013 51.3261 75.9209 51.3954 76.2751 51.5641C76.75 51.7903 77.1452 52.2311 77.6157 52.415C78.3593 52.7055 78.5758 53.7068 79.0615 54.2291" stroke="#433878" stroke-width="2" stroke-linecap="round"/>
<path d="M103.613 58.8946C104.191 56.9466 106.211 56.3539 107.569 57.1775C108.251 57.591 109.96 58.3555 110.124 59.3547C110.168 59.6259 110.156 59.9949 110.25 60.2473C110.377 60.5867 110.081 61.2779 110.274 61.4857" stroke="#433878" stroke-width="2" stroke-linecap="round"/>
<path d="M144.432 46.0659C144.652 45.5181 145.851 45.575 146.262 45.6082C147.307 45.6925 148.3 45.8851 149.253 46.3412C151.015 47.1852 152.052 49.0134 152.61 51.1082C152.811 51.862 152.68 52.3438 152.572 53.1151C152.35 54.7126 152.43 56.3108 152.455 57.9034C152.497 60.5127 153.509 62.9193 151.002 64.5614C149.635 65.4569 148.753 64.1121 148.315 62.9521C148.024 62.182 147.998 61.2927 147.632 60.5433C147.208 59.673 147.336 58.6831 147.162 57.7357C146.936 56.5093 146.981 55.2537 146.857 54.0025C146.749 52.9143 146.332 51.9625 145.935 51.0095C145.563 50.1187 144.846 49.1707 144.752 48.1618C144.703 47.6404 144.71 47.4208 144.561 46.9507C144.512 46.7955 145.276 46.6608 145.482 46.6766C146.2 46.7318 146.221 46.8473 146.763 47.3386C147.236 47.7682 147.606 48.0847 148.211 48.2643C148.551 48.365 148.89 48.4657 149.23 48.5663C149.823 48.7422 149.975 48.41 149.218 48.4091C148.625 48.4083 148.046 48.8281 147.507 49.1244C146.957 49.4273 148.424 50.0206 148.535 50.0535C149.112 50.2246 149.689 50.3956 150.266 50.5667C151.026 50.7922 150.177 51.191 149.801 51.3524C149.578 51.4481 148.486 52.0333 148.558 52.0271C148.926 51.9951 149.453 51.81 149.803 51.661C149.947 51.6001 150.633 51.4453 150.322 51.3531C149.758 51.1859 149.152 51.1599 148.576 50.9892C147.94 50.8004 147.488 49.9984 147.077 49.4757C146.893 49.2407 145.794 48.3212 146.592 48.793C147.429 49.2875 148.27 49.7927 149.066 50.3647C149.417 50.6173 149.49 51.1081 149.834 51.3623C150.146 51.5933 150.649 52.2004 150.804 52.6078C151.005 53.137 149.204 53.5516 148.941 53.7141C147.989 54.3021 148.948 54.4215 149.631 54.2182C149.777 54.1748 150.907 53.6198 150.822 53.9641C150.657 54.6326 149.986 55.1566 149.568 55.6275C149.189 56.0548 149.508 56.1173 149.898 55.9817C150.679 55.7096 150.787 55.5798 150.275 56.5896C150.204 56.7295 149.142 58.905 149.595 58.808C150.253 58.6674 150.392 58.1163 150.081 59.0976C149.909 59.6388 149.625 61.0828 150.245 61.1814C150.672 61.2494 150.969 60.5593 151.06 60.1917C151.393 58.8508 151.52 56.2748 150.596 55.3595C149.64 54.4116 149.048 56.7237 149.132 57.4649C149.236 58.3944 149.47 59.2153 149.721 60.0938C149.813 60.417 149.998 60.5979 150.047 60.9689C150.084 61.2419 150.103 61.6368 150.238 61.8635C150.977 63.098 151.557 61.8756 151.337 60.8211C151.168 60.0151 150.576 60.5636 150.342 61.2956C150.166 61.8432 149.972 62.4568 150.406 62.8367C150.58 62.989 150.905 63.1608 151.126 62.9477C151.889 62.21 151.221 60.1587 150.727 59.58C150.399 59.1956 149.807 59.3373 149.428 59.6393C149.02 59.9648 149.412 60.1268 149.694 59.9148C150.061 59.6385 150.343 58.53 150.226 58.0972C150.037 57.3981 149.525 56.7436 148.99 56.3797C148.795 56.2465 148.427 56.2806 148.537 56.6641C148.74 57.3768 149.321 56.5315 149.491 56.2545C150.236 55.0362 148.888 54.2613 148.719 55.3414C148.598 56.1136 151.221 55.11 150.702 53.9286C150.514 53.5002 150.212 53.2928 149.803 53.2002C149.46 53.1225 149.039 53.5891 149.529 53.7345C150.771 54.103 151.261 51.3373 150.066 50.824C149.834 50.7242 149.092 50.5703 149.343 50.601C149.631 50.636 149.633 49.8501 149.607 49.6872C149.48 48.9113 148.908 48.3169 148.253 48.1228C147.711 47.9619 145.476 47.4094 145.704 48.906C145.785 49.4382 146.426 50.266 146.705 50.7078C147.202 51.497 148.141 52.1313 148.51 52.9706" stroke="#433878" stroke-width="2" stroke-linecap="round"/>
<path d="M43.1566 32.0354C42.526 31.653 43.3065 29.7725 43.4748 29.2052C43.9705 27.5337 44.3206 25.3559 45.2424 23.8804C46.5022 21.8636 48.0029 20.352 50.1737 20.1438C51.7327 19.9942 53.5307 20.3227 54.8113 21.2542C55.9429 22.0773 57.2809 23.0898 57.5853 24.6937C57.6443 25.0051 57.9517 25.5983 57.8695 25.9324C57.7166 26.5534 56.8542 26.67 56.423 26.8545C55.6329 27.1926 54.7253 27.1559 53.9128 27.3841C52.9251 27.6615 51.9343 27.929 50.9445 28.1883C50.1457 28.3976 49.2335 28.6037 48.4795 29.005C47.5519 29.4987 46.5485 29.7793 45.6406 30.3008C44.9767 30.6821 44.1177 31.1324 43.6209 31.7883C43.4486 32.0157 43.0786 31.9803 42.9529 32.2828C42.8149 32.6151 43.0424 31.8247 43.1351 31.6442C43.3864 31.1548 43.8605 30.7794 44.164 30.299C44.4714 29.8124 44.6154 29.2476 44.9657 28.7923C45.3162 28.3366 45.6398 27.5653 45.9132 27.0381C46.3847 26.129 46.9979 25.3532 47.4885 24.461C47.8419 23.8182 48.1038 23.2652 48.3132 22.5593C48.3688 22.3718 48.4315 22.1881 48.2537 22.516C47.8331 23.2914 47.3097 23.981 46.9054 24.767C46.7619 25.046 45.3052 27.7977 45.6111 27.9832C46.5021 28.5234 47.8784 27.1926 48.4558 26.424C49.1257 25.5321 49.5795 24.2024 49.8495 23.0919C50.1378 21.9065 47.9988 24.8517 47.8126 26.0537C47.7371 26.5407 48.3138 26.6384 48.5988 26.723C49.3653 26.9503 49.9782 26.9801 50.553 26.1396C51.2009 25.1922 51.0994 23.7399 50.1177 23.3596C48.5563 22.7547 46.9956 25.3412 48.3882 26.4809C49.7752 27.6162 50.8101 26.4446 51.2921 24.8196C51.5097 24.0857 51.3683 23.199 50.5297 23.191C49.9955 23.186 49.4178 23.7174 49.2456 24.2981C48.9735 25.2154 50.138 25.7396 50.7674 25.7585C51.4246 25.7783 52.3418 24.6565 52.077 23.9065C51.9306 23.492 51.5681 23.199 51.2839 22.9187C51.1927 22.8289 50.4244 22.4322 50.5139 22.3654C51.7067 21.4758 53.2753 22.6833 54.1473 23.2977C54.3478 23.439 54.4348 23.8005 54.6893 23.9117C55.0216 24.0569 55.4181 24.4797 55.6871 24.7464C55.9127 24.97 56.2765 24.9764 56.5579 25.0816C56.8113 25.1764 55.9671 25.6965 55.8269 25.7884C54.883 26.4067 54.2066 26.2921 53.2171 26.4338C53.0439 26.4586 53.5676 25.8717 53.6399 25.7896C53.9546 25.4321 54.2959 25.0841 54.6292 24.749C55.4366 23.937 53.4957 24.4355 53.1779 24.6863C52.9012 24.9046 52.6943 25.3137 53.1835 25.2779C53.6621 25.2429 54.5193 24.3211 54.5755 23.7582C54.6518 22.9938 53.4804 24.3321 53.4765 24.3387C53.2763 24.6757 52.6686 25.7513 53.0249 26.1544C53.2939 26.4589 53.9707 25.8304 54.1591 25.6015C56.2654 23.0433 51.0049 20.0918 50.1878 23.7823C49.9347 24.9256 51.9215 24.8834 52.4163 24.3492C53.0197 23.6977 53.1976 22.4534 52.3652 22.1534C51.3278 21.7796 48.5783 21.6482 48.4624 23.5698C48.3592 25.2822 50.447 24.7924 51.2995 24.2574C52.4436 23.5393 52.1725 22.8313 51.0926 22.5627C50.054 22.3044 47.259 22.8635 46.8569 24.3934C46.667 25.116 47.339 25.0257 46.616 25.7671C45.8751 26.5269 44.9289 26.9391 44.5922 28.0743C44.3963 28.7346 44.2005 29.3948 44.0047 30.055C43.9138 30.3616 43.8228 30.6681 43.7319 30.9746C43.5296 31.6569 43.9732 31.0446 44.295 30.8338" stroke="#433878" stroke-width="2" stroke-linecap="round"/>
<path d="M117.015 82.5871C116.068 82.6563 115.227 83.0297 115.092 84.3501C114.987 85.3743 117.479 85.7843 117.924 85.9165C119.434 86.3642 123.885 86.4184 124.602 84.0031C125.854 79.78 117.676 81.3302 115.856 82.5217" stroke="#F36A48" stroke-opacity="0.3" stroke-width="4" stroke-linecap="round"/>
<path d="M62.3775 73.0569C61.6566 72.3555 60.1775 71.9098 59.2822 71.5825C58.6011 71.3336 57.7928 70.9943 57.0585 71.1393C54.946 71.5567 52.9643 73.9991 55.8086 75.2652C56.596 75.6157 57.4927 75.7802 58.3178 76.0249C58.9736 76.2194 59.6375 75.737 60.2812 75.7574C61.5639 75.798 62.6711 73.3913 61.5874 72.5444" stroke="#F36A48" stroke-opacity="0.3" stroke-width="4" stroke-linecap="round"/>
<path d="M149.313 50.6834C149.313 50.0897 149.274 49.6854 149.017 49.1435C148.904 48.9061 148.364 48.0038 148.402 48.3662C148.508 49.3677 149.334 50.2954 149.55 51.3053C149.76 52.2878 149.979 53.2223 149.979 54.2295C149.979 55.7916 149.979 57.3537 149.979 58.9157C149.979 59.5891 149.713 60.1955 149.713 60.8776C149.713 61.6641 149.89 62.0991 150.246 62.8098" stroke="#433878" stroke-width="5" stroke-linecap="round"/>
<path d="M51.6351 26.1639C51.6351 25.3993 49.5325 26.7257 49.2365 26.8302C48.7367 27.0066 47.9849 27.2336 47.5708 27.5557C47.5015 27.6096 47.1202 27.7619 47.1932 27.689C47.5583 27.3238 48.1038 27.1634 48.4887 26.7784C49.0133 26.2538 49.9092 25.7332 50.5987 25.468C51.1302 25.2636 51.5887 24.7883 52.1681 24.7055C52.8667 24.6057 54.4767 24.6117 54.8333 23.8986" stroke="#433878" stroke-width="5" stroke-linecap="round"/>
<path d="M84.683 114.381C84.2231 115.473 83.6331 116.488 83.1506 117.579C83.0779 117.743 82.6764 118.347 82.7212 118.549C82.7714 118.775 83.1521 118.332 83.2838 118.141C83.924 117.217 84.1801 116.055 84.2685 114.951C84.313 114.393 84.278 113.827 84.4461 113.285C84.6308 112.69 84.3794 114.799 84.3425 115.047C84.2202 115.867 84.3377 116.952 83.9575 117.712C83.7495 118.128 83.3104 118.418 83.0839 118.837C82.6617 119.618 81.7639 121.196 80.7519 121.303C79.773 121.406 79.4591 119.959 78.7161 119.474C78.0104 119.014 78.0334 118.59 78.5828 117.816C80.1255 115.642 82.246 113.77 83.6762 111.523C84.0042 111.007 84.6047 110.924 85.1865 111.079C85.9042 111.27 86.0604 111.812 86.4154 112.411C86.9367 113.291 86.9484 114.72 86.9484 115.713C86.9484 116.315 86.8489 116.764 86.445 117.209C86.1951 117.483 85.9036 118.101 85.6158 118.245" stroke="#FF9D00" stroke-width="5" stroke-linecap="round"/>
<path d="M87.5275 111.638C88.3214 111.638 88.5964 113.318 88.5964 113.906C88.5964 115.089 88.5113 115.963 87.8482 116.958C87.3457 117.712 86.4534 118.728 85.6274 119.096C84.8768 119.429 84.1073 119.902 84.1073 118.745C84.1073 118.308 84.8553 117.789 85.2296 117.623C85.7305 117.4 86.2225 116.684 86.5122 116.234C87.3428 114.941 87.2069 113.533 87.2069 112.065" stroke="white" stroke-width="3" stroke-linecap="round"/>
<path d="M80.4733 122.86V123.074" stroke="white" stroke-width="3" stroke-linecap="round"/>
</svg>
