<svg width="156" height="174" viewBox="0 0 156 174" fill="none" xmlns="http://www.w3.org/2000/svg">
<path d="M8.85315 40.9749C8.85315 42.6869 11.39 44.5534 12.499 45.6624C16.3597 49.5231 21.061 51.6936 25.925 54.0151C32.6027 57.2022 39.1218 60.241 46.3533 61.982C49.6863 62.7843 52.9173 63.7844 56.2685 64.509C57.433 64.7608 56.5424 64.4599 55.8827 64.7598C55.0653 65.1313 53.8386 65.3741 52.9506 65.6278C51.786 65.9606 50.7358 67.4954 49.9027 68.3284C47.7926 70.4386 45.4263 72.7453 43.7299 75.1958C41.1567 78.9125 38.0248 82.4078 35.6666 86.2298C34.3858 88.3054 32.8882 90.3981 32.1172 92.7113" stroke="#433878" stroke-width="8" stroke-linecap="round"/>
<path d="M7.46418 40.2805C7.46418 46.6672 7.38835 52.9266 10.242 58.8377C11.158 60.7352 12.226 62.5504 13.0969 64.4704C14.7787 68.1779 16.9885 71.2138 19.1155 74.6556C20.6025 77.0619 22.2253 79.3661 23.8609 81.6773C25.2104 83.5842 26.106 85.8885 27.526 87.6958C29.9206 90.7435 31.8854 94.9161 34.7213 97.5338C37.6908 100.275 41.0523 103.206 44.6171 105.211C49.5223 107.97 54.6962 110.381 59.8178 112.657C62.9953 114.07 65.9745 115.672 69.2315 116.94C71.0986 117.667 72.9554 118.698 74.6327 119.795C78.0057 122 80.9822 124.499 84.2007 126.913C86.5462 128.672 88.8726 130.398 91.1259 132.276C92.2109 133.18 93.5172 133.674 94.4631 134.706C96.5099 136.939 97.0278 132.894 97.8196 131.523C99.7619 128.162 101.39 124.641 103.298 121.261C106.574 115.457 111.491 111.602 116.126 106.967C123.04 100.053 129.292 91.9727 134.49 83.7413C135.791 81.6819 136.926 79.473 138.368 77.5106C139.369 76.147 139.656 74.4704 140.451 72.9967C142.041 70.05 144.138 65.6723 144.27 62.2327C144.339 60.4399 144.063 60.1585 142.862 58.8377C140.421 56.1518 136.025 54.2521 132.966 52.4333C126.72 48.7192 120.287 45.0306 114.371 40.8206C110.908 38.3567 107.129 36.4687 103.491 34.3005C100.221 32.3518 97.0612 30.5132 93.8458 28.4748C87.8972 24.7038 82.0379 20.6596 76.2338 16.6692C73.6072 14.8635 70.6507 13.2163 68.2477 11.1136C66.4366 9.529 64.3842 8.3111 62.6728 6.59974C61.2166 5.14359 60.5901 4.86362 58.5833 4.86362C56.5503 4.86362 53.7108 7.45424 52.0632 8.52876C47.8478 11.2779 43.6417 14.3275 39.621 17.3058C35.6731 20.2302 31.7809 23.2459 27.8347 26.16C24.3436 28.738 21.2202 32.1345 17.6108 34.4548C15.7724 35.6367 14.2497 36.9649 12.3253 37.9271C11.3242 38.4276 9.34898 38.5942 8.85308 39.586" stroke="#433878" stroke-width="8" stroke-linecap="round"/>
<path d="M56.4229 89.5862C56.4229 84.4272 59.9121 82.0025 63.2902 78.7451C65.1133 76.9871 67.4381 75.8014 69.6752 74.617C72.6299 73.0528 75.8742 70.1255 77.6807 67.2867C80.7452 62.4711 79.1842 56.6706 82.4646 52.0089C84.4075 49.248 88.1583 47.5721 91.4925 47.5721" stroke="#433878" stroke-width="8" stroke-linecap="round"/>
<path d="M80.7285 105.906C80.4123 102.744 79.5218 99.7901 80.4584 96.5308C81.5229 92.8264 83.5556 90.2543 86.1104 87.5029C89.6193 83.7241 96.1612 83.0414 99.0542 78.5523C100.578 76.1877 101.827 74.3424 102.334 71.5306C102.641 69.8204 103.826 67.3348 104.861 65.9558C106.776 63.4015 109.536 63.0855 112.326 62.1556" stroke="#433878" stroke-width="8" stroke-linecap="round"/>
<path d="M19.6171 82.2946C19.6171 83.4257 18.6626 84.3636 18.5754 85.4967C18.4444 87.1998 17.5415 89.4754 17.0322 91.1488C16.4977 92.9051 16.7706 94.8479 16.1448 96.6079C15.7044 97.8468 15.7392 99.2109 15.5276 100.505C15.2269 102.342 14.6952 104.11 14.3894 105.944C13.3074 112.437 11.9513 118.789 9.7212 124.965C7.97757 129.793 5.9071 134.908 4.86007 139.934C4.54662 141.438 4.33923 142.62 4.33923 144.178C4.33923 146.664 5.10376 146.206 7.63786 146.685C15.5784 148.188 23.4565 150.076 31.4034 151.566C36.609 152.542 41.7059 154.069 46.9706 154.787C53.2659 155.646 59.6939 156.568 65.9329 157.816C70.216 158.672 74.647 158.871 78.9924 159.301C84.2262 159.819 89.6473 159.381 94.8297 160.266C102.265 161.535 109.701 162.72 117.148 163.911C124.239 165.046 131.641 165.564 138.561 167.557C140.334 168.068 142.158 168.466 143.943 168.946C144.764 169.167 146.642 170.379 147.183 169.236C147.566 168.428 147.396 167.267 147.396 166.4C147.396 159.852 148.179 153.358 149.054 146.878C149.64 142.543 150.486 138.244 151.022 133.877C151.511 129.899 151.215 125.765 151.215 121.762C151.215 115.808 151.215 109.854 151.215 103.9C151.215 102.786 151.871 97.1097 150.868 96.6079C149.827 96.0876 147.286 96.5307 146.2 96.5307C144.083 96.5307 142.422 96.2043 140.374 95.7591C137.527 95.1403 134.814 94.3045 132.118 93.4057" stroke="#433878" stroke-width="8" stroke-linecap="round"/>
<path d="M9.2003 39.586C9.47479 37.1156 17.2692 36.4161 18.9611 34.5127C20.3662 32.932 22.6228 32.2206 24.1309 30.7125C25.6223 29.2212 27.1926 27.5839 28.9149 26.3915C30.5898 25.232 32.0495 23.6973 33.7375 22.5721C36.2137 20.9212 38.8651 19.6888 41.2992 17.9038C43.2026 16.508 45.1685 15.0864 47.1249 13.7371C48.4129 12.8489 49.7478 12.1031 51.0601 11.268C51.8155 10.7873 52.7895 9.7349 53.5678 9.45471C56.947 8.2382 59.3798 5.36523 63.3479 7.1013C66.1864 8.34313 68.0939 10.7552 70.3117 12.8498C73.0784 15.4628 75.8344 18.62 79.3395 20.1222C81.3663 20.9908 83.5487 22.2665 85.2809 23.6137C86.6025 24.6416 88.2475 25.2755 89.6791 26.1215C90.8187 26.7949 92.706 27.3228 93.5757 28.3013C95.1274 30.0469 98.131 30.684 100.096 31.9471C102.156 33.2715 104.34 34.3548 106.346 35.7666C108.558 37.3236 111.228 39.9131 113.908 40.6277C115.147 40.9582 116.036 41.9995 117.264 42.5181C118.279 42.9468 119.409 43.765 120.293 44.4279C122.689 46.225 125.288 47.4401 127.604 49.3855C129.36 50.8606 131.403 51.4335 133.082 53.0506C135.692 55.5641 139.242 57.3527 142.033 59.7443C144.175 61.5807 142.657 67.9527 142.11 70.1417C141.189 73.8257 138.762 76.953 137.133 80.2112C134.937 84.6038 131.125 88.4244 128.298 92.4412C127.2 94.0021 125.807 95.4754 124.479 96.878C123.736 97.6623 123.618 98.8108 122.723 99.4822C122.061 99.9789 121.248 100.909 120.929 101.662C120.244 103.282 117.907 105.186 116.666 106.427C114.494 108.598 112.158 110.626 109.934 112.85C106.963 115.821 104.93 119.092 102.604 122.65C101.655 124.1 101.118 125.892 100.347 127.434C99.7461 128.635 98.4674 130.191 98.1089 131.446C97.4247 133.841 94.0667 133.815 91.8396 133.684C90.7241 133.618 89.1533 131.544 88.5217 130.732C87.2856 129.143 85.3449 128.237 83.8534 126.932C80.8472 124.302 76.7197 122.649 73.3596 120.489C71.6048 119.361 69.9758 117.871 68.0548 117.017C66.2838 116.23 64.2421 114.809 62.3063 114.567C57.368 113.95 54.572 108.899 50.1727 107.642C48.808 107.252 47.2131 106.748 46.006 106.176C43.8143 105.138 42.2031 103.209 40.1032 102.009C37.1458 100.319 34.3641 97.3889 31.9435 94.9683C30.6825 93.7073 29.9217 92.3846 28.9149 90.9752C27.6693 89.2314 26.8457 86.9941 25.5198 85.4196C24.9633 84.7587 24.5607 83.4537 24.1309 82.6418C23.7123 81.851 22.6431 80.937 22.3948 80.1919C21.7453 78.2435 19.7314 76.9707 18.9033 75.1765C18.1542 73.5536 16.8267 72.5063 16.2219 70.759C15.6963 69.2404 14.5139 67.9694 13.9843 66.5923C13.6053 65.6069 12.4718 63.6348 11.7852 62.85C10.905 61.8441 10.4891 60.0557 10.2227 58.857C9.8302 57.0908 8.84016 55.4681 8.42869 53.6679C7.99456 51.7686 7.8114 49.9487 7.8114 47.9966C7.8114 46.4662 7.8114 44.9359 7.8114 43.4055C7.8114 41.9149 9.04405 41.6346 9.54752 40.6277" stroke="white" stroke-opacity="0.7" stroke-width="2" stroke-linecap="round"/>
<path d="M8.85315 39.9332C9.33858 39.9939 9.79382 41.0554 9.91411 41.4764C10.1072 42.1523 11.4053 42.9869 11.901 43.4826C13.1115 44.6931 13.9271 46.1451 15.2768 47.2249C16.5797 48.2673 18.3878 49.2749 19.5399 50.4271C20.7572 51.6443 22.4987 52.0188 23.9381 52.9348C27.5403 55.2271 32.0465 56.4436 36.0138 57.7188C38.4008 58.4861 40.5052 59.9039 42.6882 61.0946C44.5133 62.0901 46.7567 62.1386 48.6296 62.9272C49.4483 63.2719 49.5528 63.452 50.5586 63.5637C51.3192 63.6483 53.4809 63.7659 53.9151 64.5861C54.4787 65.6507 50.6298 67.1432 49.9799 67.5568C46.7164 69.6336 43.7614 72.8354 41.8394 76.1988C41.2455 77.2382 39.9115 79.2681 38.8687 79.864C37.1692 80.8351 36.8122 83.0113 35.5894 84.3779C34.9143 85.1324 33.5061 87.0603 33.5061 88.0237C33.5061 89.2665 32.1172 90.3328 32.1172 91.6696" stroke="white" stroke-opacity="0.7" stroke-width="2" stroke-linecap="round"/>
<path d="M57.1173 89.9335C57.1173 85.3282 59.8824 80.1404 64.0618 78.0507C65.9062 77.1285 68.9332 76.5704 70.0418 74.6556C71.1478 72.7452 73.2821 71.2524 74.8257 69.7945C77.1527 67.5968 78.3685 65.8882 79.6869 63.0043C80.7646 60.6468 81.0096 57.7085 81.8474 55.2883C82.39 53.7207 83.7657 51.0932 85.2424 50.2728C86.3759 49.6431 87.2018 48.9611 88.5411 48.9611C90.2193 48.9611 91.8976 48.9611 93.5758 48.9611" stroke="white" stroke-opacity="0.7" stroke-width="2" stroke-linecap="round"/>
<path d="M81.0757 105.559C81.0757 102.524 81.0757 99.4886 81.0757 96.4536C81.0757 94.5057 82.2472 90.2254 84.1814 89.2583C85.0569 88.8206 85.4363 87.6096 86.4577 87.1557C87.5008 86.6921 88.3684 85.8358 89.4091 85.4196C92.0673 84.3563 94.6131 83.2324 96.9708 81.6001C99.1574 80.0863 99.6798 77.0227 100.443 74.7328C101.122 72.697 102.08 70.806 103.124 68.9264C104.815 65.884 108.501 61.8083 112.326 61.8083" stroke="white" stroke-opacity="0.7" stroke-width="2" stroke-linecap="round"/>
<path d="M20.3116 82.6418C19.2021 82.7805 19.334 87.788 18.7298 88.7375C18.0424 89.8176 17.8523 91.187 17.2637 92.3641C16.7597 93.3721 16.4921 94.664 16.4921 95.8363C16.4921 96.7615 15.9944 98.1627 15.7784 99.1349C15.5579 100.127 15.4151 101.733 14.9296 102.607C14.326 103.694 14.1287 105.391 14.0615 106.6C13.9954 107.791 13.1085 108.953 13.0199 110.15C12.9027 111.732 12.2404 113.231 11.9589 114.779C11.7278 116.051 11.8401 117.548 11.4574 118.772C10.5001 121.835 10.593 125.02 9.47046 128.051C8.94871 129.46 8.4915 130.877 7.98512 132.295C7.49814 133.658 7.49245 135.508 6.61551 136.635C5.5733 137.975 5.03371 141.838 5.03371 143.56C5.03371 144.594 4.95414 146.382 5.80532 147.148C6.52239 147.794 7.99179 147.427 8.77602 147.997C9.41402 148.461 11.505 148.504 12.3254 148.595C14.2519 148.809 16.1014 149.062 17.9003 149.849C21.7608 151.538 26.3011 152.091 30.4582 152.704C34.8356 153.35 39.2612 154.226 43.5756 155.134C48.1637 156.1 52.8967 156.17 57.4645 157.121C60.4318 157.74 63.6576 157.427 66.5695 158.259C68.1042 158.698 69.763 158.684 71.3535 158.684C75.5267 158.684 79.9496 159.774 84.0464 160.594C87.982 161.381 92.1087 160.953 96.0257 161.442C98.5544 161.758 101.09 162.091 103.645 162.156C106.041 162.218 108.441 163.441 110.821 163.545C112.989 163.639 115.244 164.267 117.399 164.587C120.046 164.979 122.727 165.136 125.328 165.609C128.477 166.182 131.864 166.521 134.973 167.442C136.367 167.855 137.89 167.699 139.216 168.078C140.333 168.397 141.114 168.753 142.341 168.753C144.085 168.753 146.538 169.614 146.701 166.67C146.765 165.528 147.396 164.692 147.396 163.545C147.396 162.226 147.743 161.074 147.743 159.726C147.743 156.649 147.97 153.546 148.09 150.428C148.13 149.395 148.73 148.253 148.784 147.225C148.864 145.718 148.43 143.898 148.862 142.441C149.599 139.954 149.826 136.976 149.826 134.378C149.826 131.456 150.521 128.608 150.521 125.698C150.521 118.65 151.562 111.745 151.562 104.691C151.562 103.359 151.562 102.028 151.562 100.697C151.562 99.1418 151.252 98.8089 150.598 97.5724C149.758 95.9867 147.214 95.9083 145.814 95.5084C144.767 95.2094 143.355 95.5295 142.264 95.4891C140.968 95.4411 139.673 94.7946 138.368 94.7946C136.032 94.7946 133.991 94.1002 131.77 94.1002" stroke="white" stroke-opacity="0.7" stroke-width="2" stroke-linecap="round"/>
</svg>
