<svg width="139" height="193" viewBox="0 0 139 193" fill="none" xmlns="http://www.w3.org/2000/svg">
<path d="M120.602 40.0477C124.265 40.0477 127.989 39.8209 129.66 43.2364C130.19 44.3203 130.353 46.5175 130.353 47.665C130.353 49.0494 130.353 50.4337 130.353 51.8181C130.353 53.2357 131.68 54.5855 132.672 55.6366C133.6 56.6207 133.926 58.2328 134.34 59.455C134.744 60.6483 135.04 62.7595 134.448 63.9427C134.115 64.6084 133.731 65.2506 133.387 65.911C133.036 66.5839 132.096 67.5546 131.935 68.2139C131.424 70.3038 129.374 72.1554 128.706 74.2172C128.118 76.0347 127.423 78.0751 126.648 79.9055C124.91 84.0096 125.033 89.4133 124.893 93.7426C124.593 103.002 125.754 112.488 124.871 121.712C124.486 125.731 123.333 129.392 123.333 133.404C123.333 139.01 123.723 144.673 123.723 150.232C123.723 154.777 125.673 159.248 125.673 163.873C125.673 166.773 122.553 168.793 121.079 171.136C120.194 172.543 119.102 173.933 118.176 175.387C117.267 176.813 114.908 178.171 114.362 179.658C113.387 182.315 110.361 183.283 107.688 183.89C104.851 184.534 101.857 184.244 98.9341 184.244C95.4595 184.244 91.4416 184.115 88.0566 183.556C82.5832 182.652 81.5995 177.998 81.5995 173.753C81.5995 171.957 81.9717 170.774 82.8562 169.167C83.8049 167.444 83.1813 164.332 82.3795 162.633" stroke="#433878" stroke-opacity="0.9" stroke-width="8" stroke-linecap="round"/>
<path d="M121.003 40.0031C124.666 40.0031 128.389 39.7763 130.06 43.1917C130.591 44.2757 130.754 46.4729 130.754 47.6204C130.754 49.0047 130.754 50.3891 130.754 51.7735C130.754 53.1911 132.08 54.5409 133.072 55.5919C134.001 56.5761 134.327 58.1882 134.741 59.4104C135.145 60.6037 135.441 62.7149 134.849 63.8981C134.516 64.5637 134.132 65.2059 133.787 65.8664C133.436 66.5393 132.497 67.51 132.335 68.1693C131.824 70.2591 129.774 72.1107 129.107 74.1726C128.518 75.9901 127.823 78.0305 127.048 79.8609C125.311 83.965 125.433 89.3686 125.293 93.698C124.993 102.958 126.155 112.443 125.272 121.667C124.887 125.687 123.733 129.347 123.733 133.359C123.733 138.965 124.123 144.629 124.123 150.188C124.123 154.732 126.073 159.204 126.073 163.828C126.073 166.728 122.953 168.748 121.48 171.091C120.594 172.498 119.503 173.888 118.576 175.342C117.667 176.769 115.308 178.126 114.762 179.614C113.788 182.27 110.761 183.239 108.089 183.845C105.252 184.49 102.258 184.2 99.3346 184.2C95.86 184.2 91.8421 184.07 88.4571 183.511C82.9838 182.607 82 177.953 82 173.709C82 171.912 82.3722 170.73 83.2568 169.123C84.2054 167.399 83.5819 164.287 82.7801 162.588" stroke="white" stroke-opacity="0.7" stroke-width="2" stroke-linecap="round"/>
<path d="M97.9808 149.17C96.358 149.17 95.8512 150.599 95.2506 151.827C94.5325 153.294 93.3097 154.475 92.0437 155.625C89.4827 157.952 86.0171 159.661 82.3796 159.798C78.9822 159.927 76.2423 160.158 73.409 161.648C70.61 163.12 68.207 166.348 66.3885 168.734C62.2776 174.128 55.0193 176.071 50.7873 181.331C46.0312 187.243 35.9477 190.62 28.339 188.22C24.0822 186.878 20.7167 183.274 19.2817 179.363C18.4922 177.212 16.785 175.653 15.468 173.773C14.21 171.977 14.4128 168.887 14.5146 166.805C14.6183 164.687 16.1771 162.582 17.0282 160.684C17.7572 159.058 17.7717 157.208 17.6349 155.468C17.4509 153.129 15.2947 151.635 15.2947 149.189C15.2947 147.432 14.8322 145.106 15.3814 143.422C16.4526 140.138 18.9732 136.297 19.195 132.872C19.453 128.887 21.0985 125.062 23.0953 121.535C24.3112 119.387 26.4803 118.106 28.3173 116.437C30.1904 114.735 30.1872 111.29 30.8958 109.056C31.9921 105.6 34.0161 102.572 34.0161 98.8601" stroke="#433878" stroke-opacity="0.9" stroke-width="8" stroke-linecap="round"/>
<path d="M97.9808 149.17C96.358 149.17 95.8512 150.599 95.2506 151.827C94.5325 153.294 93.3097 154.475 92.0437 155.625C89.4827 157.952 86.0171 159.661 82.3796 159.798C78.9822 159.927 76.2423 160.158 73.409 161.648C70.61 163.12 68.207 166.348 66.3885 168.734C62.2776 174.128 55.0193 176.071 50.7873 181.331C46.0312 187.243 35.9477 190.62 28.339 188.22C24.0822 186.878 20.7167 183.274 19.2817 179.363C18.4922 177.212 16.785 175.653 15.468 173.773C14.21 171.977 14.4128 168.887 14.5146 166.805C14.6183 164.687 16.1771 162.582 17.0282 160.684C17.7572 159.058 17.7717 157.208 17.6349 155.468C17.4509 153.129 15.2947 151.635 15.2947 149.189C15.2947 147.432 14.8322 145.106 15.3814 143.422C16.4526 140.138 18.9732 136.297 19.195 132.872C19.453 128.887 21.0985 125.062 23.0953 121.535C24.3112 119.387 26.4803 118.106 28.3173 116.437C30.1904 114.735 30.1872 111.29 30.8958 109.056C31.9921 105.6 34.0161 102.572 34.0161 98.8601" stroke="white" stroke-opacity="0.7" stroke-width="2" stroke-linecap="round"/>
<path d="M44.5468 92.4828C48.1345 92.9403 51.6888 92.6694 55.2293 93.3686C58.3085 93.9766 60.9882 95.7093 63.4849 97.3642C65.3003 98.5676 67.5638 98.9608 69.1403 100.632C71.012 102.615 72.4296 104.673 74.7524 106.281C76.6606 107.601 78.0417 109.091 79.7361 110.63C81.5258 112.256 83.6622 113.534 85.3915 115.197C89.1972 118.857 93.3004 121.272 93.3004 126.928C93.3004 130.966 89.6334 134.521 84.8931 134.644C80.7352 134.751 76.5324 134.769 72.4339 134.112C68.2458 133.441 63.3661 133.284 60.148 130.569C58.688 129.338 57.1927 127.013 56.2477 125.432C55.3389 123.911 53.5471 121.952 52.1524 120.826C50.5125 119.502 48.7486 117.99 47.277 116.575C46.1032 115.446 45.449 113.851 44.1568 112.677" stroke="#433878" stroke-opacity="0.9" stroke-width="8" stroke-linecap="round"/>
<path d="M44.5468 92.4828C48.1345 92.9403 51.6888 92.6694 55.2293 93.3686C58.3085 93.9766 60.9882 95.7093 63.4849 97.3642C65.3003 98.5676 67.5638 98.9608 69.1403 100.632C71.012 102.615 72.4296 104.673 74.7524 106.281C76.6606 107.601 78.0417 109.091 79.7361 110.63C81.5258 112.256 83.6622 113.534 85.3915 115.197C89.1972 118.857 93.3004 121.272 93.3004 126.928C93.3004 130.966 89.6334 134.521 84.8931 134.644C80.7352 134.751 76.5324 134.769 72.4339 134.112C68.2458 133.441 63.3661 133.284 60.148 130.569C58.688 129.338 57.1927 127.013 56.2477 125.432C55.3389 123.911 53.5471 121.952 52.1524 120.826C50.5125 119.502 48.7486 117.99 47.277 116.575C46.1032 115.446 45.449 113.851 44.1568 112.677" stroke="white" stroke-opacity="0.7" stroke-width="2" stroke-linecap="round"/>
<path d="M35.5761 35.0876C33.5623 34.9213 31.3033 34.0748 29.3357 33.5917C26.7495 32.9568 24.405 32.2533 21.7084 32.2533C15.9921 32.2533 10.6179 34.8858 7.49407 39.1423C4.51164 43.206 3.11945 49.9587 4.59052 54.7311C5.13295 56.4909 5.98971 58.6189 7.19071 60.0455C8.66075 61.7917 11.1143 62.7765 12.5861 64.3364C13.6253 65.4376 16.0114 65.2113 17.4181 65.5764C17.9713 65.72 16.8548 68.5294 16.8548 69.0209C16.8548 72.3946 15.4955 75.5838 15.6847 79.0198C15.8311 81.6795 18.9752 85.7303 21.5351 86.8929C22.9113 87.518 27.3163 89.4598 27.7756 90.7114" stroke="#433878" stroke-opacity="0.9" stroke-width="8" stroke-linecap="round"/>
<path d="M79.6493 22.3331C81.6255 22.3331 83.9355 21.959 85.6947 22.8842C86.8048 23.468 87.471 24.5365 88.5333 25.1674C89.6449 25.8276 89.786 24.0085 90.2667 23.4747C90.9953 22.6658 91.7098 21.2275 92.9103 20.9159C94.4992 20.5035 96.3287 19.932 97.9806 19.853C100.256 19.7442 102.571 19.853 104.849 19.853C107.3 19.853 109.433 20.9514 111.718 21.6639C113.359 22.1754 114.749 22.6831 115.619 24.1045C116.318 25.2478 117.872 26.5316 117.872 27.8443C117.872 29.164 118.262 30.5138 118.262 31.899" stroke="#433878" stroke-opacity="0.9" stroke-width="8" stroke-linecap="round"/>
<path d="M99.9309 34.0248C101.322 34.0248 102.205 33.5399 103.441 33.0407C104.323 32.6845 106.146 33.0509 104.806 34.0248C104.673 34.1216 103.879 36.0432 103.81 36.3277C103.267 38.5436 102.661 35.5264 102.661 34.7334" stroke="#433878" stroke-opacity="0.9" stroke-width="8" stroke-linecap="round"/>
<path d="M23.0952 47.1335C17.2183 46.5404 22.3122 51.3483 23.2686 50.4796C23.6405 50.1418 25.854 47.3978 24.6553 48.5507C23.8579 49.3176 22.7052 51.0306 22.7052 52.0936" stroke="#433878" stroke-opacity="0.9" stroke-width="8" stroke-linecap="round"/>
<path d="M44.1568 45.7164C44.9696 45.8087 46.1972 47.5728 47.082 48.0193C48.0011 48.4831 49.0371 48.7889 50.0072 49.1806C51.9214 49.9534 54.9648 49.1386 56.551 48.1964C57.7273 47.4978 60.4112 43.9872 58.8912 42.6065C58.1541 41.9369 56.9122 43.8174 58.5662 44.8503C60.1402 45.8333 61.778 47.8421 63.8749 47.8421C66.648 47.8421 70.3999 47.9131 71.4588 45.0275C71.7535 44.2244 72.2761 42.8584 71.7622 41.9766C71.6249 41.7412 70.6514 41.6911 70.8954 41.8389C71.155 41.9961 71.6755 42.1537 71.8488 42.3506C72.7936 43.4234 76.4574 42.8821 77.8943 42.8821C79.8104 42.8821 81.7846 39.9727 82.7696 38.6306" stroke="#433878" stroke-opacity="0.9" stroke-width="5" stroke-linecap="round"/>
<path d="M53.5175 59.1794V62.3681" stroke="#433878" stroke-opacity="0.9" stroke-width="5" stroke-linecap="round"/>
<path d="M79.6792 55.2658V58.0232" stroke="#433878" stroke-opacity="0.9" stroke-width="5" stroke-linecap="round"/>
<path d="M67.5369 64.7915C68.5057 64.7915 69.1326 64.0394 67.8128 64.0394" stroke="#433878" stroke-opacity="0.9" stroke-width="5" stroke-linecap="round"/>
<path d="M63.1215 74.0665C65.2206 74.0665 67.2456 73.3701 68.2421 71.5597C68.6179 70.877 68.9868 70.1063 69.4532 69.4708C69.6005 69.27 69.4776 69.9701 69.6065 70.181C69.837 70.5578 70.1041 70.8372 70.4038 71.1698C71.4767 72.361 72.7824 72.0611 74.3745 72.0611C75.0197 72.0611 77.7163 71.3647 76.3676 71.0584" stroke="#433878" stroke-opacity="0.9" stroke-width="5" stroke-linecap="round"/>
<path d="M80.9095 55.606V56.231" stroke="white" stroke-opacity="0.9" stroke-width="2" stroke-linecap="round"/>
<path d="M55.1052 58.7312V59.3563" stroke="white" stroke-opacity="0.9" stroke-width="2" stroke-linecap="round"/>
<path d="M84.7779 62.7542C84.1837 62.7542 83.5896 62.7542 82.9954 62.7542C82.1358 62.7542 81.4469 63.017 80.6907 63.3566C80.2458 63.5564 79.865 63.625 79.5258 63.9742C79.2541 64.2539 79.1576 64.5811 79.1445 64.9494C79.1349 65.2189 79.3498 65.2725 79.5466 65.4389C79.8039 65.6566 80.1845 65.7394 80.5124 65.8381C80.9328 65.9645 81.345 66.0253 81.7788 66.0922C82.5168 66.2061 83.2654 66.1769 84.011 66.1769C84.8557 66.1769 85.715 66.2087 86.5376 66.0075C86.8372 65.9342 87.1645 65.9352 87.4267 65.7703C87.6383 65.6372 87.836 65.534 88.0216 65.3655C88.3203 65.0941 88.3631 64.7485 88.1521 64.4222C88.0588 64.2778 87.964 64.1099 87.7915 64.0344C87.6255 63.9618 87.575 63.7854 87.3728 63.7219C87.0599 63.6235 86.7581 63.5216 86.4401 63.4319C85.7323 63.2324 83.5253 63.3273 84.239 63.1458C84.6062 63.0524 84.9853 62.9427 85.3748 62.9933C85.5687 63.0184 85.8294 63.1272 85.9738 63.2474C86.0651 63.3234 86.1304 63.4144 86.2308 63.4828C86.327 63.5483 86.4532 63.5849 86.5438 63.6522C86.7016 63.7695 86.8352 63.9225 87.0163 64.0231C87.0493 64.0414 87.2634 64.1485 87.12 64.1775C86.891 64.2237 86.7026 64.3005 86.4878 64.3808C86.1305 64.5145 85.6737 64.5245 85.2919 64.5484C84.9385 64.5705 84.5672 64.5634 84.2141 64.5465C83.4663 64.5107 82.7426 64.226 81.9881 64.2114C81.8648 64.209 81.7175 64.1958 81.5985 64.2264C81.3883 64.2805 81.3238 64.3716 81.4285 64.1285C81.5425 63.864 81.724 63.5737 81.9425 63.3642C82.4098 62.9161 83.3124 62.9575 83.9302 62.9575C84.2307 62.9575 84.5312 62.9575 84.8318 62.9575C85.2835 62.9575 85.8857 62.9471 86.2702 63.1966C86.4597 63.3196 86.6103 63.4978 86.7386 63.6673C86.8383 63.7991 87.0909 63.822 87.0909 64.008" stroke="#FF0000" stroke-opacity="0.5" stroke-width="2" stroke-linecap="round"/>
<path d="M53.5176 67.5471C53.3644 67.6708 53.0207 67.6601 52.8313 67.6601C52.5889 67.6601 52.243 67.8037 52.0115 67.886C51.3933 68.1057 50.8599 68.3841 50.4501 68.8734C50.254 69.1076 50.1575 69.4457 50.1001 69.729C50.069 69.882 50.0092 70.2362 50.1185 70.3796C50.3199 70.6438 50.7643 70.7684 51.0995 70.7833C51.6776 70.8089 52.2475 70.8607 52.8267 70.8607C53.4591 70.8607 54.0669 70.7011 54.6967 70.6745C55.4946 70.6408 56.2727 70.4883 57.0641 70.4005C57.5473 70.3468 58.0334 70.0334 58.4482 69.8252C58.688 69.7048 59.0416 69.313 59.1045 69.0616C59.2738 68.3849 58.0888 67.988 57.603 67.773C57.0427 67.5251 56.3341 67.3965 55.7146 67.3965C55.3079 67.3965 54.892 67.3588 54.4802 67.3588C54.0011 67.3588 53.6759 67.4947 53.2251 67.6496C52.9059 67.7593 52.5806 67.8433 52.2648 67.9697C51.7492 68.1761 51.2136 68.7517 51.2792 69.2876C51.2973 69.4359 52.0327 69.4237 52.1474 69.4277C52.5004 69.4401 52.8558 69.4298 53.209 69.4298C53.455 69.4298 53.7271 69.4586 53.969 69.4047C54.6651 69.2497 55.3353 69.1153 56.0577 69.093C56.3934 69.0827 56.7346 69.1271 57.0319 68.957C57.2514 68.8315 57.3061 68.8428 57.1056 68.6203C56.8727 68.3617 56.5304 68.144 56.1522 68.0826C55.3029 67.9449 54.4487 67.9066 53.5867 67.9236C53.4246 67.9268 53.2485 68.0389 53.1031 68.0931C52.8508 68.1872 52.6625 68.3205 52.4468 68.4675C52.3139 68.558 52.2544 68.7805 52.1957 68.911C52.0576 69.2184 52.7105 69.2019 52.9373 69.2415" stroke="#FF0000" stroke-opacity="0.5" stroke-width="2" stroke-linecap="round"/>
<path d="M80.5656 22.4775C84.1085 22.4775 89.8551 20.5502 89.8551 25.2903C89.8551 26.4946 90.5432 23.9905 90.5432 23.5887C90.5432 22.6054 93.8516 21.6241 94.7484 21.5399C97.5366 21.2779 100.016 20.2897 102.853 20.2897C107.085 20.2897 111.552 22.0267 114.627 24.6652C116.964 26.6701 116.977 30.3899 117.724 33.1036" stroke="white" stroke-opacity="0.5" stroke-width="2" stroke-linecap="round"/>
<path d="M102.183 31.6309C101.402 31.5173 100.644 31.7032 99.9505 32.0366C99.3819 32.31 98.7045 32.6172 98.341 33.1125C98.1595 33.3598 98.2339 33.856 98.3561 34.0982C98.5568 34.4959 98.855 34.735 99.2234 35.0174C99.7485 35.4198 100.307 35.7519 100.854 36.1246C101.269 36.4072 101.66 36.7266 102.106 36.9654C102.333 37.0867 102.596 37.1816 102.852 37.2397C103.088 37.2932 103.29 37.4082 103.534 37.4161C103.911 37.4283 104.094 37.3576 104.419 37.1496C104.711 36.9623 105.027 36.7993 105.256 36.546C105.639 36.122 105.981 35.6831 106.308 35.2251C106.662 34.7298 107.042 34.2286 107.12 33.6318C107.175 33.2045 107.278 32.8759 106.9 32.5324C106.567 32.2305 105.947 32.1829 105.527 32.0268C105.094 31.8656 104.571 31.8615 104.112 31.7897C103.538 31.6998 102.928 31.7367 102.347 31.7367C102.089 31.7367 101.83 31.7367 101.571 31.7367C101.28 31.7367 100.996 31.8073 100.708 31.8073C100.65 31.8073 100.427 31.8556 100.483 31.8347C100.721 31.7471 100.934 31.5696 101.191 31.527C101.805 31.4257 102.43 31.3305 103.057 31.2762C103.762 31.2153 104.549 31.177 105.234 31.3409C105.893 31.4983 106.548 31.8025 107.046 32.2384C107.216 32.3871 107.249 32.547 107.232 32.7519C107.223 32.8656 106.974 32.9853 106.882 33.0419C106.642 33.1903 106.422 33.3518 106.198 33.5201C105.799 33.8208 105.433 33.9387 104.913 33.9552C104.625 33.9643 104.322 33.9792 104.035 33.9591C103.932 33.9519 103.985 33.8158 103.961 33.7553C103.934 33.6859 103.768 33.7122 103.717 33.7122C103.205 33.7122 102.692 33.7122 102.179 33.7122C101.889 33.7122 101.471 33.6354 101.193 33.7475C101.085 33.7913 101.057 33.818 100.926 33.818C100.813 33.818 100.768 33.8651 100.837 33.9532C101.337 34.5924 102.081 34.8817 102.762 35.3309C102.994 35.4843 103.163 35.6276 103.435 35.7268C103.591 35.7839 103.78 35.7582 103.944 35.7582C104.246 35.7582 104.414 35.378 104.552 35.1585" stroke="white" stroke-opacity="0.5" stroke-width="2" stroke-linecap="round"/>
<path d="M19.3384 46.1877C19.0754 46.2094 18.8117 46.4832 18.6153 46.6161C18.4246 46.7451 18.3073 46.9127 18.2312 47.12C18.1218 47.4182 18.1507 47.7763 18.1684 48.0889C18.1952 48.5634 18.5103 49.0266 18.7231 49.4475C18.9486 49.8938 19.1991 50.3141 19.5001 50.7204C19.9746 51.3612 20.2917 52.103 21.0159 52.5584C21.3916 52.7947 21.7518 52.8795 22.1725 53.0011C22.5372 53.1065 23.1453 53.1241 23.4817 52.9623C24.6138 52.4179 25.1148 51.1866 25.6443 50.2105C26.0765 49.4138 26.2786 48.3313 26.0688 47.4545C25.9543 46.9763 25.5955 46.7305 25.2715 46.355C24.9273 45.956 24.3226 45.8189 23.8567 45.5696C23.6469 45.4573 23.5175 45.4016 23.2908 45.3432C22.6405 45.1756 21.9935 45.1232 21.3236 45.078C20.9305 45.0514 20.5407 45.0494 20.1468 45.0494C19.9456 45.0494 19.7083 45.0197 19.5091 45.0576C18.833 45.1861 18.534 45.9648 18.2245 46.4468C18.0184 46.7677 17.9236 47.1384 17.9236 47.5096C17.9236 47.8023 18.3437 47.9502 18.6108 47.9502C19.0071 47.9502 19.2978 47.8577 19.5989 47.6034C19.9695 47.2903 20.3153 47.0776 20.7689 46.8874C20.8967 46.8338 21.4284 46.2095 21.3505 46.1387C21.3383 46.1277 21.1618 46.5045 21.1529 46.5243C20.9808 46.9092 20.7998 47.3046 20.5713 47.6646C20.2497 48.1713 19.5705 49.1461 20.1266 49.729C20.2807 49.8905 20.5909 49.8512 20.7442 49.7086C21.3043 49.1877 21.561 48.4613 22.1028 47.9339C22.3588 47.6848 22.6091 47.4253 22.8529 47.1669C22.8786 47.1396 22.9613 47.4104 22.9674 47.4321C23.031 47.6586 23.0293 47.9015 23.0483 48.1338C23.0846 48.5789 22.8317 48.8118 22.5587 49.1742C22.3899 49.3984 22.3297 49.5878 22.3297 49.8514C22.3297 49.9976 22.3289 50.1364 22.2982 50.2798C22.2675 50.4233 22.5053 50.4372 22.6171 50.4655C22.8131 50.5149 22.952 50.3183 23.0618 50.1941C23.4471 49.7585 23.8707 49.2957 24.124 48.7825C24.2343 48.5591 24.3156 48.3153 24.4069 48.0848C24.4712 47.9227 24.3468 47.7292 24.1981 47.6361C24.1136 47.5832 23.842 47.6005 23.7804 47.6769C23.6384 47.8528 23.5478 48.0984 23.466 48.3011C23.2881 48.7416 23.1354 49.1887 22.927 49.6189C22.7743 49.9342 22.5847 50.2316 22.4105 50.5369C22.3472 50.6478 22.1781 50.7557 22.168 50.8796C22.1487 51.1162 22.4095 51.27 22.653 51.1815" stroke="white" stroke-opacity="0.5" stroke-width="2" stroke-linecap="round"/>
<path d="M63.5498 73.9866C64.3913 73.9866 64.9102 73.8994 65.5943 73.4851C66.4337 72.9768 67.1778 72.4706 67.9251 71.8461C68.7135 71.1873 69.1054 70.5493 69.3972 69.6407C69.416 69.582 69.67 68.8222 69.3921 69.0185C69.1911 69.1605 69.2541 69.4163 69.2541 69.6221C69.2541 70.1492 69.915 70.6513 70.3581 70.9129C70.5268 71.0125 70.6315 71.2298 70.7773 71.3586C71.0284 71.5806 71.3943 71.692 71.7177 71.7951C72.1932 71.9465 72.4674 71.9808 72.9751 71.9808C73.7991 71.9808 74.7046 72.0807 75.5001 71.8508C75.8623 71.7461 76.4421 71.6186 76.7473 71.4422C77.0589 71.262 77.4903 70.9979 76.7984 71.3122" stroke="white" stroke-opacity="0.5" stroke-width="2" stroke-linecap="round"/>
<path d="M68.61 64.6263C68.4165 64.6263 68.3045 64.5293 68.15 64.4591" stroke="white" stroke-opacity="0.5" stroke-width="2" stroke-linecap="round"/>
<path d="M34.7563 34.0642C32.8762 34.0642 31.0346 33.1352 29.1694 32.9093C28.4107 32.8174 27.412 32.6607 26.6982 32.3725C25.1142 31.733 22.0827 32.3074 20.3234 32.3074C18.2289 32.3074 16.804 32.4208 15.023 33.4786C13.8876 34.153 13.1549 35.1935 12.0326 35.8209C11.3886 36.1809 10.2501 36.9842 9.86588 37.5776C9.49501 38.1503 8.53118 38.9013 8.3438 39.497C8.18758 39.9937 8.12798 40.55 8.00357 41.0586C7.89565 41.4997 7.40806 41.5901 7.35893 41.9695C7.05756 44.2964 5.10268 46.1888 5.10268 48.7036C5.10268 50.4763 5.02766 52.267 5.10268 54.0389C5.1358 54.821 5.77528 55.7109 6.06964 56.4462C6.46904 57.4439 6.86219 58.8754 7.50219 59.7645C9.70543 62.8254 11.4892 65.6853 15.99 65.6853C18.2776 65.6853 17.0286 67.3949 17.0286 68.8409C17.0286 70.312 16.3256 71.8821 15.8109 73.2328C15.1364 75.0028 15.7393 77.5651 15.7393 79.4464C15.7393 81.7021 16.4206 82.7856 17.6016 84.7166C19.9332 88.5289 24.1131 89.694 28.6322 89.694" stroke="white" stroke-opacity="0.5" stroke-width="2" stroke-linecap="round"/>
<path d="M111.791 47.2396C109.589 47.4618 110.18 53.637 110.18 55.0148C110.18 56.3703 110.18 57.7258 110.18 59.0813C110.18 60.2429 109.535 61.2335 109.535 62.3996C109.535 63.7222 108.89 64.9399 108.89 66.2709C108.89 67.6894 108.981 69.0642 108.496 70.435C107.822 72.3408 107.238 74.7149 105.667 76.2257C103.889 77.9359 102.743 79.5209 100.188 80.5524C99.2898 80.9149 98.3536 81.035 97.4658 81.4959C95.7917 82.3648 94.5539 83.4088 93.0249 84.4238C91.8103 85.23 91.4238 86.3646 90.0166 86.9125C88.6269 87.4535 86.8423 87.2747 85.6115 87.9372C84.8372 88.354 83.6661 88.453 82.7822 88.5228C81.4736 88.6262 80.3702 89.3608 79.1292 89.6614C77.6555 90.0184 75.9046 90.8651 74.4019 90.8651" stroke="#564C86" stroke-width="8" stroke-linecap="round"/>
<path d="M111.791 47.2396C109.589 47.4618 110.18 53.637 110.18 55.0148C110.18 56.3703 110.18 57.7258 110.18 59.0813C110.18 60.2429 109.535 61.2335 109.535 62.3996C109.535 63.7222 108.89 64.9399 108.89 66.2709C108.89 67.6894 108.981 69.0642 108.496 70.435C107.822 72.3408 107.238 74.7149 105.667 76.2257C103.889 77.9359 102.743 79.5209 100.188 80.5524C99.2898 80.9149 98.3536 81.035 97.4658 81.4959C95.7917 82.3648 94.5539 83.4088 93.0249 84.4238C91.8103 85.23 91.4238 86.3646 90.0166 86.9125C88.6269 87.4535 86.8423 87.2747 85.6115 87.9372C84.8372 88.354 83.6661 88.453 82.7822 88.5228C81.4736 88.6262 80.3702 89.3608 79.1292 89.6614C77.6555 90.0184 75.9046 90.8651 74.4019 90.8651" stroke="white" stroke-opacity="0.7" stroke-width="2" stroke-linecap="round"/>
<path d="M111.791 47.2396C109.589 47.4618 110.18 53.637 110.18 55.0148C110.18 56.3703 110.18 57.7258 110.18 59.0813C110.18 60.2429 109.535 61.2335 109.535 62.3996C109.535 63.7222 108.89 64.9399 108.89 66.2709C108.89 67.6894 108.981 69.0642 108.496 70.435C107.822 72.3408 107.238 74.7149 105.667 76.2257C103.889 77.9359 102.743 79.5209 100.188 80.5524C99.2898 80.9149 98.3536 81.035 97.4658 81.4959C95.7917 82.3648 94.5539 83.4088 93.0249 84.4238C91.8103 85.23 91.4238 86.3646 90.0166 86.9125C88.6269 87.4535 86.8423 87.2747 85.6115 87.9372C84.8372 88.354 83.6661 88.453 82.7822 88.5228C81.4736 88.6262 80.3702 89.3608 79.1292 89.6614C77.6555 90.0184 75.9046 90.8651 74.4019 90.8651" stroke="#564C86" stroke-width="8" stroke-linecap="round"/>
<path d="M111.791 47.2396C109.589 47.4618 110.18 53.637 110.18 55.0148C110.18 56.3703 110.18 57.7258 110.18 59.0813C110.18 60.2429 109.535 61.2335 109.535 62.3996C109.535 63.7222 108.89 64.9399 108.89 66.2709C108.89 67.6894 108.981 69.0642 108.496 70.435C107.822 72.3408 107.238 74.7149 105.667 76.2257C103.889 77.9359 102.743 79.5209 100.188 80.5524C99.2898 80.9149 98.3536 81.035 97.4658 81.4959C95.7917 82.3648 94.5539 83.4088 93.0249 84.4238C91.8103 85.23 91.4238 86.3646 90.0166 86.9125C88.6269 87.4535 86.8423 87.2747 85.6115 87.9372C84.8372 88.354 83.6661 88.453 82.7822 88.5228C81.4736 88.6262 80.3702 89.3608 79.1292 89.6614C77.6555 90.0184 75.9046 90.8651 74.4019 90.8651" stroke="white" stroke-opacity="0.7" stroke-width="2" stroke-linecap="round"/>
<path d="M45.0706 46.3613C46.8923 48.7947 49.7902 49.5819 52.9675 49.5819C54.3265 49.5819 55.4605 49.7545 56.6026 48.9964C57.388 48.475 58.4638 46.8759 58.8588 46.0685C59.0428 45.6924 58.948 45.0681 58.9305 44.6696C58.9137 44.2882 57.934 44.1262 57.874 44.3443C57.7153 44.9209 60.6425 46.6765 61.3121 46.9469C63.8506 47.9717 66.1193 48.118 68.9224 48.118C69.9519 48.118 71.143 47.8575 71.6443 46.9469C72.1124 46.0964 71.6977 44.4064 72.3068 43.7424C72.8863 43.1107 72.842 41.8902 72.7903 41.0911C72.7285 40.1371 70.8914 42.388 71.5726 43.0755C72.0341 43.5413 75.0172 43.7262 75.8524 43.7262C76.9634 43.7262 78.0558 43.8451 79.0756 43.4334C81.5711 42.4259 82.1376 41.3595 82.1376 39.0416" stroke="white" stroke-opacity="0.5" stroke-width="2" stroke-linecap="round"/>
<path d="M51.2551 10.9693C51.1569 11.8616 50.5199 13.0335 50.1046 13.8634C49.4763 15.119 49.3617 16.6501 48.9762 17.9635C48.5067 19.5626 48.1038 21.3189 47.361 22.8273C47.1188 23.319 46.9286 24.0205 46.8632 24.5557C46.7615 25.3864 46.1677 26.0813 46.0666 26.9072C45.7474 29.5169 43.583 33.3493 46.6972 35.1174C47.6826 35.6768 50.9381 35.1586 51.952 35.0169C53.1223 34.8534 54.287 34.3211 55.4368 34.0823C58.008 33.5485 60.5954 32.9308 63.225 32.6654C65.9105 32.3944 71.3736 30.8901 70.9579 27.681C70.8543 26.8805 70.059 26.3268 69.6193 25.6612C69.2731 25.137 68.9598 24.5631 68.6901 24.003C68.2858 23.1636 67.3926 21.8296 66.6766 21.1792C65.5201 20.1287 64.6994 18.7931 63.6122 17.6821C63.2054 17.2664 62.8991 16.7083 62.6055 16.2149C62.057 15.2932 61.3058 14.6427 60.6142 13.8233C59.0854 12.0119 55.6868 8.91626 52.8481 10.2056C52.1969 10.5013 52.2507 11.2787 52.2507 11.8737C52.2507 12.4164 52.2507 12.959 52.2507 13.5017C52.2507 14.9298 53.1289 16.0169 53.7332 17.2902C54.9287 19.8097 55.2377 22.9845 55.2377 25.7114C55.2377 26.1926 54.7681 26.7021 54.5739 27.1283C54.3252 27.6744 54.4729 28.3012 54.4412 28.8769C54.4036 29.5593 54.6934 29.3978 55.5364 29.0477C57.7435 28.1312 60.4495 27.9865 62.517 26.8871C62.8702 26.6993 63.2294 26.0035 63.5016 25.7013C64.236 24.886 63.1609 24.5535 62.4285 24.1839C61.2449 23.5866 60.6142 23.2352 60.6142 22.0033C60.6142 21.0646 60.596 19.4654 59.4194 19.1091" stroke="#C94040" stroke-opacity="0.8" stroke-width="8" stroke-linecap="round"/>
<path d="M52.8481 4.63827C52.0964 4.63827 51.1878 5.87558 51.775 6.52751C52.5326 7.36855 54.7479 7.15332 55.4811 6.48731C55.8265 6.17358 56.0162 5.66384 56.0342 5.22112C56.0558 4.69268 55.3444 4.8443 54.939 4.55787C54.3596 4.1485 51.7742 3.69525 51.4542 4.2765" stroke="#FF81B7" stroke-width="8" stroke-linecap="round"/>
<path d="M45.4803 19.29C48.9258 19.8723 53.2962 19.6862 56.532 18.5665C57.9193 18.0864 59.2787 18.0226 60.6695 17.4611C62.158 16.8601 63.8437 16.3224 65.3933 15.8532" stroke="#FF81B7" stroke-width="5" stroke-linecap="round"/>
<path d="M42.4933 30.8666C45.0829 30.8666 47.5943 31.159 50.2041 31.0374C53.9628 30.8623 58.3568 30.5977 61.8089 29.0979C64.0955 28.1045 66.4313 27.5347 68.4798 26.1636C68.8746 25.8993 71.515 23.7887 71.1681 23.6312" stroke="#FF81B7" stroke-width="5" stroke-linecap="round"/>
</svg>
